<?xml version="1.0" encoding="UTF-8" standalone="no"?>
<!-- Created with Inkscape (http://www.inkscape.org/) -->

<svg
   xmlns:dc="http://purl.org/dc/elements/1.1/"
   xmlns:cc="http://creativecommons.org/ns#"
   xmlns:rdf="http://www.w3.org/1999/02/22-rdf-syntax-ns#"
   xmlns:svg="http://www.w3.org/2000/svg"
   xmlns="http://www.w3.org/2000/svg"
   xmlns:sodipodi="http://sodipodi.sourceforge.net/DTD/sodipodi-0.dtd"
   xmlns:inkscape="http://www.inkscape.org/namespaces/inkscape"
   version="1.1"
   id="svg815"
   width="152"
   height="152"
   viewBox="0 0 152 152"
   sodipodi:docname="logo3.svg"
   inkscape:version="0.92.3 (2405546, 2018-03-11)">
  <metadata
     id="metadata821">
    <rdf:RDF>
      <cc:Work
         rdf:about="">
        <dc:format>image/svg+xml</dc:format>
        <dc:type
           rdf:resource="http://purl.org/dc/dcmitype/StillImage" />
        <dc:title></dc:title>
      </cc:Work>
    </rdf:RDF>
  </metadata>
  <defs
     id="defs819" />
  <sodipodi:namedview
     pagecolor="#ffffff"
     bordercolor="#666666"
     borderopacity="1"
     objecttolerance="10"
     gridtolerance="10"
     guidetolerance="10"
     inkscape:pageopacity="0"
     inkscape:pageshadow="2"
     inkscape:window-width="1920"
     inkscape:window-height="1017"
     id="namedview817"
     showgrid="false"
     inkscape:zoom="5.7848045"
     inkscape:cx="64.756357"
     inkscape:cy="90.757282"
     inkscape:window-x="-9"
     inkscape:window-y="-9"
     inkscape:window-maximized="1"
     inkscape:current-layer="svg815" />
  <rect
     style="opacity:1;fill:#f7f7f7;fill-opacity:1;stroke:none;stroke-width:2.0999999;stroke-miterlimit:4;stroke-dasharray:16.8, 8.40000000000000036;stroke-dashoffset:0;stroke-opacity:1"
     id="rect4534"
     width="152.18446"
     height="152.36893"
     x="0.18446602"
     y="-0.18446602"
     sodipodi:insensitive="true" />
  <g
     id="g4648"
     style="fill:none;fill-rule:evenodd;stroke-width:4.765522"
     transform="matrix(0.20559004,0,0,0.21417901,3.5011844,45.844652)">
    <g
       id="g4646"
       style="fill:#1b2442;fill-rule:nonzero;stroke-width:4.765522">
      <path
         d="m 72.3,12.2 c 4.4,1.8 8.7,4.3 13,7.6 1.2,0.9 2.2,1.4 3,1.4 2.1,0 3.5,-3.2 4.1,-9.5 H 96 c -0.4,7.2 -0.6,19.9 -0.6,38.2 H 91.8 C 90.9,42.1 89.6,36.2 88,32.1 86.4,28 83.7,24.4 79.9,21.4 77.3,18.9 74.2,17 70.7,15.6 c -3.5,-1.3 -7.1,-2 -10.9,-2 -10.6,0 -18.5,5.2 -23.7,15.6 -5.2,10.4 -7.7,23.3 -7.7,38.8 0,15.4 2.7,28.2 8.1,38.5 5.4,10.3 13.4,15.5 24,15.5 3.6,0 7.1,-0.7 10.7,-2 3.5,-1.3 6.5,-3.2 8.9,-5.8 3.9,-2.9 6.6,-6.6 8.1,-11.1 1.5,-4.4 2.7,-10.9 3.6,-19.4 h 3.6 c 0,19.1 0.2,32.3 0.6,39.8 h -3.6 c -0.3,-3.4 -0.8,-5.8 -1.3,-7.2 -0.6,-1.4 -1.4,-2.1 -2.4,-2.1 -0.8,0 -1.9,0.4 -3.3,1.3 -4.7,3.4 -9.3,5.9 -13.6,7.7 -4.3,1.7 -9.5,2.6 -15.6,2.6 C 45,125.8 35.3,123.5 26.9,119 18.5,114.5 12,107.9 7.4,99.3 2.8,90.7 0.5,80.5 0.5,68.6 0.5,57 2.9,46.8 7.6,37.8 12.3,28.9 18.9,21.9 27.4,17 c 8.5,-4.9 18.1,-7.4 29,-7.4 6.1,-0.1 11.5,0.8 15.9,2.6 z"
         id="path4610"
         inkscape:connector-curvature="0"
         style="stroke-width:4.765522" />
      <path
         d="m 133.4,54.3 c 4.7,-9.8 13.3,-14.7 25.7,-14.7 8.2,0 14,2.1 17.4,6.2 1.8,2 3.1,4.6 3.9,7.8 0.8,3.2 1.2,7.4 1.2,12.7 v 42.5 c 0,4.3 0.7,7.3 2.2,8.9 1.5,1.6 4.1,2.4 7.9,2.4 v 3.3 c -11,-0.4 -31.3,-0.4 -41.4,0 v -3.3 c 3.2,0 5.4,-0.8 6.6,-2.4 1.3,-1.6 1.9,-4.6 1.9,-8.9 V 59.7 c 0,-4.3 -0.7,-7.6 -2.1,-9.8 -1.4,-2.2 -4,-3.3 -7.7,-3.3 -4.4,0 -8.1,1.7 -11.1,5.1 -3,3.4 -4.5,7.8 -4.5,13 v 44.1 c 0,4.3 0.6,7.3 1.9,8.9 1.3,1.6 3.5,2.4 6.6,2.4 v 3.3 c -10.1,-0.4 -30.4,-0.4 -41.4,0 v -3.3 c 3.7,0 6.3,-0.8 7.8,-2.4 1.5,-1.6 2.3,-4.6 2.3,-8.9 V 18.9 c 0,-4.8 -0.8,-8.4 -2.3,-10.6 C 106.8,6.1 104.2,5 100.5,5 V 1.7 c 3.4,0.3 6.6,0.5 9.8,0.5 9.2,0 16.8,-0.7 23.1,-2.2 z"
         id="path4612"
         inkscape:connector-curvature="0"
         style="stroke-width:4.765522" />
      <path
         d="m 398.4,117.7 c 1.5,1.6 4.1,2.4 7.8,2.4 v 3.3 c -10.5,-0.4 -30.3,-0.4 -40.4,0 v -3.3 c 2.8,0 4.8,-0.8 5.9,-2.4 1.1,-1.6 1.7,-4.6 1.7,-9 v -49 c 0,-4.4 -0.7,-7.7 -2,-9.9 -1.3,-2.2 -3.8,-3.2 -7.5,-3.2 -3.9,0 -7.3,1.6 -10.2,4.9 -2.9,3.3 -4.6,7.3 -5.1,12 v 2.8 42.5 c 0,4.3 0.7,7.3 2,8.9 1.3,1.6 3.7,2.4 7.2,2.4 v 3.3 c -10.1,-0.4 -29.4,-0.4 -39.5,0 v -3.3 c 2.8,0 4.8,-0.8 5.9,-2.4 1.1,-1.6 1.7,-4.6 1.7,-8.9 V 59.7 c 0,-4.4 -0.6,-7.7 -1.7,-9.9 -1.2,-2.2 -3.4,-3.2 -6.8,-3.2 -4.2,0 -7.8,1.8 -10.8,5.3 -3,3.5 -4.5,7.9 -4.5,13 v 43.9 c 0,4.3 0.6,7.3 1.7,8.9 1.1,1.6 3.1,2.4 5.9,2.4 v 3.3 c -9.3,-0.4 -29.1,-0.4 -40.4,0 v -3.3 c 3.8,0 6.4,-0.8 7.9,-2.4 1.5,-1.6 2.2,-4.6 2.2,-8.9 V 59.1 c 0,-4.8 -0.7,-8.4 -2.2,-10.6 -1.5,-2.2 -4.1,-3.3 -7.9,-3.3 v -3.3 c 3.4,0.3 6.6,0.5 9.8,0.5 9.4,0 17.1,-0.7 23.1,-2.2 v 14.2 c 4.6,-9.8 12.8,-14.7 24.5,-14.7 8,0 13.8,2.1 17.4,6.2 2,2.1 3.3,5.3 3.9,9.5 2.7,-5.7 6.3,-9.7 10.7,-12.1 4.4,-2.4 9.6,-3.6 15.5,-3.6 8,0 13.8,2.1 17.4,6.2 1.7,1.9 2.9,4.5 3.6,7.7 0.7,3.3 1.1,7.5 1.1,12.8 v 42.5 c -0.2,4.2 0.5,7.2 2.1,8.8 z"
         id="path4614"
         inkscape:connector-curvature="0"
         style="stroke-width:4.765522" />
      <path
         d="m 479,50.1 c 5.3,7 7.9,17.1 7.9,30.4 0,15.5 -3.4,26.9 -10.1,34.2 -6.7,7.3 -15.4,11 -26.1,11 -7.3,0 -13.2,-1.8 -17.7,-5.5 -3.8,-0.3 -7.6,0.1 -11.4,1.3 -3.8,1.2 -6.8,2.7 -9,4.6 l -2.4,-1.4 c 0.7,-2.6 1.1,-5.6 1.1,-8.8 v -97 C 411.3,14.1 410.5,10.5 409,8.3 407.5,6.1 404.9,5 401.2,5 V 1.7 c 3.3,0.3 6.5,0.5 9.8,0.5 9.2,0 16.8,-0.7 23.1,-2.2 v 54.6 c 2.2,-4.8 5.4,-8.6 9.6,-11.1 4.2,-2.6 9.1,-3.9 14.5,-3.9 8.6,0 15.5,3.5 20.8,10.5 z m -20.3,62.5 c 2.8,-6.5 4.3,-16.5 4.3,-29.8 0,-13 -1.2,-22.2 -3.6,-27.9 -2.4,-5.6 -5.9,-8.4 -10.4,-8.4 -3.4,0 -6.5,1.2 -9.2,3.7 -2.8,2.5 -4.7,5.8 -5.6,10 v 58 c 3.5,2.8 7.4,4.3 11.7,4.3 5.7,-0.1 10,-3.4 12.8,-9.9 z"
         id="path4616"
         inkscape:connector-curvature="0"
         style="stroke-width:4.765522" />
      <path
         d="m 558.6,100.1 2.8,0.9 c -2.1,6.8 -5.9,12.7 -11.3,17.5 -5.4,4.8 -12.2,7.2 -20.3,7.2 -11.2,0 -20,-3.6 -26.6,-10.7 -6.6,-7.1 -9.9,-17.6 -9.9,-31.5 0,-14.2 3.5,-25.1 10.6,-32.6 7.1,-7.5 16.4,-11.3 28.1,-11.3 19.8,0 29.7,11.7 29.7,35.1 h -44.4 c -0.1,1.6 -0.2,4.1 -0.2,7.4 0,6.9 1,12.7 2.9,17.4 1.9,4.6 4.5,8 7.6,10.1 3.1,2.1 6.4,3.2 10,3.2 8.8,0 15.7,-4.3 21,-12.7 z M 521.7,50 c -2.5,4.7 -4,11.9 -4.7,21.7 h 24.8 c 0.2,-8.3 -0.6,-15.2 -2.4,-20.6 -1.8,-5.4 -4.6,-8.1 -8.3,-8.1 -3.8,0 -6.9,2.3 -9.4,7 z"
         id="path4618"
         inkscape:connector-curvature="0"
         style="stroke-width:4.765522" />
      <path
         d="m 627.7,43.9 c 2.4,2.8 3.6,6.3 3.6,10.3 0,3.9 -1.1,7.1 -3.4,9.6 -2.3,2.5 -5.2,3.7 -8.9,3.7 -3.6,0 -6.4,-0.9 -8.5,-2.8 -2.1,-1.8 -3.2,-4.3 -3.2,-7.3 0,-5.1 2.3,-9.2 6.9,-12.3 -0.4,-0.1 -1.1,-0.2 -1.9,-0.2 -1.1,0 -1.9,0.1 -2.5,0.3 -4,0.6 -7.4,3.1 -10.2,7.3 -2.8,4.2 -4.2,8.5 -4.2,13 v 41.9 c 0,4.8 1.2,8.2 3.6,10.1 2.4,1.9 6.1,2.8 11.3,2.8 v 3.3 c -1.5,0 -2.7,-0.1 -3.6,-0.2 -10.7,-0.3 -30.8,-0.3 -40.9,0 -0.8,0.1 -1.9,0.2 -3.2,0.2 v -3.3 c 3.8,0 6.4,-0.8 7.9,-2.4 1.5,-1.6 2.2,-4.6 2.2,-8.9 V 59.1 c 0,-4.8 -0.7,-8.4 -2.2,-10.6 -1.5,-2.2 -4.1,-3.3 -7.9,-3.3 v -3.3 c 3.4,0.3 6.6,0.5 9.8,0.5 9.4,0 17.1,-0.7 23.1,-2.2 v 14.7 c 2,-4.5 4.9,-8.2 8.7,-11 3.8,-2.8 8.1,-4.2 12.8,-4.2 4.7,-0.1 8.3,1.4 10.7,4.2 z"
         id="path4620"
         inkscape:connector-curvature="0"
         style="stroke-width:4.765522" />
      <path
         d="m 671.4,41.1 c 3.4,1 5.9,2.1 7.7,3.4 1.1,0.7 2,1.1 2.8,1.1 0.9,0 1.8,-0.5 2.4,-1.5 0.7,-1 1.1,-2.4 1.3,-4.3 h 3.3 c -0.4,5.4 -0.6,14.6 -0.6,27.8 H 685 c -0.9,-6.9 -3,-12.8 -6.2,-17.5 -3.2,-4.7 -7.9,-7 -14,-7 -3.2,0 -5.8,0.9 -7.8,2.7 -2.1,1.8 -3.1,4.3 -3.1,7.4 0,3.6 1.2,6.7 3.6,9.2 2.4,2.6 6.2,5.7 11.4,9.4 l 4.6,3.3 c 6.4,4.8 11.2,9.2 14.2,13 3.1,3.8 4.6,8.5 4.6,14.2 0,4.6 -1.3,8.7 -4,12.3 -2.7,3.6 -6.3,6.3 -10.8,8.2 -4.5,1.9 -9.5,2.8 -15,2.8 -5.8,0 -10.7,-1.1 -14.8,-3.3 -3.4,-1.7 -5.8,-2.8 -7.3,-3.3 -1.1,-0.3 -2,0 -2.8,1 -0.8,1 -1.4,2.5 -1.8,4.5 h -3.3 c 0.4,-6 0.6,-16.5 0.6,-31.6 h 3.3 c 2.1,19.4 9.2,29.1 21.3,29.1 3.1,0 5.7,-0.9 7.8,-2.8 2.2,-1.8 3.2,-4.7 3.2,-8.4 0,-2.9 -0.7,-5.6 -2,-7.9 -1.3,-2.3 -3,-4.4 -5,-6.2 -2,-1.8 -5,-4.3 -9,-7.4 -4.7,-3.8 -8.3,-6.8 -10.8,-9.2 -2.5,-2.3 -4.6,-5.1 -6.3,-8.2 -1.7,-3.1 -2.6,-6.7 -2.6,-10.6 0,-6.7 2.6,-12.1 7.9,-16 5.3,-3.9 11.7,-5.8 19.3,-5.8 4.2,0.1 7.8,0.6 11.2,1.6 z"
         id="path4622"
         inkscape:connector-curvature="0"
         style="stroke-width:4.765522" />
      <g
         transform="translate(100,151)"
         id="g4628"
         style="stroke-width:4.765522">
        <path
           d="m 89.2,1.1 c -3.4,0 -6.1,-0.1 -8,-0.2 v 1.6 c 2.1,0.1 3.6,0.4 4.6,0.8 1,0.4 1.7,1.2 2,2.1 0.3,1 0.5,2.5 0.5,4.5 V 35.5 L 63.4,0.8 C 61.4,1 59,1 56.2,1 53.1,1 50.7,0.9 48.9,0.8 v 1.6 c 1.9,0.1 3.2,0.3 4.1,0.6 0.9,0.3 1.4,0.9 1.8,1.8 0.3,0.9 0.5,2.3 0.5,4.3 v 30.2 c 0,2 -0.2,3.5 -0.5,4.5 -0.3,1 -0.9,1.7 -1.8,2.2 -0.9,0.4 -6.2,3 -9.4,-4.2 L 25.3,0.5 H 24.1 L 6.8,39.6 c -0.9,2 -1.8,3.7 -2.8,4.9 -1,1.2 -2.2,2 -3.6,2.4 v 1.6 c 1.4,-0.2 12.3,-0.2 13.9,0 v -1.6 c -2.1,-0.2 -3.7,-0.7 -4.6,-1.4 -1,-0.8 -1.4,-1.8 -1.4,-3.2 0,-1.3 0.4,-3 1.3,-5 l 2.7,-5.9 h 19 l 4,8.9 c 0.7,1.6 1.1,2.8 1.1,3.7 0,1 -0.5,1.7 -1.4,2.1 -0.9,0.4 -2.3,0.7 -4.3,0.8 v 1.6 c 2.2,-0.2 31.7,-0.2 33.5,0 v -1.6 c -2.1,-0.1 -3.6,-0.4 -4.6,-0.8 -1,-0.4 -1.7,-1.2 -2,-2.1 -0.3,-1 -0.5,-2.5 -0.5,-4.5 V 5.7 L 88.3,49 h 1.8 V 10 c 0,-2 0.2,-3.5 0.5,-4.5 0.3,-1 0.9,-1.7 1.8,-2.2 0.9,-0.4 2.2,-0.7 4.1,-0.8 V 0.9 C 94.8,1 92.3,1.1 89.2,1.1 Z M 12.9,29.8 21.8,10 30.6,29.8 Z"
           id="path4624"
           inkscape:connector-curvature="0"
           style="stroke-width:4.765522" />
        <path
           d="m 138.6,6.8 c 4.1,3.9 6.1,9.7 6.1,17.2 0,4.9 -1,9.2 -3,12.9 -2,3.7 -4.9,6.5 -8.6,8.5 -3.8,2 -8.3,3 -13.6,3 L 115,48.3 c -2.9,-0.1 -5.1,-0.2 -6.4,-0.2 -4.3,0 -7.5,0.1 -9.7,0.2 v -1.6 c 1.9,-0.1 3.2,-0.3 4.1,-0.6 0.9,-0.3 1.4,-0.9 1.8,-1.8 0.3,-0.9 0.5,-2.3 0.5,-4.3 V 9.1 c 0,-2 -0.2,-3.4 -0.5,-4.3 C 104.5,3.9 103.9,3.3 103,3 102.1,2.7 100.8,2.5 98.9,2.4 V 0.8 c 1.8,0.2 4.3,0.2 7.6,0.2 l 6.6,-0.1 c 3.5,-0.1 5.9,-0.2 7.1,-0.2 8.2,0.2 14.3,2.2 18.4,6.1 z m -24,-4 c -0.8,0.4 -1.4,1 -1.7,2 -0.3,0.9 -0.5,2.3 -0.5,4.2 v 31.2 c 0,1.9 0.2,3.3 0.5,4.2 0.3,0.9 0.9,1.6 1.7,2 0.8,0.4 2,0.5 3.7,0.5 4.7,0 8.5,-0.8 11.2,-2.5 2.7,-1.7 4.6,-4.2 5.7,-7.5 1.1,-3.3 1.6,-7.5 1.6,-12.7 0,-7.6 -1.4,-13.2 -4.2,-16.7 C 129.8,4 125,2.2 118.2,2.2 c -1.5,0.1 -2.7,0.3 -3.6,0.6 z"
           id="path4626"
           inkscape:connector-curvature="0"
           style="stroke-width:4.765522" />
      </g>
      <path
         d="m 282.6,177 v 14.1 c 0,2 0.2,3.4 0.6,4.3 0.4,0.9 1.1,1.5 2.2,1.8 1,0.3 2.7,0.5 5.1,0.6 v 1.6 c -2.7,-0.2 -19.3,-0.2 -21.5,0 v -1.6 c 1.9,-0.1 3.2,-0.3 4.1,-0.6 0.9,-0.3 1.4,-0.9 1.8,-1.8 0.3,-0.9 0.5,-2.3 0.5,-4.3 v -38.7 c 0,-2 -0.2,-3.4 -0.5,-4.3 -0.3,-0.9 -0.9,-1.5 -1.8,-1.8 -0.9,-0.3 -2.2,-0.5 -4.1,-0.6 v -1.6 c 2.2,0.2 5.4,0.2 9.5,0.2 l 8.4,-0.1 c 1,-0.1 2.1,-0.1 3.4,-0.1 6.1,0 10.8,1.4 14,4.2 3.2,2.8 4.8,6.5 4.8,11.2 0,2.9 -0.6,5.6 -1.9,8.2 -1.3,2.6 -3.4,4.8 -6.5,6.6 -3,1.8 -7.1,2.7 -12.1,2.7 z m 2.2,-30.8 c -0.8,0.4 -1.4,1 -1.7,2 -0.3,0.9 -0.5,2.3 -0.5,4.2 v 23.1 h 5.2 c 5.1,0 8.6,-1.4 10.6,-4.1 2,-2.7 2.9,-6.4 2.9,-11 0,-5.1 -1,-8.8 -3,-11.2 -2,-2.4 -5.3,-3.6 -10,-3.6 -1.5,0 -2.7,0.2 -3.5,0.6 z"
         id="path4630"
         inkscape:connector-curvature="0"
         style="stroke-width:4.765522" />
      <path
         d="m 436.7,161.1 c 0,2.7 0.1,4.8 0.2,6.4 h -1.8 c -0.3,-3.6 -0.8,-6.4 -1.5,-8.4 -0.7,-1.9 -1.8,-3.3 -3.3,-4.2 -1.5,-0.9 -3.7,-1.3 -6.5,-1.3 h -5 v 36.6 c 0,2.2 0.2,3.8 0.6,4.8 0.4,1 1.1,1.7 2.2,2 1,0.4 2.7,0.6 5.1,0.7 v 1.6 c -2.7,-0.2 -20.5,-0.2 -23,0 v -1.6 c 2.3,-0.1 4,-0.3 5.1,-0.7 1,-0.4 1.8,-1 2.2,-2 0.4,-1 0.6,-2.6 0.6,-4.8 v -36.6 h -5 c -2.8,0 -5,0.4 -6.5,1.3 -1.5,0.9 -2.6,2.3 -3.3,4.2 -0.7,1.9 -1.2,4.7 -1.5,8.4 h -1.8 c 0.2,-1.7 0.2,-3.8 0.2,-6.4 0,-2.7 -0.2,-5.8 -0.5,-9.2 4.3,0.2 11.7,0.2 22,0.2 10.3,0 17.6,-0.1 22,-0.2 -0.3,3.4 -0.5,6.5 -0.5,9.2 z"
         id="path4632"
         inkscape:connector-curvature="0"
         style="stroke-width:4.765522" />
      <path
         d="m 486.7,153.5 c -1.8,0.1 -3.2,0.4 -4.1,0.8 -0.9,0.4 -1.5,1.2 -1.8,2.2 -0.3,1 -0.5,2.5 -0.5,4.5 v 38.8 h -1.8 l -31.2,-43.3 v 33.8 c 0,2 0.2,3.5 0.5,4.5 0.3,1 1,1.7 2,2.1 1,0.4 2.5,0.7 4.6,0.8 v 1.6 c -1.9,-0.2 -13.5,-0.2 -15.2,0 v -1.6 c 1.8,-0.1 3.2,-0.4 4.1,-0.8 0.9,-0.4 1.5,-1.2 1.8,-2.2 0.3,-1 0.5,-2.5 0.5,-4.5 V 160 c 0,-2 -0.2,-3.4 -0.5,-4.3 -0.3,-0.9 -0.9,-1.5 -1.8,-1.8 -0.9,-0.3 -2.2,-0.5 -4.1,-0.6 v -1.6 c 1.7,0.2 4.1,0.2 7.3,0.2 2.8,0 5.2,-0.1 7.2,-0.2 l 24.9,34.7 V 161 c 0,-2 -0.2,-3.5 -0.5,-4.5 -0.3,-1 -1,-1.7 -2,-2.1 -1,-0.4 -2.5,-0.7 -4.6,-0.8 V 152 c 1.9,0.2 4.5,0.2 8,0.2 3.1,0 5.5,-0.1 7.3,-0.2 v 1.5 z"
         id="path4634"
         inkscape:connector-curvature="0"
         style="stroke-width:4.765522" />
      <path
         d="m 528,199.4 c -3.4,-0.2 -34,-0.2 -39,0 v -1.6 c 1.9,-0.1 3.2,-0.3 4.1,-0.6 0.9,-0.3 1.4,-0.9 1.8,-1.8 0.3,-0.9 0.5,-2.3 0.5,-4.3 v -30.9 c 0,-2 -0.2,-3.4 -0.5,-4.3 -0.3,-0.9 -0.9,-1.5 -1.8,-1.8 -0.9,-0.3 -2.2,-0.5 -4.1,-0.6 v -1.6 c 4.9,0.2 12.2,0.2 21.9,0.2 7.3,0 12.5,-0.1 15.5,-0.2 -0.4,3.1 -0.5,5.9 -0.5,8.4 0,2 0.1,3.6 0.2,4.8 h -1.8 c -0.4,-4.3 -1.3,-7.3 -2.7,-8.9 -1.4,-1.7 -3.8,-2.5 -7,-2.5 h -5.7 c -1.9,0 -3.2,0.1 -4.1,0.4 -0.9,0.3 -1.4,0.9 -1.8,1.8 -0.3,0.9 -0.5,2.3 -0.5,4.3 v 14.5 h 6.5 c 1.7,0 2.9,-0.4 3.8,-1.3 0.9,-0.9 1.5,-1.8 1.8,-2.8 0.3,-1 0.6,-2.3 0.9,-3.9 h 1.8 c -0.2,1.8 -0.2,3.7 -0.2,5.8 v 3 c 0,2 0.2,4.9 0.5,8.7 h -1.8 c -0.3,-2.5 -0.9,-4.5 -1.8,-5.9 -0.9,-1.4 -2.5,-2.1 -4.9,-2.1 h -6.5 V 191 c 0,2 0.2,3.4 0.5,4.3 0.3,0.9 0.9,1.5 1.8,1.8 0.9,0.3 2.2,0.4 4.1,0.4 h 5.7 c 2.6,0 4.7,-0.4 6.2,-1.2 1.5,-0.8 2.7,-2.2 3.4,-4 0.8,-1.8 1.3,-4.4 1.6,-7.8 h 1.8 c -0.2,1.4 -0.2,3.3 -0.2,5.6 -0.1,2.8 0.1,5.8 0.5,9.3 z"
         id="path4636"
         inkscape:connector-curvature="0"
         style="stroke-width:4.765522" />
      <path
         d="m 600.1,151.5 c 1.3,0.5 2.7,1.2 4.1,2.1 1.1,0.7 2,1.1 2.7,1.1 0.5,0 0.8,-0.3 1.1,-0.8 0.3,-0.5 0.5,-1.4 0.6,-2.6 h 1.8 c -0.3,2.7 -0.4,7.5 -0.4,14.4 h -1.8 c -0.3,-3.7 -1.5,-6.9 -3.6,-9.5 -2.1,-2.6 -5.2,-3.9 -9.2,-3.9 -2.8,0 -5,0.7 -6.8,2.2 -1.8,1.5 -2.7,3.3 -2.7,5.5 0,1.6 0.4,3 1.2,4.2 0.8,1.2 1.8,2.2 3.1,3.1 1.3,0.9 3.1,1.9 5.4,3.2 l 2.6,1.4 c 3.2,1.7 5.8,3.3 7.8,4.6 2,1.4 3.5,2.9 4.7,4.6 1.2,1.7 1.8,3.8 1.8,6.1 0,4.2 -1.5,7.5 -4.6,9.8 -3,2.3 -6.9,3.5 -11.4,3.5 -2.5,0 -4.5,-0.3 -6.1,-0.8 -1.6,-0.5 -3.1,-1.2 -4.6,-2.1 -1.1,-0.7 -2,-1.1 -2.7,-1.1 -0.5,0 -0.8,0.3 -1.1,0.8 -0.3,0.5 -0.5,1.4 -0.6,2.6 h -1.8 c 0.2,-2.6 0.3,-8.3 0.3,-17.2 h 1.8 c 0.4,4.8 1.7,8.7 3.9,11.7 2.2,3 5.7,4.5 10.3,4.5 2.6,0 4.9,-0.7 6.8,-2.2 1.9,-1.5 2.9,-3.7 2.9,-6.6 0,-1.7 -0.5,-3.2 -1.5,-4.6 -1,-1.3 -2.3,-2.5 -4,-3.6 -1.7,-1 -4,-2.3 -7,-3.9 -4.3,-2.2 -7.5,-4.4 -9.8,-6.6 -2.2,-2.2 -3.4,-5 -3.4,-8.5 0,-3.9 1.4,-6.8 4.3,-9 2.8,-2.1 6.3,-3.2 10.4,-3.2 2.4,0.1 4.2,0.3 5.5,0.8 z"
         id="path4638"
         inkscape:connector-curvature="0"
         style="stroke-width:4.765522" />
      <path
         d="m 266.2,117.2 c -1.6,1.1 -3,1.6 -4.2,1.6 -1.4,0 -2.3,-0.5 -2.8,-1.6 -0.5,-1.1 -0.7,-2.8 -0.7,-5.4 v -43 c 0,-5.8 -0.4,-10.4 -1.2,-13.7 -0.8,-3.4 -2.3,-6.2 -4.7,-8.5 -2.5,-2.5 -5.7,-4.3 -9.5,-5.4 -3.8,-1.1 -8.3,-1.6 -13.4,-1.6 -5,0 -9.5,0.5 -13.7,1.4 -4.2,0.9 -7.7,2.3 -10.5,3.9 -2.9,1.8 -5.1,3.7 -6.6,5.8 -1.4,2.1 -2.1,4.6 -2.1,7.5 0,3.5 1,6.4 3,8.7 2,2.3 4.8,3.5 8.5,3.5 3.5,0 6.4,-1.1 8.8,-3.2 2.4,-2.1 3.6,-4.9 3.6,-8.5 0,-2.8 -0.8,-5.3 -2.4,-7.4 -1.6,-2.1 -3.9,-3.7 -6.9,-4.7 2.6,-2.5 6.5,-3.8 11.5,-3.8 4.3,0 7.5,1.2 9.6,3.7 2.1,2.5 3.1,5.9 3.1,10.3 v 12.3 c 0,2.8 -1.3,5.1 -4,6.7 -2.7,1.6 -6.9,3.4 -12.7,5.4 -5.5,1.9 -10,3.7 -13.5,5.4 -3.5,1.7 -6.5,4.1 -9,7.2 -2.5,3.1 -3.7,7 -3.7,11.8 0,5.7 1.7,10.3 5,13.7 3.3,3.4 8.3,5.2 15.1,5.2 10.2,0 17.9,-4.3 23.2,-12.8 0.1,3.9 1.3,7 3.6,9.3 2.3,2.3 6.4,3.5 12.2,3.5 6.2,0 11.5,-1.6 15.9,-4.7 z M 235.7,108 c -3.1,4.3 -6.6,6.5 -10.7,6.5 -2.9,0 -5.3,-1 -7.1,-3.1 -1.8,-2.1 -2.7,-5.2 -2.7,-9.6 0,-4.9 1.1,-8.7 3.2,-11.4 2.1,-2.6 5.2,-5.3 9.3,-7.9 4.1,-2.5 6.8,-4.8 8.1,-6.9 V 108 Z"
         id="path4640"
         inkscape:connector-curvature="0"
         style="stroke-width:4.765522" />
      <path
         d="m 576.5,196 c -1.2,1.2 -2.4,1.7 -3.4,1.7 -0.8,0 -1.4,-0.4 -1.9,-1.1 -0.5,-0.8 -1,-2 -1.4,-3.9 l -1.7,-7.1 c -0.7,-2.8 -1.8,-4.8 -3.4,-6 -1.6,-1.2 -3.8,-2.1 -6.6,-2.5 -0.7,-0.1 -1.6,-0.2 -2.7,-0.3 5.5,-0.7 9.5,-2.3 11.9,-4.8 2.4,-2.5 3.6,-5.3 3.6,-8.3 0,-3.5 -1.6,-6.3 -4.6,-8.5 -3.1,-2.2 -7.6,-3.3 -13.4,-3.3 -1.1,0 -2.2,0 -3,0.1 l -8,0.1 c -4.2,0 -7.3,-0.1 -9.5,-0.2 v 1.6 c 1.9,0.1 3.2,0.3 4.1,0.6 0.9,0.3 1.4,0.9 1.8,1.8 0.3,0.9 0.5,2.3 0.5,4.3 v 30.9 c 0,2 -0.2,3.4 -0.5,4.3 -0.3,0.9 -0.9,1.5 -1.8,1.8 -0.9,0.3 -2.2,0.5 -4.1,0.6 v 1.6 c 2.2,-0.2 17.5,-0.2 19.9,0 v -1.6 c -1.9,-0.1 -3.2,-0.3 -4.1,-0.6 -0.9,-0.3 -1.4,-0.9 -1.8,-1.8 -0.3,-0.9 -0.5,-2.3 -0.5,-4.3 v -13.7 h 4.5 c 2.8,0 4.9,0.5 6.4,1.5 1.4,1 2.5,2.9 3.2,5.9 l 2.4,9.8 c 1,4 3.7,5.9 8,5.9 1.8,0 3.3,-0.4 4.6,-1.1 1,-0.6 1.8,-1.3 2.6,-2.2 z m -30.6,-20.1 v -15.7 c 0,-1.9 0.1,-3.3 0.4,-4.2 0.3,-0.9 0.7,-1.6 1.4,-2 0.7,-0.4 1.8,-0.5 3.2,-0.5 4.3,0 7.4,0.9 9.3,2.8 1.9,1.8 2.9,4.6 2.9,8.4 0,3.6 -0.8,6.4 -2.5,8.3 -1.7,2 -4.8,2.9 -9.4,2.9 z"
         id="path4642"
         inkscape:connector-curvature="0"
         style="stroke-width:4.765522" />
      <path
         d="m 394.8,196 c -1.2,1.2 -2.4,1.8 -3.4,1.8 -0.8,0 -1.4,-0.4 -1.9,-1.1 -0.5,-0.8 -1,-2 -1.4,-3.9 l -1.7,-7.1 c -0.7,-2.8 -1.8,-4.8 -3.4,-6 -1.6,-1.2 -3.8,-2.1 -6.6,-2.5 -0.7,-0.1 -1.6,-0.2 -2.7,-0.3 5.5,-0.7 9.5,-2.3 11.9,-4.8 2.4,-2.5 3.6,-5.3 3.6,-8.3 0,-3.5 -1.6,-6.3 -4.6,-8.5 -3.1,-2.2 -7.6,-3.3 -13.4,-3.3 -1.1,0 -2.2,0 -3,0.1 l -8,0.1 c -4.2,0 -7.3,-0.1 -9.5,-0.2 v 1.6 c 1.9,0.1 3.2,0.3 4.1,0.6 0.9,0.3 1.4,0.9 1.8,1.8 0.3,0.9 0.5,2.3 0.5,4.3 v 30.9 c 0,2 -0.2,3.4 -0.5,4.3 -0.3,0.9 -0.9,1.5 -1.8,1.8 -0.9,0.3 -6.7,2.6 -9.4,-4.4 l -18.3,-41.3 h -1.2 l -17.3,39.1 c -0.9,2 -1.8,3.7 -2.8,4.9 -1,1.2 -2.2,2 -3.6,2.4 v 1.6 c 1.4,-0.2 12.3,-0.2 13.9,0 V 198 c -2.1,-0.2 -3.7,-0.7 -4.6,-1.4 -1,-0.8 -1.4,-1.8 -1.4,-3.2 0,-1.3 0.4,-3 1.3,-5 l 2.7,-5.9 h 19 l 4,8.9 c 0.7,1.6 1.1,2.8 1.1,3.7 0,1 -0.5,1.7 -1.4,2.1 -0.9,0.4 -2.3,0.7 -4.3,0.8 v 1.6 c 2.2,-0.2 35.8,-0.2 38.2,0 V 198 c -1.9,-0.1 -3.2,-0.3 -4.1,-0.6 -0.9,-0.3 -1.4,-0.9 -1.8,-1.8 -0.3,-0.9 -0.5,-2.3 -0.5,-4.3 v -13.7 h 4.5 c 2.8,0 4.9,0.5 6.4,1.5 1.4,1 2.5,2.9 3.2,5.9 l 2.4,9.8 c 1,4 3.7,5.9 8,5.9 1.8,0 3.3,-0.4 4.6,-1.1 1,-0.6 1.8,-1.3 2.6,-2.3 z m -80.2,-15.2 8.9,-19.8 8.8,19.8 z m 49.7,-4.9 v -15.7 c 0,-1.9 0.1,-3.3 0.4,-4.2 0.3,-0.9 0.7,-1.6 1.4,-2 0.7,-0.4 1.8,-0.5 3.2,-0.5 4.3,0 7.4,0.9 9.3,2.8 1.9,1.8 2.9,4.6 2.9,8.4 0,3.6 -0.8,6.4 -2.5,8.3 -1.7,2 -4.8,2.9 -9.4,2.9 z"
         id="path4644"
         inkscape:connector-curvature="0"
         style="stroke-width:4.765522" />
    </g>
  </g>
</svg>
