<svg width="300" height="300" version="1.1" viewBox="0 0 300 300" xmlns="http://www.w3.org/2000/svg">
	<rect width="300" height="300" style="fill:#f7f7f7"/>
	<g>
		<path d="m0 150v-150h300v300h-300z" style="display:none;fill:#f3f3f3"/>
		<path d="m74.75 250.16-1.2502-.33964-6.8019-3.0578-8.3267-7.6753-5.8713-11.588-.53788-147.71 7.0556-14.669 8.4822-6.8703 6.4007-3.2491h154.17l9.4335 4.8272 7.3651 7.6728 5.3006 10.62-.1636 149.63-2.8363 6.7495-6.2228 8.5612-11.049 7.0683-153.89.37049-1.2502-.33963zm155.82-6.6802 5.9285-3.0199 7.3944-11.076 2.0906-12.885-3e-5-61.5-4e-5-61.5-1.922-16.717-5.074-8.6582-8.4888-6.7977-11.116-3.3924-139.88.63788-7.5632 3.0914-7.7286 5.8135-5.2283 8.2641-2.0688 11.191.58894 139.57 5 9.7944 8 6.9518 9 3.6624 145.14-.40849zm-146.43-28.807-1.1012-1.3268-.54251-40.846-5-.69164-2.5-2.0532v-1.7551l4-4h9.6l2.4 2.4v47.2l-2.4 2.4h-3.3551zm24.356-1.5632-5-2.8713-6.2159-8.7386-2.5091-7.7119.8514-11.288 3.5063-7.2993 7.3673-7.4642 8-3.6926h13l8 3.7416 6.9658 5.9667 8.1884-6.7098 7.2816-3.0424 10.564.012 7.4068 2.0571 10.29 8.1336 6.3035-5.8417 5.8785-3.6543 13.339-.95437 7.1251 2.3515 8.1263 5.8866 4.6998 7.5104 2.4487 9.8494-1.3564 8.1506-3.6647 7.2329-5.1425 6.1116-10.346 5.1555-12.107-.044-9-4.0692-6.3998-6.182-7.4695 6.5583-8.1308 3.693h-13l-8.0444-3.6543-6.3018-6.3018h-1.366l-3.9851 5.0663-9.7362 4.9337-14.566-.018-5-2.8713zm107-5.6795 3-1.2558 4.266-4.6746 3.234-6.4007v-10.179l-3.9815-7.8045-6.5855-5.023-8.3409-1.3338-9.2362 1.385-7.8558 7.8558v19.93l5.9324 6.7567 9.5676 3.1856 7-1.1866zm-85.589-.22843 3.4107-1.702 6.1786-7.6856v-15.629l-6.0501-7.4751-6.9499-3.8288-13.221.66791-7.0746 5.396-4.4423 9.1765.89209 10.758 5.3406 8.07 7.5049 3.9619 11-.008 3.4107-1.702zm42.389.17744 3.2003-1.6206 3.7128-3.2588 3.7872-7.4203v-10.159l-3.7872-7.4203-3.786-3.4237-7.3626-3.0763h-8.4328l-8.6237 4.1746-3.8104 4.8441-.0472 19.903 4.1924 5.3298 8.1572 3.7048 9.5993.044 3.2003-1.6206zm-95.902-66.545-.72032-1.1655 5.3226-4.2441v-39.355l-4-2.1407v-3.9296h18v3.9296l-4 2.1407v39.62l4 3.62v2.69h-17.882zm25.057.0915-.66379-1.074 4.2095-4.4809v-38.742l-4.2095-4.4808 1.3276-2.1481h33.533l4.4278 4.7132 1.1825 7.2868h-3.6774l-7.4687-7.293-15.013-.96349-.60215 2.3991-.60214 2.3991.60182 13.958 9.3852.60489 3.4106-5.2052 4.2042.60034.49334 12-1.0314 4.5h-1.883l-2.1471-2.5-2.4853-3.6099-7.1792-1.6192-3.2673 1.8285v16.944l5 2.2782v3.679h-16.882l-.66378-1.074zm40 0-.66379-1.074 4.2095-4.4809v-39.126l-3-2.4898v-3.7551h16.882l1.4406 2.331-5.3226 4.2441v39.355l3.8685 2.0704h10.091l7.5405-3.0528 6.5997-10.075 3.4003.68987-.174 1.9688-.17399 1.9688-2.2678 8.9704-3.1942 3.5296h-38.572l-.66378-1.074zm46 0-.66379-1.074 4.2095-4.4808v-38.927l-4-3.4249v-2.0823l2.5-.94051 20-.57601 8.8962 2.6029 4.7938 4.4764 2.81 5.4007v5.1986l-2.9164 5.6396-7.0132 5.7612 9.9897 15 6.1662 6.3249-1.3443 2.1751h-9.5333l-4.0209-4.5-9.5097-14.543-6.0834-3.1458-1.704 2.6886-.0306 12.596 5.1814 4.802-.64972 1.0513-.64975 1.0512h-15.764l-.66378-1.074zm24.469-28.515 3.0767-2.5889v-10.474l-4.7132-4.4278-7.2699-1.1797-3.0169 2.5038v17.422l.66667.66666.66666.66667h7.5132z" style="fill:#272c3e"/>
		<path d="m226 248 1.5-.96937 1.618-.0306-1.2361 2-1.691-.0153-1.691-.0154zm5.9764-2.8024 2.4764-1.6976 6.6494-5.7969 3.3762-6.2031 3.5745-8-1.1984 7.7924-3.2113 5.2076-7.1432 7.6648-5.4007 2.8352-1.5993-.1048 2.4764-1.6976zm-168.73-4.2538-3.251-3.047-3.0627-6.3967 5.5648 7 5.3462 5.5-1.3462-.01-3.251-3.047zm-8.7752-88.444-.000172-71 .55184 70.354-.5515 71.647zm58.699 61.231-3.3274-1.0648-9.6218-8.6508-3.4236-8.5154-.05564-11 3.4792-8.5155 9.8528-8.8586 10.437-2.1666 10.438 1.9795 8.0496 5.3269v1.6639l4.222 2.2595 7.278-6.9688 6.9694-3.5145h13.22l10.277 5.5936 3.0799 4.7005h2.6439l3.81-4.3026 8.8916-5.6974h16.39l9.7184 6.6723 4.5042 6.6298 2.216 8.1979-.53441 5-.5344 5-3.4376 6.7798-7.8494 7.6176-10.672 3.1025h-3.8292l-10.071-2.9907-9.099-8.0093h-1.4857l-9.3932 8.7862-11.314 2.532-10.924-2.4448-9.8694-8.8735h-1.4402l-7.6572 7.8902-10.472 3.1098-7.137-.20418zm15.61-4.2841 3.7179-1.553 5.7297-5.3939 3.7704-8.6658-.044-8.3342-3.6421-8.0172-7.2593-6.3738-7.5547-2.098-5.2486-.012-8.7231 3.0777-5.4476 5.2192-4.0807 8.6814.02 7.5218 4.7158 10 4.779 4.3923 6.9857 3.0294 8.5642.0782 3.7179-1.553zm43.726-.31193 4.0086-1.8211 6.3738-7.2593 2.098-7.5546v-5l-2.1219-7.6416-6.9578-7.7014-9.2654-3.157h-4.9117l-8.232 2.4597-8.1956 8.1834v20.271l6.0542 7.3448 8.1415 3.6978h9zm43.515-.38502 4.4475-2.25 6.3367-8.4036.68393-4.0482.68394-4.0482-.68394-4.0482-.68393-4.0482-6.3079-8.2275-7.485-3.8644-7.7949-1.0455-9.8712 3.2787-6.7899 7.0054-.24564 20.874 6.0452 7.3339 8.1415 3.6978 9.0762.044 4.4475-2.25zm-131.22 5-.19866-.25-1.1027-41.956-6-1.9646-.3925-.26596-.3925-.26597 2.5299-3.0483h9.7551l.22954.5.77595 43-1.0436 4.5h-3.9619zm-3.1597-76.5.85841-2.75v-37l-1.7168-5.5h10.217v1.6l-2.0806 2.0806.58064 40.82 1.714 3.5h-10.431zm23.782.5.65698-2.25.0342-37.7-.63687-2.8997-.63694-2.8997h8.1589l.10907 11.25.10906 11.25-.19843 11.136-.19844 11.136 2.1787 1.3465v1.882h-10.233zm40.219.5.85699-1.75v-41l-1.714-3.5h10.214v2.882l-2 1.2361v39.764l2 1.2361v2.882h-10.214zm27.357.81739v-.93261l4.075-1.2934 4.8439-7.6733 1.0405-.64308 1.0405-.64307v4.0776l-3.2172 8.0405h-7.7828zm18.5-23.067v-24h8.7333l-.81428 2.25-.81429 2.25.134 9.5.13399 9.5-.1248 6-.11059 6.5-.1106 6.5 1.6902 5.5h-8.7168v-24zm23.585 15.127-5.9664-8.8733-5.6187-4.2156 3-2.0072 4-.0972 4.2064-3.5163 2.2936-4.2857v-7.2308l-3-5.8013-3.4834-1.9494 1.3493-1.3493 6.8399 2.2574 4.7941 5.1031v11.003l-7 5.9238-2.6182 2.1014 2.6182 3.6252 8.4118 12.685 4.2403 5.5h-8.1005l-5.9664-8.8734zm-89.341-12.67-2.744-2.3603v-1.9612l4-1.2696v-1.8652h3v8.882l-1.512.9345zm8.256-22.553-4.5-3.8977 6.4539-.0054 3.2117 4.9017-.3328 1.4496-.33279 1.4496zm113.77-11.403-.6182-2-1.2869-6.4027-7.7262-11.954-4.3075-2.3053 1.0561-1.0561 6.1074 4.3489 4.8812 8.3693 3.2488 9.6266-.36829 1.6867-.36828 1.6867zm-191.73-8.6227.89558-3.1227 3.3281-5.2546 5.2411-5.6786 5.4007-2.8214h1.3994l-7.9856 5.7847-4.1901 5.3268-4.3028 8.8884h-.68198z" style="fill:#272c3e"/>
		<path d="m113.62 212.59-3.8785-1.2013-7.7453-6.5026-4.1994-9.2183.7245-14.347 5.3057-8.0175 9.5144-6.3021h14.737l7.4203 3.7943 5.5154 6.2057h2.9691l5.5154-6.2057 7.4203-3.7943 5.5797.0708-5 2.8583-2.528.0708-6.7034 4.3942-4.141 6.1058-.01 19.378 4.385 6.6221 10.857 5.5h8.7056l7.4358-3.1014 6.6706-6.3986 3.0058-5.742v-13.516l-3.1181-6.0297-6.0481-6.0481-10.51-3.6352 5.348-.64716 7.652 3.935 5.8742 6.1832h3.3158l3.81-4.2928 7.8001-5.7072h15.74l7.5449 4.7629 6.3063 7.1825 2.098 7.5547.012 8.6098-3.9658 8.7054-9.3289 7.9741-11.51 2.4426-5.6954-2.0739 11.246-.1578 8.8082-3.8963 4.2121-4.6037 3.2675-6.4655.60292-4.3988.60293-4.3988-3.2778-9.8684-7.4616-7.2827-8.7514-3.0857-5.2486.0216-9.8962 3.0019-4.7938 4.4764-2.5092 5 .26856 20 3.815 5.7356 9.1156 5.888-5-1.3844-8.4553-7.7391h-2.3373l-9.2074 8.5793-11.5 2.7401-11.193-2.6851-8.8841-8.6344h-2.1294l-9.4568 8.5-9.3658 2.5-5.4713-.20971-3.8785-1.2013zm15.678-2.2372 3.2003-1.6482 6.2854-4.7773 4.2146-9.797v-9.2089l-4.2257-8.4203-4.1037-4.4796-10.746-4.0204h-5.8499l-11.086 4.1478-4.7924 6.3522-3.1966 7.7442v7.5015l3.8785 8.7542 6.6215 6.3944 7 3.0273 9.5993.0782 3.2003-1.6482zm-43.793 1.4814-.49393-1.3332-.51318-39.874-6.7723-1.7534 2.0005-2.0005 8.7717.62827v44.833l-2.4989.83299zm-2.4287-95.833v-23h5.4216v46h-5.4216zm24.762 2.9803.34073-20.021-2.0774-5.9593h5.896l.0946 20.5.40544 25.5-5 .00097.34073-20.021zm39.659-2.9803v-23h6.5704l-2.0704 3.8685v38.263l2.0704 3.8685h-6.5704zm31.62 19 3.2142-3.9996.78305.78306-3.0152 7.2162h-4.1963zm13.666-19.001-.28586-23.001 6.714.001689-1.6988 3.5.0418 39 1.6569 3.5h-6.1423l-.28586-23.001zm28.676 22.236-1.0385-.73469-8.6659-13-5.9309-6.2745.8369-.47447.83691-.47447 5.5-1.3146v3.2015l6.6611 8.3366 6.3389 10.53v.96995l-3.5-.0306-1.0385-.73468zm-95.211-20.968-1.25-.43339v-2.6194l2.8345-1.0877.98048 2.5551-1.315 2.0187zm89.241-4.2566 1.8008-1.9899.47742-4.9687.47743-4.9687-4.179-7.0829h3.0864l5.8462 5.8462v9l-6.1538 6.1538h-3.1561zm-81.491-18.51-1.2449-1.5h3.0309l.57561 1.5.5756 1.5h-1.6923z" style="fill:#272c3e"/>
	</g>
</svg>
