<svg width="152" height="152" version="1.1" viewBox="0 0 152 152" xmlns="http://www.w3.org/2000/svg">
	<rect x="-.66614" y=".66614" width="152.18" height="152.37" style="fill:#f7f7f7"/>
	<g transform="matrix(.43546 0 0 .42954 13.494 43.261)" style="stroke-width:2.3122">
		<path class="st0" d="m173.5 31.9h49.5c6.4.1 11.6 5.4 11.6 11.8s-5.2 11.7-11.6 11.8h-.2-.1-36.4v49.8h20v-29.7h16.4l14.5 29.8h22.2l-17.6-36.2c7.7-5.8 12.7-15 12.7-25.4 0-17.5-14.3-31.8-31.8-31.8h-56v20z" style="fill:#838b98;stroke-width:2.3122"/>
		<polygon class="st1" points="144.5 31.9 144.5 105.4 164.5 105.4 164.5 31.9 186 31.9 186 11.9 116.5 11.9 114.9 11.9 99.6 66.3 84.2 11.9 64.8 11.9 49.6 65.8 34.6 11.9 13.9 11.9 39.8 105.4 59.2 105.4 74.5 51.1 89.8 105.4 109.3 105.4 130 31.9" style="fill:#272c3e;stroke-width:2.3122"/>
		<g style="fill:#838ba2;stroke-width:2.3122">
			<path class="st1" d="m41.7 116.5h3.6l2.2 7.5 2.2-7.5h3.1l2.2 7.5 2.2-7.5h3.5l-3.9 12.4h-3.4l-2.2-7.5-2.2 7.5h-3.4z" style="fill:#838ba2;stroke-width:2.3122"/>
			<path class="st1" d="m65.4 118.9c2.8 0 5 2 5 5 0 3.2-2 5.2-5 5.2s-5-2-5-5.2c0-2.9 2.2-5 5-5zm0 7.8c1.1 0 1.6-1.1 1.6-2.7s-.6-2.6-1.6-2.6-1.6 1-1.6 2.6.5 2.7 1.6 2.7z" style="fill:#838ba2;stroke-width:2.3122"/>
			<path class="st1" d="m71.6 119.2h3.1l.2 1.4c.7-1.3 1.7-1.7 2.7-1.7.4 0 .7.1 1.1.1l-.4 3c-.3-.1-.8-.2-1.4-.2-.9 0-1.5.5-2 1.5v5.6h-3.3z" style="fill:#838ba2;stroke-width:2.3122"/>
			<path class="st1" d="m79.7 115.5h3.3v13.4h-3.3z" style="fill:#838ba2;stroke-width:2.3122"/>
			<path class="st1" d="m84.2 123.9c0-3.4 1.5-5 3.6-5 1 0 1.9.4 2.6 1.2v-4.7h3.3v13.4h-2.9l-.2-1.1c-.8.8-1.6 1.3-2.9 1.3-1.9 0-3.5-1.7-3.5-5.1zm6.3 2v-3.8c-.4-.4-.9-.7-1.5-.7-1 0-1.4.9-1.4 2.5 0 1.5.4 2.7 1.4 2.7.6 0 1-.2 1.5-.7z" style="fill:#838ba2;stroke-width:2.3122"/>
			<path class="st1" d="m102.7 119.5h-3.9v-3h11.1v3h-3.9v9.4h-3.4v-9.4z" style="fill:#838ba2;stroke-width:2.3122"/>
			<path class="st1" d="m110.7 119.2h3.1l.2 1.4c.7-1.3 1.7-1.7 2.7-1.7.4 0 .7.1 1.1.1l-.4 3c-.3-.1-.8-.2-1.4-.2-.9 0-1.5.5-2 1.5v5.6h-3.3z" style="fill:#838ba2;stroke-width:2.3122"/>
			<path class="st1" d="m123.7 122.9v-.5c0-.6-.4-.9-1-.9-.9 0-1.8.3-3.1 1l-1.1-2.3c1.5-.8 3.1-1.2 4.4-1.2 3 0 4.2 1.4 4.2 3.6v3.6c0 .4.2.6.7.6v2.2c-2.1 0-2.9-.2-3.6-1.2-.8 1-1.7 1.4-3 1.4-1.6 0-2.8-1-2.8-2.6-.3-1.9 1.1-3.3 5.3-3.7zm-1.4 3.9c.6 0 1-.3 1.3-.7v-1.6c-1.3.1-2.2.5-2.2 1.4 0 .6.4.9.9.9z" style="fill:#838ba2;stroke-width:2.3122"/>
			<path class="st1" d="m128.3 123.9c0-3.4 1.5-5 3.6-5 1 0 1.9.4 2.6 1.2v-4.7h3.3v13.4h-2.9l-.2-1.1c-.8.8-1.6 1.3-2.9 1.3-1.9 0-3.5-1.7-3.5-5.1zm6.2 2v-3.8c-.4-.4-.9-.7-1.5-.7-1 0-1.4.9-1.4 2.5 0 1.5.4 2.7 1.4 2.7.6 0 1.1-.2 1.5-.7z" style="fill:#838ba2;stroke-width:2.3122"/>
			<path class="st1" d="m144.1 118.9c2.8 0 4.6 1.7 4.6 4.4 0 .5-.1 1-.1 1.4h-6c.2 1.2.8 1.7 1.9 1.7.9 0 1.8-.3 2.6-.8l1.3 2c-1.3.9-2.7 1.3-4.3 1.3-2.8 0-5-1.9-5-5.1 0-3 2.3-4.9 5-4.9zm-1.6 4.1h3c0-1-.4-1.8-1.4-1.8-.7 0-1.4.6-1.6 1.8z" style="fill:#838ba2;stroke-width:2.3122"/>
			<path class="st1" d="m149.8 119.2h3.2l.1.9c.7-.7 1.8-1.2 2.7-1.2 1.3 0 2 .5 2.4 1.3 1-.9 1.9-1.3 3-1.3 2 0 2.9 1.3 2.9 3.5v6.4h-3.3v-6.5c0-.7-.3-1-.8-1s-1 .3-1.4.8v.6 6.1h-3.3v-6.5c0-.7-.3-1-.8-1s-1.1.3-1.4.8v6.7h-3.3z" style="fill:#838ba2;stroke-width:2.3122"/>
			<path class="st1" d="m171 122.9v-.5c0-.6-.4-.9-1-.9-.9 0-1.8.3-3.1 1l-1.1-2.3c1.5-.8 3.1-1.2 4.4-1.2 3 0 4.2 1.4 4.2 3.6v3.6c0 .4.2.6.7.6v2.2c-2.1 0-2.9-.2-3.6-1.2-.8 1-1.7 1.4-3 1.4-1.6 0-2.8-1-2.8-2.6-.2-1.9 1.1-3.3 5.3-3.7zm-1.4 3.9c.6 0 1-.3 1.3-.7v-1.6c-1.3.1-2.2.5-2.2 1.4.1.6.4.9.9.9z" style="fill:#838ba2;stroke-width:2.3122"/>
			<path class="st1" d="m176 119.2h3.1l.2 1.4c.7-1.3 1.7-1.7 2.7-1.7.4 0 .7.1 1.1.1l-.4 3c-.3-.1-.8-.2-1.4-.2-.9 0-1.5.5-2 1.5v5.6h-3.3z" style="fill:#838ba2;stroke-width:2.3122"/>
			<path class="st1" d="m184.1 115.5h3.3v7.6l3.2-3.9h3.3l-3 3.5 3.1 6.2h-3.7l-1.6-3.7-1.3 1.5v2.1h-3.3z" style="fill:#838ba2;stroke-width:2.3122"/>
			<path class="st0" d="m198.8 116.5h5.6c3.8 0 5.1 2 5.1 4.1 0 1.4-.6 2.7-2.1 3.4l2.2 5h-3.6l-1.6-4.4h-2.1v4.4h-3.4v-12.5zm5.6 5.6c1 0 1.7-.5 1.7-1.5s-.7-1.5-1.7-1.5h-2.1v2.9h2.1z" style="fill:#838ba2;stroke-width:2.3122"/>
			<path class="st0" d="m215.3 118.9c2.8 0 4.6 1.7 4.6 4.4 0 .5-.1 1-.1 1.4h-6c.2 1.2.8 1.7 1.9 1.7.9 0 1.8-.3 2.6-.8l1.3 2c-1.3.9-2.7 1.3-4.3 1.3-2.8 0-5-1.9-5-5.1 0-3 2.3-4.9 5-4.9zm-1.5 4.1h3c0-1-.4-1.8-1.4-1.8-.8 0-1.4.6-1.6 1.8z" style="fill:#838ba2;stroke-width:2.3122"/>
			<path class="st0" d="m220.2 119.2h3.2l1.7 6.1 1.7-6.1h3.1l-3.1 9.7h-3.5z" style="fill:#838ba2;stroke-width:2.3122"/>
			<path class="st0" d="m230.7 115.5h3.3v2.6h-3.3zm0 3.9h3.3v9.5h-3.3z" style="fill:#838ba2;stroke-width:2.3122"/>
			<path class="st0" d="m240.2 118.9c2.8 0 4.6 1.7 4.6 4.4 0 .5-.1 1-.1 1.4h-6c.2 1.2.8 1.7 1.9 1.7.9 0 1.8-.3 2.6-.8l1.3 2c-1.3.9-2.7 1.3-4.3 1.3-2.8 0-5-1.9-5-5.1 0-3 2.3-4.9 5-4.9zm-1.6 4.1h3c0-1-.4-1.8-1.4-1.8-.7 0-1.3.6-1.6 1.8z" style="fill:#838ba2;stroke-width:2.3122"/>
			<path class="st0" d="m245.1 119.2h3.2l1.5 5.4 1.5-5.4h2.5l1.5 5.4 1.5-5.4h3.2l-3 9.7h-3l-1.5-5-1.5 5h-2.9z" style="fill:#838ba2;stroke-width:2.3122"/>
		</g>
		<g style="stroke-width:2.3122">
			<path class="st2" d="m247.1 12.7h-1.7v-.7h4.1v.7h-1.7v3.8h-.8v-3.8zm3.2-.7h.8l1.5 1.9 1.4-1.9h.8v4.4h-.7v-3.3l-1.5 2-1.5-2v3.3h-.8z" style="stroke-width:2.3122"/>
		</g>
	</g>
</svg>
