<svg width="752.64" height="752.76" version="1.1" viewBox="0 0 752.64 752.76" xmlns="http://www.w3.org/2000/svg">
	<rect x="-3.4573" y="-7.8534" width="758.88" height="765.8" style="fill:#f7f7f7;stroke-dasharray:16.8, 8.40000000000000036;stroke-width:2.1;stroke:#7fa6d8"/>
	<path d="m555.09 453.11-1.3533-.69055-.96672-1.101-.96669-1.101v-2.7153l1.0045-1.4342 3.16-1.6013 5.5955-1.2743 1.9291-.97215.84688-1.3502.84688-1.3502 1.6038-3.84 1.6038-3.84.53936-2.08.53939-2.08-.0428-4.4866-.67011-2.1696-.67011-2.1696-14.413-36.934-.65597-1.0615-.65593-1.0615-1.1606-.75694-1.1606-.75694-2.3583-.42644-2.3366.77115-2.2178 1.9473-.92262 1.7842-2.2198 5.7004-2.2198 5.7004-10.309 26.24-1.9688 4.8-.64582.8h-2.1562l-.40269-.64378-.40272-.64377-9.6-28.928-.40694-.12123-.40691-.12123-.97044 2.189-.9704 2.189-2.5243 5.76-4.3216 9.92-4.3216 9.92-.54003.4-.54006.4h-1.0868l-1.3212-1.12-13.503-42.168-.79437-1.5676-.7944-1.5676-2.2965-2.542-2.7376-1.211-.21328-.67203-.21331-.67203.20313-.64.20314-.64 1.0769-.0818 3.2.24186h9.92l4.5766-.55644.73888 1.3806-.19219.60552-.1922.60553-1.7187.96998-1.7187.96997-.50682.72361-.50685.72362.004 1.2888.004 1.2888 9.8699 30.645.33081.33084.33085.33083.99943-2.2134.99945-2.2134 7.7569-17.6.006-2.56-1.3727-4.2421-1.3726-4.2421-1.585-1.8836-4.0995-1.9369-.3489-.65189-.34886-.65191.31149-.55576.31148-.55576 17.164-.1042 1.5353-.0552.44778.37164.44781.37164-.0954.66296-.0955.66297-1.0899.64504-1.09.64503-2.222 2.0979.32832 2.448 4.2066 13.374 2.689 8.64 2.689 8.64h.87427l1.0345-2.56 1.0345-2.56 5.5459-14.4 2.137-5.8886.38304-2.6557.38301-2.6557-.22874-1.2142-.22873-1.2142-1.7257-1.9132-3.3344-.51884-.49283-.40899-.4928-.409v-1.4759l.50285-.50286.50288-.50286h.91849l6.2358.91099 8.64.39921 14.72-.75657 5.12-.0736.10314.89935.1031.89935-.72307.87127-2.4168.40832-1.0212.621-1.0212.62101-.33629.87985-.33628.87985.34985 1.7865.34986 1.7865 5.038 13.067 5.8528 15.36.42797 1.1063.428 1.1063.30742.10247.30743.10248 8.427-25.458.34109-1.6.34106-1.6.0591-2.88.059-2.88-.56541-1.0346-.56544-1.0346-1.7492-.88266-2.8122-.35964-.269-.42426-.26899-.42427v-1.28l.26391-.41603.2639-.41603 1.2224.0458 15.29.1463.64403 1.021-.21034.83806-.21033.83806-2.7136.72247-.59315.52984-.59319.52984-.75046 1.2806-.7505 1.2806-5.7988 17.12-5.7988 17.12-9.8934 29.12-1.1329 2.4-1.1329 2.4-2.4206 3.2065-3.3679 1.833-3.9273.28131-1.3533-.69055zm-309.99-27.214-1.9049-.28963-2.2702-.7252-4.9881-2.5675-4.0448-3.9141-3.218-4.9362-2.0264-5.6002-.98342-6.4236.19741-2.9689.19742-2.9689.44386-2.3111.44387-2.3111 1.4274-4.16 1.9061-3.84 2.7342-3.8561 4.4861-4.232 5.0811-2.5432 5.2072-.7614 5.249.7187 1.4634.48876 1.4634.48877 1.6.97353 1.6.97354 1.3483 1.1036 1.3483 1.1036 1.7518 2.2911 1.7518 2.2911 2.2638 4.8.38081 2.2479.3808 2.2479-.4217 1.6802-1.0097.35198-1.0097.35197h-31.912l.3036 2.4.36068 4.85.80528 3.015.80528 3.015 2.246 4.5531 3.0067 3.7254 3.9315 2.6865 4.3839 1.4589 5.7646-.002 1.9033-.55787 1.9033-.55786 3.8735-1.9516 3.9213-2.7937h1.6787v1.4903l-.93749 1.4149-.9375 1.4149-1.7025 1.4609-1.7025 1.4609-3.9389 2.6606-4.7011 1.8631-3.52.67942-4.48.30125-1.9049-.28963zm11.428-36.154 1.203-.33409.99957-1.5255-.22329-1.5414-.2233-1.5414-1.13-3.0203-2.384-3.2477-2.8673-2.1894-3.6176-1.3595-4.1879-.0314-1.5684.69379-1.5684.69378-1.0165.77532-1.0165.77531-2.357 3.551-1.287 3.6792-.4591 2.3482-.45911 2.3482v.2637l20.96-.004 1.203-.33409zm69.997 36.053-1.76-.39133-1.28-.67381-1.28-.67382-2.011-2.1361-.67588-1.3499-.67584-1.3499-.52819-2.0101-.52816-2.0101-.13555-18.32-.13555-18.32h-4.2874l-1.4224-.99629v-.9882l7.2-7.1716 2.7621-4.444 2.0379-3.4661 1.033-.63578.52349.20088.52348.20089v12.253l13.28-.26041 3.9535-1.7987.68652.42429v1.648l-.39232 1.3094-.39232 1.3094-2.4154 2.4154h-14.744l.0922 18.64.0922 18.64.53095 1.12.53091 1.12.69933.88892.69933.88893 2.6595 1.358 2.104.15104 2.104.15105 3.792-1.0865 3.4161-1.9086 1.3839.1972.10048.87202.10048.87203-1.4143 1.3746-1.4144 1.3746-2.1744 1.0602-2.1744 1.0602-2.1117.44764-2.1118.44763-4.48-.0426-1.76-.39132zm287.52.11216-1.92-.25164-4.4634-1.6808-3.2166-2.0409-1.7023-1.5944-1.7023-1.5944-1.0911-1.4864-1.0911-1.4864-1.0078-2.0312-1.0077-2.0312-.74247-2.1829-.74246-2.1829-.37869-2.5899-.37872-2.5899.1665-3.722.16649-3.722.54704-2.3443.54708-2.3443 1.0626-2.7068 1.0627-2.7068 3.0745-4.9376 2.1065-2.1086 2.1065-2.1086 2.2224-1.3086 2.2224-1.3086 3.84-1.131 6.08.0248 4.0877 1.0698 1.9476 1.0354 1.9476 1.0354 2.0076 1.8757 2.0075 1.8757 2.1744 2.9685 1.0015 1.9748 1.0016 1.9748.46883 1.5452.46884 1.5452.004 1.9608.004 1.9608-.5289.43919-.5289.43918-32.862.1821.003 1.3489.003 1.349.95392 6.4.67091 2.24.67094 2.24 1.3168 2.5395 1.3169 2.5395 3.7895 4.051 2.5987 1.2723 2.5986 1.2723 4.5882.68663 4.8954-.68088 2.343-.97539 2.343-.97539 5.0134-3.4896h1.4771l.163.42481.16301.42482-.32848.86402-.32851.86401-1.5245 1.6323-1.5246 1.6323-3.52 2.7066-3.5776 2.0145-4.7424 1.6159-5.76.60974-.64-.07-1.92-.25164zm12.455-36.581.90576-.59396-.15802-2.2089-.15805-2.2089-.9872-2.0053-.98723-2.0053-1.6412-1.6326-1.6412-1.6326-3.5106-1.719-3.5259-.57386-3.2634.6189-2.6619 1.56-2.3277 2.5765-1.893 3.7501-.48087 1.8944-.48086 1.8944-.22122 1.5391-.22118 1.5391 22.348-.1982zm-340.21 36.101-1.6754-.45121-6.2491-2.8393-1.2639-.22182-.80664-1.5943-.005-6.5904-.005-6.5904 1.2341-1.1169 1.3244.42034.18687.85867.18687.85868.61582 2.5486.61581 2.5486.93726 2.0029.93725 2.0029 2.9316 3.1342 3.9153 1.7571 5.5146-.27957 1.3515-.69949 1.3515-.69948 2.3128-2.3128.64601-1.4814.64602-1.4814.16939-1.9938.1694-1.9938-.39538-1.4122-.39538-1.4122-.95248-1.1555-.95248-1.1555-1.3593-.9352-1.3593-.93521-10.756-5.4899-4.0664-2.9017-2.2275-2.9173-.68118-1.8088-.68118-1.8088-.1076-2.4-.10761-2.4.62212-2.3952.62211-2.3952 2.1826-3.2873 1.384-1.1225 1.384-1.1225 2.7878-1.4048 4.2522-.90126 5.44.012 4.8525.86566 1.9512 1.009 1.6762 1.9921v9.1525l-.95185.78997-.97369-.37364-.28651-.72898-.2865-.72898-1.0785-3.0509-3.193-3.4937-4.0755-2.0064-4.1066-.32964-1.6824.5588-1.6824.55879-2.3675 2.3675-.42145 1.5052-.42144 1.5052.19249 1.6253.19249 1.6253.8245 1.4069.82448 1.4069 3.3334 2.5119 12.528 6.0734 1.7496 1.5991 1.7496 1.5991.90384 1.6606.90384 1.6607.87756 3.2959-.00192 5.12-.94364 4.0023-2.249 4.4659-3.5274 3.5274-3.8261 1.9314-3.6589.95302-4.8255-.0422-1.6754-.45122zm155.71-.007-1.4816-.45619-1.5491-1.0415-1.5491-1.0415-.8784-1.44-.87837-1.44-.98188-3.8145v-3.8911l.48345-1.8562.48349-1.8562 1.6556-2.825 1.9687-1.7878 1.9688-1.7878 6.4-3.1113 7.36-2.2064 7.68-1.6768 1.4995-.33424-.11607-5.9864-.11603-5.9864-1.3553-2.9583-2.3045-2.5509-1.8438-.82691-1.8438-.82692-4.48-.72607-4.7412.4332-2.6006.91755-.75948.70918-.75952.70918-.47236.90808-.47232.90808-.0364 1.8119-.0363 1.8119.87104 5.2649-.58602.64755-.58604.64755h-3.7726l-1.812-.93701-.83811-.99604-.83811-.99605.00025-1.8154.00026-1.8154 1.9356-4.0916 2.0079-1.9688 2.008-1.9688 2.704-1.3267 2.704-1.3267 4.933-.99748 5.627.004 5.76.88377 3.649 1.3861 3.2474 2.9197 1.6578 2.8288 1.3245 3.9771.19465 16.96.19463 16.96.53446 1.2115.5345 1.2115 2.4132 1.0083 3.1304-.37074 1.1994.64191v1.7983l-.60973.55181-.60976.5518-3.0422.91558h-4.464l-2.4791-.74276-1.2904-1.1045-1.2904-1.1045-.79258-1.5641-.79261-1.5641h-.31827l-3.4008 2.77-1.7876 1.0228-1.7877 1.0228-3.7348 1.3062-4.6963.91821-5.8637-.0446-1.4815-.45618zm14.872-4.6136 1.87-.71407 3.2336-2.6516 1.9864-3.52.1996-16.112-4.0396.94135-6.72 1.9423-5.9108 2.7839-3.4637 3.2758-1.4761 3.3292-.0294 5.44.90483 1.8426.90483 1.8427 1.0945.83483 1.0945.83483 1.2007.44898 1.2006.44898 6.08-.25321zm229.49 4.3533-2.24-.7324-3.4731-1.7746-3.0805-.91481-.29024-1.4171-.39948-11.284.22198-1.1832.22198-1.1832.77146-.35151.77149-.35151.50256.50258.50259.50258 1.2122 5.9884 1.1256 2.2968 1.1255 2.2968 1.359 1.3983 1.359 1.3983 3.1899 1.5596 4.9167.23582 3.1924-1.0604 2.8949-2.5482.88381-1.8065.88384-1.8065.0282-4.8535-.81859-1.5954-.81862-1.5954-3.1628-2.4194-10.24-5.1811-4.2824-2.8237-2.8832-3.2068-.69059-1.8245-.69059-1.8245-.16618-2.56-.16617-2.56.51168-1.9951.51171-1.9951.77593-1.5312.77594-1.5312 3.2672-3.0561 3.899-1.8439 4.5777-.77342 6.5476.36953 3.9148 1.0984 2.109 1.989.23017 2.4564.23018 2.4564-.12157 2.4079-.1216 2.4079-.36208.36209-.36211.36209-1.3082-.41521-.48564-1.6705-.4856-1.6705-2.0644-3.1167-3.6357-2.6765-3.6759-1.1562-1.9789.15885-1.979.15884-1.1055.55955-1.1055.55954-1.5023 1.3651-.64291 1.254-.64288 1.254-.0218 3.5721.4848 1.1433.48477 1.1433 2.0583 2.3443 4.6068 2.8713 8.2949 3.7454 2.8482 1.8013 1.4997 1.5397 1.4997 1.5397.68394 1.4128.68393 1.4128.46672 2.203.46676 2.203-.012 2.56-.87252 4.892-1.0145 2.1258-1.0146 2.1258-3.7761 4.0366-1.8761.99994-1.8761.99993-3.7623.97997-5.1455-.0286-2.24-.7324zm-503.04-.0259-.32-.13362-4.48-.33287-11.566-.43887-8.0074.75286-.52136-.20006-.52137-.20007-.20107-.63353-.20108-.63353.18302-.72919.18301-.72919 4.0118-2.1024 1.8197-1.673.7636-1.4964.7636-1.4964.33809-2.1836.33808-2.1836-.0951-30.56-.0951-30.56-.58047-1.5022-.58046-1.5022-1.2439-1.4132-1.2439-1.4132-3.0641-1.3009-2.7327-.4467-.94732-.94732v-1.5395l1.513-.99132 9.207.73862 14.4-.41228 4.8-.36762 7.3836.69415 5.4164 1.3355 5.4243 2.6471 4.5828 4.3532 2.2584 4.3079.48744 1.92.48743 1.92.2001 2.24.20011 2.24-.9735 5.4222-2.2687 4.5904-2.9627 3.2952-4.2356 2.9903-.22667.32823-.22668.32822.22668.20115.22667.20115 4.8 1.4218 4.48 2.3373 2.2751 2.242 2.2751 2.242 2.3546 4.9187.46664 2.1807.46664 2.1807.0296 7.7325-.52081 2.5337-.5208 2.5337-1.9045 4.5886-1.2927 1.8657-1.2927 1.8657-1.1682 1.2301-1.1682 1.2301-3.9082 2.8105-4.1423 1.9384-6.3495 1.6757-12.48.22232-.32-.13363zm10.24-4.1377 2.88-.43964 4.0874-1.3924 3.2762-2.0957 3.0074-3.345 1.629-3.4435.51768-2.1798.51768-2.1798.006-7.04-.68463-2.8432-.68462-2.8432-2.0715-3.9033-4.0201-4.2694-4.9574-2.5791-4.7825-1.4238-15.783-.27458-.66833.66832-.66811.66833.002 16.56.002 16.56.35362 1.28.35361 1.28 1.2018 1.1464 1.2017 1.1464 1.4867.41626 1.4867.41627 1.8361.23536 1.8361.23537 5.76.0794 2.88-.43965zm1.4885-45.9 2.1285-.70161 3.1029-2.0737 2.0628-3.0865.34774-1.1767.34773-1.1767.18162-2.5699.18162-2.5699-.39606-2.3481-.39607-2.3481-1.384-2.762-1.384-2.762-3.7213-3.6902-3.84-2.5597-6.08-2.0225-8-.0476-2.1304 1.1625-.90958 2.1769v28.181l.66756.66755.66755.66756 16.425-.25817 2.1285-.70161zm174.7 49.283-.35108-.65601v-1.2105l1.44-1.3167 2.24-1.1054 1.2264-1.1647 1.2264-1.1647.50349-.96.50346-.96.42636-1.6.42637-1.6.004-31.382.004-31.382-.50141-1.6885-.50144-1.6885-2.6484-2.8732-1.1344-.56976-1.1344-.56976-2.56-.46381-.4-.33054-.4-.33055v-2.0833l.95347-.79133 6.8865.55296h12.16l6.0475-.32.37923.74702.37926.74702-.3415 1.3059-2.4322 1.1062-2.4322 1.1062-.59459.53385-.59459.53384-1.6908 3.2-.0866 33.44-.0866 33.44.72662 1.44.72659 1.44 2.88 1.6 10.88-.0432 6.08-1.0911 5.76-1.6326 5.76-2.7391 3.0086-2.6807 3.0311-4.1281 1.2716-.40358.42439.58038.42438.58037-.008 2.5977-.92198 2.6488-.92199 2.6488-1.0737 1.7829-1.0737 1.7829-1.5835 1.6148-1.5836 1.6148-1.9483.91172-1.9483.91172-3.8163.70954-19.343-.80285-19.697.42897-3.6178.38191-.3511-.65601zm272.14.0632-.48694-.48696v-1.2343l.56915-.56.56912-.56 1.1397-.77115 1.1398-.77114.71465-1.043.71469-1.043.52781-1.5458.52777-1.5458.018-32.32-1.28-2.1731-1.6831-1.2544-4.3969-.3334-.56-.48913-.56-.48914v-.73848l.82912-1.1339 6.0174-1.5629 8.0002-4.1758 1.6333.1902.1762 10.08h.54592l1.3709-1.7769 1.3709-1.7769 2.3761-2.219 2.3761-2.219 3.26-.96813h.72768l3.3769 1.0028 2.8684 2.644.96749 1.8709-.19575 1.0434-.19571 1.0434-.94627 1.3063-.94631 1.3063-.97433.50385-.97437.50386-5.493-2.9943-3.32-.048-3.0341 1.7781-2.1783 2.9994-.51799 1.6449-.51795 1.6449.0987 13.875.0987 13.875.73223 1.5883.73222 1.5883.54778.60574.54777.60575 1.2151.62015 1.2151.62016 2.1115.25419 2.1114.2542.86688 1.1855v.71535l-.45017.61567-.45021.61566-5.9796-.309h-13.12l-3.3461.44819-.48697-.48695zm-628.28-6.12.04235-5.6812.2204-4.96.2204-4.96.1145 1.6243 4 2.5625 1.6.74103 1.6.52406 1.6.52407 5.76.67461 6.1597-.98235 2.4803-1.1023 2.72-1.3648v-.48109h.82983l1.5157-1.12 4.1032-4.16 1.0956-1.8572 1.0956-1.8571v-.92576h.64v-1.152l.27677-.304.27677-.304.39858-2.08.39858-2.08.10278-2.56.10279-2.56-.48068-2.5014-.48068-2.5014-2.8731-5.7729-2.5218-2.7359v-.72843h-.487l-2.553-2.2642-1.92-1.0129-.96-.79744-6.08-2.1654-8 .02-1.2089.24655-1.2089.24654.20387.32987.20387.32988-1.19-.1538-1.92.51301-2.88 1.6079-1.5232.81203-1.1225 1.7112-.21725-8.4312-.21725-8.4312.10011-15.2.10011-15.2 4.16-.21644 8.64.74565 8.3722 1.5345 7.9478 2.2845 7.36 2.9139 7.973 4.1315 7.067 4.653 5.76 4.6103 6.6655 6.5432 4.6062 5.5182 4.1576 6.0018 3.5536 6.08 3.501 7.68 2.567 7.04 1.6322 6.08.65554 3.52.65555 3.52.32267 3.52.32268 3.52.00026 4.2649.00027 4.2649-.3521 3.8951-.35211 3.8951-.52789 2.72-.5279 2.72-84.32.1624zm89.238 5.4388.00032-.24.44807-2.56.44808-2.56.39637-4.3084.39638-4.3084-.18751-6.0916-.1875-6.0916-.9966-7.2413.19685-.78428.19684-.78428.92629-.72494.9263-.72493.27668-.96471.27667-.96471-.61713-1.6544-.61712-1.6544-4.1648-6.8682-.17349-.86749-.1735-.86748 1.3061-.69902h8.0004l1.6417-.62416v-1.2389l-1.9497-1.6406-5.5703-2.629-2.7115-1.3365-.17149-.54031-.17149-.54032.40298-1.0501 3.9315-1.8514 4.8-2.2363 1.7941-1.7299-.2414-.74244-.93627-.45575-.93627-.45576-8.6402.76223-2.3216-.01-.78644-.9476.83912-1.4319.83912-1.4318 3.4054-4.5268.69221-1.386.69221-1.386v-1.39l-.99442-.3816-2.649 1.1945-7.0506 4.9967-1.5837-.1896-.22261-.8394-.22261-.83941.52843-5.0412.01725-2.501.01725-2.501-.33126-.61897-.33126-.61896h-.96818l-1.5887 1.76-1.3049 2.56-1.3049 2.56-1.5633 2.08h-1.2149l-.81628-1.0702-.81628-1.0702v-.3417l-1.4753-2.6789-1.4753-2.679-2.2122-2.72h-1.6327l-2.1868 1.92h-1.5105l-5.0273-3.6217-6.4-4.1118-10.24-5.0544-5.44-1.9977-8.64-2.5137-8.64-1.5179-9.2912-.77067-3.6217.22789-.18346-.92-.18347-.92077v-2.8h111.04v111.04h-21.76l.00032-.24zm614.18-34.761-1.3362-.43717-1.1345-.70114-1.1345-.70115-1.272-1.445-1.272-1.4451-.5705-1.6546-.57046-1.6546.018-4.48.81664-1.7746.81661-1.7746 1.9712-2.2451 1.702-.94285 1.702-.94285h6.08l1.702.94285 1.702.94285 1.9712 2.2451 1.6647 3.5492-.004 2.5615-.004 2.5615-.88249 1.8038-.8825 1.8038-2.9145 2.6865-1.4766.65318-1.4766.65318-3.8792.23248-1.3363-.43717zm6.4973-2.0574 1.321-.67457 1.2949-1.4711 1.295-1.4711 1.0081-2.9585v-2.972l-1.0081-2.9585-1.2439-1.4132-1.2439-1.4132-3.3841-1.4898-3.52-.006-3.2 1.4415-.90982.86284-.90986.86284-1.5956 3.1279-.17136 1.66-.17132 1.6601.5128 1.7639.51276 1.7639 2.708 3.0765 1.6122.77112 1.6122.77113 4.16-.25863zm-8.521-2.904v-.28268l.64-.16737.64-.16736v-9.3999l-1.28-.33473v-.56536h6.6709l.98458.82845.98454.82845v1.9052l-.32947.61565-.32951.61565-1.9694 1.0184 1.3625.95434 1.9151 3.7938h.63078v.64h-2.1616l-.4392-.51751-.43917-.5175-1.92-3.925-1.76-.2025v4.5225h1.28v.64h-4.48zm5.541-5.8452.69898-.36791.2351-.35209.23511-.3521.01-2.08-.65888-.65886-.65885-.65887-2.0423.1978-.188 4.64h1.6701l.69894-.3679z" style="fill:#272c3e"/>
</svg>
