<?xml version="1.0" encoding="UTF-8" standalone="no"?>
<svg xmlns="http://www.w3.org/2000/svg" style="fill:none"   width="16" height="16" viewBox="0 0 16 16" version="1.1" id="svg923">
  <defs
     id="defs927" />
  <rect
     style="opacity:1;fill:#9d1d96;fill-opacity:1;stroke:none;stroke-width:0.71405107;stroke-miterlimit:4;stroke-dasharray:none;stroke-dashoffset:0;stroke-opacity:1"
     id="rect1474"
     width="16.110188"
     height="16.08765"
     x="-0.098814227"
     y="0.011164447"
     ry="0.037068315" />
  <path
     d="m 13.464655,2.7708856 c 0.0189,-0.1874781 -0.04166,-0.3746173 -0.17252,-0.5331649 -0.03553,-0.034441 -0.08068,-0.062257 -0.132054,-0.081371 -0.05137,-0.019114 -0.107651,-0.029036 -0.164652,-0.029036 -0.05703,0 -0.113303,0.00992 -0.164676,0.029036 -0.05135,0.019114 -0.09649,0.04693 -0.132055,0.081371 -0.1204,0.1525656 -0.185543,0.3273272 -0.188556,0.5060084 -0.003,0.1786811 0.05613,0.3547147 0.171324,0.5096699 0.0367,0.041743 0.08673,0.075454 0.145253,0.097878 0.05852,0.022423 0.123563,0.03279 0.188781,0.03011 0.06525,-0.00268 0.128469,-0.01832 0.183577,-0.045412 0.05511,-0.027093 0.10023,-0.064718 0.131009,-0.1092356 0.09953,-0.1381619 0.146198,-0.2953299 0.134569,-0.4531924 z m -0.424377,1.716784 h -0.362272 c -0.112831,0.0025 -0.220382,0.037536 -0.301463,0.098224 -0.08111,0.060683 -0.129863,0.1426126 -0.136711,0.2296771 -0.0013,0.070825 0.02166,0.1406496 0.06649,0.2024315 0.04482,0.061798 0.109966,0.1133472 0.188831,0.1494618 0.16734,0.085468 0.360454,0.1360325 0.560566,0.1467685 0.200112,0.010738 0.400397,-0.018684 0.581434,-0.085448 0.08878,-0.024587 0.16861,-0.065267 0.232857,-0.1185992 0.06422,-0.053352 0.110963,-0.1178115 0.136313,-0.1879824 0.02294,-0.04089 0.03324,-0.085313 0.03018,-0.1297978 -0.0031,-0.044487 -0.0195,-0.087815 -0.04791,-0.1265845 -0.02844,-0.038747 -0.0681,-0.071884 -0.115918,-0.096782 -0.04781,-0.024918 -0.102446,-0.04089 -0.159621,-0.046712 -0.220805,-0.026649 -0.445071,-0.031978 -0.669338,-0.045312 z m 1.728538,-2.6444941 c -0.05521,0.093304 -0.113851,0.1839417 -0.165622,0.2665828 -0.0178,0.048845 -0.05929,0.090503 -0.115843,0.1163197 -0.05655,0.025817 -0.123788,0.033804 -0.187761,0.0223 -0.07904,-3.507e-4 -0.157852,0.00681 -0.234625,0.021329 0.0087,0.020455 0.02032,0.040119 0.03452,0.05865 0.07007,0.092361 0.115444,0.1946566 0.133399,0.3008156 0.01796,0.1061608 0.0081,0.2140185 -0.02889,0.3171932 -0.037,0.1031745 -0.100429,0.1995612 -0.186539,0.2834391 -0.08611,0.083878 -0.193139,0.1535451 -0.314734,0.2048677 -0.219361,0.087626 -0.461632,0.1355627 -0.708484,0.1401823 -0.246877,0.00462 -0.491862,-0.034202 -0.716452,-0.1135222 -0.200111,0.1652799 -0.110389,0.306559 0.08972,0.4052061 0.03305,0.013064 0.06983,0.01949 0.106953,0.018664 0.286347,0 0.57618,-0.018664 0.862527,-0.016007 0.286371,0.00268 0.520996,0.016007 0.779752,0.034672 0.153046,0.026513 0.291526,0.089335 0.396089,0.1796892 0.104539,0.090335 0.169906,0.2036635 0.186988,0.3241487 0.0095,0.1476347 -0.02792,0.2948454 -0.109119,0.4287032 -0.08121,0.1338577 -0.203674,0.2502641 -0.356646,0.3390414 -0.31832,0.2134178 -0.708234,0.3529712 -1.124767,0.4025544 -0.229296,0.039463 -0.466612,0.04231 -0.697402,0.00838 -0.230791,-0.033918 -0.450201,-0.1039196 -0.644734,-0.2056645 -0.06407,-0.029442 -0.118309,-0.070094 -0.158327,-0.118677 -0.04002,-0.048605 -0.06472,-0.103785 -0.07212,-0.1610837 -0.0074,-0.057315 0.0027,-0.1151749 0.02961,-0.1689141 0.02684,-0.053738 0.06965,-0.1018606 0.124958,-0.1404765 l 0.393298,-0.2932462 0.0759,-0.069305 C 12.016829,4.3819747 11.889854,4.309014 11.790197,4.2162545 c -0.09963,-0.092779 -0.16906,-0.2026439 -0.202453,-0.3203968 -0.03795,-0.1172916 0.05864,-0.1812748 0.13457,-0.2665825 0.0759,-0.085306 0.217344,-0.1812747 0.327758,-0.2665823 -0.0695,-0.050466 -0.134071,-0.1048216 -0.193213,-0.1626187 -0.146672,-0.1672137 -0.203473,-0.3719352 -0.158426,-0.5709133 0.04507,-0.1989782 0.188482,-0.376628 0.39995,-0.4954165 0.173416,-0.097936 0.370838,-0.1675827 0.580213,-0.2047043 0.209375,-0.037121 0.426345,-0.040941 0.637687,-0.011227 0.262217,0.029324 0.524434,0.06931 0.78665,0.098634 0.04512,-0.00101 0.08912,-0.011107 0.127647,-0.02932 L 14.641169,1.861837 c 0,0 0.02759,-0.021325 0.04139,-0.031988 z"
     id="path919"
     style="display:inline;fill:#ffffff;fill-opacity:1;stroke-width:0.21889052" />
  <path
     d="m 10.554503,12.768559 c -0.01071,0.156589 -0.04192,0.310803 -0.09274,0.457986 -0.07522,0.104146 -0.171782,0.188231 -0.282092,0.245626 -0.3350843,0.216147 -0.7120073,0.34581 -1.1013403,0.378864 -0.3801302,0.05821 -0.7675958,0.02116 -1.1322738,-0.108238 C 7.7180752,13.655953 7.520996,13.494467 7.3824044,13.280964 7.2438127,13.067462 7.1706542,12.812581 7.1731923,12.552051 c 0,-2.448081 0,-4.8919866 0,-7.3400687 V 5.0246231 H 5.2410269 v 0.1582113 c 0,1.8776801 0,3.7470665 0,5.6330696 0,0.537108 -0.069561,1.070008 -0.115944,1.602937 0,0.154035 -0.046356,0.303922 -0.069561,0.457956 -0.016259,0.117194 -0.060413,0.227866 -0.1281324,0.321261 -0.06772,0.09337 -0.156693,0.166294 -0.2583007,0.211669 -0.3649011,0.19373 -0.7563155,0.323033 -1.1592964,0.383012 -0.2820975,0.0458 -0.5680691,0.0708 -0.8540324,0.09995 -0.022046,6.75e-4 -0.043987,-0.0034 -0.064554,-0.01202 -0.020567,-0.0086 -0.039349,-0.02149 -0.055239,-0.03795 C 2.4702729,13.746944 2.4161804,13.638706 2.3504854,13.522144 2.62872,13.243193 2.9030916,12.968389 3.1735949,12.689439 3.3118126,12.5687 3.4410216,12.436452 3.5600307,12.293926 c 0.067433,-0.109261 0.1073756,-0.235499 0.1159271,-0.366364 0.043819,-0.378536 0.068331,-0.759385 0.073424,-1.140804 0,-1.8568561 0,-3.7179189 0,-5.5789513 V 5.0329469 C 2.9566035,4.9669879 2.1608358,5.109904 1.4307654,5.4492842 1.4212284,5.3997626 1.4083096,5.351052 1.3921193,5.3035737 1.2800532,5.0329469 1.4500841,4.8872364 1.6085228,4.7498194 2.0863718,4.3330314 2.6610624,4.0652263 3.2702042,3.975447 3.5258162,3.930454 3.7841141,3.90541 4.0430758,3.900509 c 1.6809992,0 3.3619762,0 5.0429814,0 0.3695587,-0.0032 0.7376673,-0.050697 1.0974918,-0.1415668 0.23186,-0.054126 0.46372,-0.087426 0.69558,-0.1248982 0.07341,0 0.127519,0.024985 0.112067,0.1207423 -0.05645,0.568629 -0.23649,1.1149308 -0.525554,1.5945827 -0.06211,0.075935 -0.129276,0.1469125 -0.200957,0.2123304 C 10.028948,5.4159892 9.8009654,5.2786025 9.5729821,5.1453623 9.4566762,5.0699082 9.3221004,5.0336378 9.1865491,5.0412706 c -0.1043409,0 -0.2048331,0 -0.3246267,0 v 0.1790355 c 0,2.2815468 0,4.579741 0,6.8529649 -0.00392,0.07828 0.01475,0.155987 0.053498,0.222367 0.038766,0.06635 0.095694,0.118125 0.1629132,0.148174 0.2612289,0.137267 0.5421492,0.225974 0.8308511,0.262304 0.2048063,0.03747 0.4096113,0.05827 0.6375943,0.08741"
     id="path921"
     style="fill:#ffffff;fill-opacity:1;stroke-width:0.28950316" />
</svg>
