<svg id="Layer_1" data-name="Layer 1" xmlns="http://www.w3.org/2000/svg" xmlns:xlink="http://www.w3.org/1999/xlink" viewBox="0 0 954.75 387.35"><defs><style>.cls-1{fill:url(#linear-gradient);}.cls-2{opacity:0.98;}.cls-3{fill:#d4abe3;}</style><linearGradient id="linear-gradient" x1="954.75" y1="232.75" x2="0" y2="232.75" gradientUnits="userSpaceOnUse"><stop offset="0" stop-color="#d4abe3"/><stop offset="1" stop-color="#d4abe3" stop-opacity="0.21"/></linearGradient></defs><title>Hous_Trans</title><path class="cls-1" d="M954.75,386.05H950V112.4H848.3V386.05h-.7V78.15H721.3v307.9h-1.95V112.4H622.7V386.05h-1.9V168.9H549.5v82.45H535.4L510.45,297.8H463.6v4.6h11.95a10.93,10.93,0,0,1,7.5,2.8h4v61.35h5.15v1.65H490v17.85h-7.65V368.2H480.2v-1.65h5.1V347h-2.8V336.5h2.8v-5.1h-2.8V320.95h2.8V315.7h-2.8V307l0-.05a9.4,9.4,0,0,0-6.9-2.85H473.4v1.1h3.05v10.5H471.9v-8.3h-8.3v77.5h-3.95V307.4H457v-.85a4.24,4.24,0,0,1,2.6-3.8v-3.4H431.7V384.9h-6v-138l-26-28.2V384.9h-2.1V340.65H377v45.4h-.2V260.15H335.7V366.5h-4V313.85a11.2,11.2,0,0,0-3.35-8.15,10.92,10.92,0,0,0-4.9-2.9v1.6a10,10,0,0,0-2.4-.3h-.85v.2h-1.3v3.1H302.6v-.85a4.12,4.12,0,0,1,1.2-3,4.78,4.78,0,0,1,1.3-.9v-5.15h4.5v4.85h6.05v-4.85h4.55v4.85H321a10.74,10.74,0,0,1,3.6.6v-8.05h-63.1v91.1H259.8V336.5l-.8,1.6.8-3.3v-85H206v85l.35,1.7H206v49.55H204.2V298.2H188.15v87.85H187v-71.1l-22.15,7.5v63.6H152.3V368h2.15v-1.65H149.3V313.7a11.2,11.2,0,0,0-3.35-8.15,11.63,11.63,0,0,0-4.9-3,12.86,12.86,0,0,0-3.25-.4H123.55a3.85,3.85,0,0,0-1.65.35,4.15,4.15,0,0,0-1.3.9,3.87,3.87,0,0,0-1.25,2.9v.85h16.3v-3.3h2.15a10.34,10.34,0,0,1,3.25.5,10,10,0,0,1,3.7,2.4,9.4,9.4,0,0,1,2.85,6.9v52.65h-5.15V368h2.15v18h-5.3V346.6H114v39.45h-1.25v-61.6H84.25v61.6H83.1V346.6H56.2v23h-23v-23h-19v39.45H0v1.3H954.75Zm-728.5-18.5H221.8v-11.5h4.45Zm6.35-80.7h-4.4v-11.5h4.4Zm10.5,80.7h-4.45v-11.5h4.45Zm8.4-35.85h-4.4V320.2h4.4ZM269.75,355h-4.5v-6.75h4.5Zm0-40.65h-4.5V307.6h4.5Zm0-10h-4.5v-6.75h4.5Zm20.7,50.7H285.9v-6.75h4.55Zm0-20.15H285.9V328.1h4.55Zm0-10.4H285.9V317.7h4.55Zm9-10.1H295V307.6h4.5Zm0-10H295v-6.75h4.5ZM309.6,355h-4.5v-6.75h4.5Zm0-20.15h-4.5V328.1h4.5ZM320.2,355h-4.55v-6.75h4.55Zm9.8,11.5h-5.15v1.65H327V385.8h-1.75v-.6q0,.43-.1.85h-.5v-81a10.1,10.1,0,0,1,2.5,1.85,9.4,9.4,0,0,1,2.85,6.9Zm5.7,19.55h-1v-17.9h1ZM349,326.4h-6.75v-4.55H349Zm0-20.7h-6.75v-4.5H349Zm0-9h-6.75V292.1H349Zm0-20.7h-6.75v-4.5H349Zm10.1,50.45h-6.75v-4.55h6.75Zm0-10.6h-6.75v-4.5h6.75Zm0-10.1h-6.75v-4.5h6.75Zm0-9h-6.75V292.1h6.75Zm0-20.7h-6.75v-4.5h6.75Zm10.05,50.45H362.4v-4.55h6.75Zm0-10.6H362.4v-4.5h6.75Zm0-19.15H362.4V292.1h6.75Zm0-10.6H362.4v-4.5h6.75Zm107.3,61H471.9V336.5h4.55Zm0-15.6H471.9V320.95h4.55ZM497.1,347h-4.5V336.5h4.5Zm0-15.6h-4.5V320.95h4.5Zm0-15.7h-4.5V305.2h4.5ZM569,386.05H558.15V189.9H569Zm14.8,0H573V189.9H583.8Zm14.8,0H587.75V189.9H598.6Zm14.8,0H602.55V189.9H613.4ZM699.45,153.6l.5-1.85q-.82,8.95-1,17.6Q698.94,161.6,699.45,153.6ZM663.3,367.25h-2.15v18.4h-7.7v-18.4H651.3V365.6h5.15V312.95a9.82,9.82,0,0,0-9.8-9.8H644.5v3.3H628.2v-.85a3.87,3.87,0,0,1,1.25-2.9,4.15,4.15,0,0,1,1.3-.9,3.85,3.85,0,0,1,1.65-.35h14.25a11.44,11.44,0,0,1,11.5,11.5V365.6h5.15Zm1.65-94.1H650v-34.8h15Zm0-52.25H650V186.05h15Zm35.1,101H685v-34.8h15Zm0-48.7H685v-34.8h15ZM809.3,97a.5.5,0,0,1,.1-.3v-.2h18.4v1H810.3v18.1h14.85v51H810.3v17.45h14.85V218.9H810.3v17.45h14.85v34.8H810.3v17h14.85v34.85h-15V321h-.85Zm-35.1-.5h18.5v1H775.2V321h-1Zm2.35,174.7v-34.8h15v34.8Zm15,17v34.85h-15V288.1Zm-15-69.2V184.05h15V218.9Zm0-52.3v-51h15v51ZM740,96.45h18.6v1h-17.5V321h-1V97.45H740Zm1.4,174.7v-34.8h15v34.8Zm15,17v34.85h-15V288.1Zm-15-69.2V184.05h15V218.9Zm0-52.3v-51h15v51Zm100.2,219.45H729.9V383.8h8.6v-5.3H752V334.8H772v43.7h27.5V334.8h20.1v43.7H834.3v5.3h7.35Zm-63.1-16.8V334.4h15v34.85ZM726,332.45l10-6.6H833l10,6.6Zm165.7-96.1h15V271.2h-15Zm-17.8,86.6h-15V288.1h15Zm0-104h-15V184.05h15ZM910,306.45H893.7v-3.3h-2.15a9.82,9.82,0,0,0-9.8,9.8V365.6h5.15v1.65h-2.15v18.8H877v-18.8H874.9V365.6H880V312.95a11.44,11.44,0,0,1,11.5-11.5H905.8a3.85,3.85,0,0,1,1.65.35,4.16,4.16,0,0,1,1.3.9,3.87,3.87,0,0,1,1.25,2.9Z"/><g class="cls-2"><path class="cls-3" d="M739.75,44.8V77.65H828.4V44.8H739.75M799.9,15.2l.45-.4a6.38,6.38,0,0,0,1.45-2.55,11.65,11.65,0,0,0,.85-3.55l-.25-.05a38.38,38.38,0,0,0-5.15.9H776.1a14.68,14.68,0,0,0-6.75,1.55,8,8,0,0,0-3.15,2.4l.3,1.3,2.85-.85a14.5,14.5,0,0,1,3.85-.6h2.15V31.1a29.13,29.13,0,0,1-.6,7.3,58.2,58.2,0,0,0-4.65,4.35l.75,1.2A23.94,23.94,0,0,0,776,43.3a7.94,7.94,0,0,0,3.7-1.75q1.15-2.1,1.15-10.9V13.35h7.25v25.9a4.14,4.14,0,0,0,1.5,3.35,6.33,6.33,0,0,0,4.2,1.3,10.17,10.17,0,0,0,6.7-2.15l.4-1.65q-5.6-.4-6.4-1.9V13.35h2.05a34.93,34.93,0,0,1,3.35,1.85M820.65.2l-.1-.2-2.5,1L815.7.65A11.79,11.79,0,0,0,813.4.4a6.5,6.5,0,0,0-4.15,1.3A4,4,0,0,0,807.6,5a3.82,3.82,0,0,0,1.7,3.3,9.84,9.84,0,0,0-1.35,1.3q-.75.8-.75,1.15a3.06,3.06,0,0,0,.75,1.9A4.38,4.38,0,0,0,809.7,14v0l-2.05,2A1.84,1.84,0,0,0,807,17.2a2.49,2.49,0,0,0,1.4,2.15,7.35,7.35,0,0,0,3.75.85,9.46,9.46,0,0,0,5.4-1.65q2.85-1.8,2.85-4.3a3,3,0,0,0-.45-1.6v0a5.37,5.37,0,0,0-.4-.5,2.78,2.78,0,0,0-2-1,44.39,44.39,0,0,0-6.7,0,1.54,1.54,0,0,1-.85-.5,1.36,1.36,0,0,1-.4-.9,1.74,1.74,0,0,1,.5-1,6,6,0,0,0,2.8.65,6,6,0,0,0,4-1.25,4.14,4.14,0,0,0,1.5-3.35,3.25,3.25,0,0,0-.85-2.4V2.3l1.95-.1,1.15-2M813.1,1.45a1.77,1.77,0,0,1,1.65,1.25,5.63,5.63,0,0,1,.4,2.2,5,5,0,0,1-.45,2.25,1.7,1.7,0,0,1-3.2,0,4.77,4.77,0,0,1-.5-2.25,4.88,4.88,0,0,1,.45-2.2,1.76,1.76,0,0,1,1.65-1.2M811,18a2.35,2.35,0,0,1-1.1-2,2.2,2.2,0,0,1,.75-1.55,6.42,6.42,0,0,1,2.3-.25h0a21.7,21.7,0,0,1,3.1.15q1.4.3,1.4,1.5a2.37,2.37,0,0,1-1.15,2.1,5.13,5.13,0,0,1-2.8.7A4.49,4.49,0,0,1,811,18Z"/></g></svg>