<svg width="155" height="70" viewBox="0 0 155 70" fill="none" xmlns="http://www.w3.org/2000/svg">
<path d="M100.835 57.8514C100.704 57.2185 100.513 56.5987 100.265 56C100.184 55.7799 100.038 55.5883 99.8443 55.4495C99.6508 55.3108 99.4193 55.2312 99.1792 55.2211C98.939 55.2109 98.7013 55.2706 98.4962 55.3925C98.2911 55.5144 98.128 55.693 98.0278 55.9054C97.6847 56.5071 97.5047 57.1837 97.5047 57.8716C97.5047 58.5596 97.6847 59.2362 98.0278 59.8379C98.136 60.0542 98.3078 60.2344 98.5213 60.3558C98.7349 60.4771 98.9807 60.5342 99.2276 60.5198C99.4746 60.5053 99.7115 60.42 99.9086 60.2745C100.106 60.1291 100.254 59.9301 100.335 59.7027C100.554 59.1001 100.721 58.4809 100.835 57.8514ZM96.5687 66.6622C96.6058 66.9636 96.7095 67.2537 96.8726 67.5126C97.0357 67.7715 97.2543 67.9931 97.5136 68.1622C98.0104 68.464 98.5711 68.6524 99.1536 68.7133C99.7361 68.7741 100.325 68.7058 100.877 68.5135C101.238 68.4328 101.574 68.2676 101.855 68.0321C102.136 67.7966 102.353 67.498 102.489 67.1622C102.586 66.9912 102.638 66.7995 102.641 66.6042C102.644 66.4088 102.597 66.2158 102.505 66.0421C102.413 65.8684 102.279 65.7195 102.113 65.6084C101.948 65.4974 101.757 65.4277 101.557 65.4054C100.385 65.1895 99.1853 65.1485 98 65.2838C97.6248 65.2838 97.2496 65.2838 97.0272 65.6757C96.8049 66.0676 96.7215 66.3108 96.5687 66.6352V66.6622ZM97.4441 70C97.0689 69.9054 96.6937 69.8379 96.3185 69.7163C95.9044 69.6211 95.5163 69.4403 95.1805 69.1861C94.8448 68.9319 94.5693 68.6104 94.373 68.2433C94.2666 67.9909 94.2337 67.715 94.2778 67.4456C94.3219 67.1763 94.4414 66.924 94.6232 66.7163L96.1935 65C95.8038 64.721 95.4325 64.4187 95.0817 64.0946C94.8779 63.9049 94.717 63.6759 94.6093 63.4222C94.5017 63.1686 94.4496 62.896 94.4564 62.6217C94.4804 62.3376 94.5863 62.0659 94.7621 61.8378C95.1234 61.3919 95.5681 60.9865 95.9016 60.6352C95.5343 60.1515 95.2221 59.6304 94.9706 59.0811C94.6649 58.3426 94.6504 57.5203 94.93 56.7721C95.2095 56.0239 95.7634 55.4024 96.4853 55.027C97.3875 54.4699 98.448 54.2049 99.5147 54.2703C100.345 54.2888 101.171 54.4022 101.974 54.6081C102.697 54.7929 103.465 54.696 104.114 54.3378C104.434 54.1892 104.768 54.0811 105.087 53.9595L105.212 54.0541L104.698 55.0541C104.698 55.1757 104.545 55.2838 104.476 55.4054C104.435 55.5216 104.356 55.621 104.25 55.6873C104.144 55.7536 104.018 55.7828 103.892 55.7703C103.566 55.7656 103.24 55.7928 102.919 55.8514C103.161 56.4322 103.324 57.0408 103.406 57.6622C103.463 58.262 103.342 58.8652 103.056 59.3996C102.77 59.934 102.332 60.3771 101.794 60.6757C101.097 61.0751 100.317 61.3166 99.5105 61.3821C98.7045 61.4476 97.8937 61.3355 97.1384 61.0541C96.9995 61.0541 96.7354 61.0541 96.6937 61.0541C96.5357 61.287 96.4489 61.5588 96.4436 61.8378C96.4969 62.0834 96.6409 62.3015 96.8483 62.4508C97.0556 62.6002 97.3121 62.6706 97.5692 62.6487C98.3335 62.6487 99.0978 62.5541 99.876 62.5811C100.877 62.5811 101.891 62.6487 102.892 62.7433C103.397 62.8019 103.868 63.0222 104.23 63.3696C104.592 63.717 104.825 64.1717 104.893 64.6622C105.009 65.1972 104.98 65.7524 104.81 66.2735C104.639 66.7945 104.333 67.2637 103.92 67.6352C102.752 68.8763 101.164 69.6677 99.4452 69.8649C99.4452 69.8649 99.3757 69.8649 99.334 69.9595L97.4441 70Z" fill="#272C3E"/>
<path d="M4.11335 60.0811C4.11335 61.1217 4.11335 62.1487 4.11335 63.1892C4.10352 63.2496 4.1062 63.3114 4.12123 63.3708C4.13627 63.4302 4.16334 63.4861 4.20088 63.5351C4.23841 63.5842 4.28564 63.6255 4.33981 63.6566C4.39398 63.6877 4.45402 63.708 4.51636 63.7163C5.10039 63.8677 5.71827 63.8399 6.28543 63.6367C6.8526 63.4335 7.34135 63.0648 7.68475 62.5811C8.10461 61.9986 8.37963 61.3292 8.48814 60.6257C8.59666 59.9221 8.53568 59.2038 8.31007 58.5271C8.14225 57.8715 7.74889 57.2916 7.19527 56.8835C6.64166 56.4754 5.96111 56.2638 5.26674 56.2838C4.47464 56.2838 4.11335 56.6622 4.11335 57.419V60.1217V60.0811ZM0.0138676 55.3514C0.0548108 55.248 0.124672 55.1578 0.215521 55.0909C0.30637 55.0241 0.414586 54.9832 0.528031 54.973L3.65474 54.5136C3.77946 54.5007 3.90525 54.5007 4.02997 54.5136V55.7703L5.54468 54.946C6.16231 54.5998 6.87675 54.4526 7.58568 54.5254C8.29461 54.5982 8.96166 54.8874 9.49128 55.3514C10.464 56.0294 11.1309 57.0457 11.3534 58.1892C11.6332 59.3691 11.5279 60.6044 11.0522 61.7233C10.5765 62.8422 9.75403 63.7892 8.69917 64.4325C7.96624 64.8127 7.17203 65.0686 6.35066 65.1892C5.77105 65.2171 5.1946 65.0909 4.68311 64.8243L4.01606 64.5271C4.01606 64.919 4.11335 65.2162 4.11335 65.5C4.11335 66.3108 4.11335 67.1217 4.11335 67.9325C4.09693 68.0556 4.12952 68.1801 4.20444 68.2806C4.27936 68.3811 4.39095 68.4499 4.51636 68.473C5.01663 68.6352 5.51687 68.8379 6.00325 69.0406C6.11442 69.0406 6.25339 69.2568 6.2256 69.3379C6.1978 69.419 6.22562 69.8109 5.86432 69.7838C5.50301 69.7568 4.86375 69.7838 4.36347 69.7838H1.22285V69.2568C1.22285 65.2028 1.22285 61.0406 1.22285 56.9324C1.24571 56.7656 1.21367 56.596 1.13129 56.4479C1.04892 56.2998 0.920438 56.1809 0.764289 56.1081C0.501897 55.9771 0.246792 55.8328 0 55.6757L0.0138676 55.3514Z" fill="#272C3E"/>
<path d="M152.804 54.5536C153.023 54.5625 153.241 54.5254 153.444 54.4451C153.647 54.3647 153.83 54.2428 153.98 54.0878C154.13 53.9327 154.244 53.7481 154.315 53.5463C154.385 53.3446 154.41 53.1304 154.388 52.9185C154.409 52.6995 154.383 52.4786 154.311 52.2701C154.239 52.0616 154.123 51.8699 153.971 51.7073C153.818 51.5448 153.633 51.415 153.426 51.3261C153.219 51.2373 152.995 51.1914 152.769 51.1914C152.543 51.1914 152.319 51.2373 152.112 51.3261C151.906 51.415 151.72 51.5448 151.568 51.7073C151.415 51.8699 151.3 52.0616 151.228 52.2701C151.156 52.4786 151.129 52.6995 151.15 52.9185C151.138 53.1333 151.173 53.3482 151.252 53.5493C151.33 53.7504 151.452 53.9331 151.607 54.0859C151.763 54.2387 151.95 54.358 152.156 54.4363C152.362 54.5145 152.583 54.5499 152.804 54.5401V54.5536ZM155 53.5131C154.749 54.1084 154.278 54.5907 153.679 54.8644C153.318 55.0222 152.918 55.0816 152.524 55.0364C152.13 54.9911 151.756 54.843 151.442 54.6077C151.093 54.3785 150.822 54.0522 150.666 53.6714C150.51 53.2905 150.475 52.8728 150.567 52.4725C150.621 52.0485 150.816 51.6531 151.122 51.346C151.428 51.039 151.828 50.8368 152.262 50.7698C152.541 50.689 152.835 50.6653 153.124 50.7002C153.413 50.735 153.692 50.8277 153.943 50.9724C154.193 51.1171 154.41 51.3107 154.58 51.541C154.75 51.7712 154.869 52.0332 154.93 52.3104L155 53.5131Z" fill="#272C3E"/>
<path d="M101.248 4.77028C101.324 3.81992 101.081 2.87127 100.553 2.06757C100.41 1.89298 100.228 1.75197 100.022 1.65509C99.8147 1.5582 99.588 1.5079 99.3584 1.5079C99.1288 1.5079 98.9021 1.5582 98.6952 1.65509C98.4883 1.75197 98.3065 1.89298 98.1633 2.06757C97.6783 2.84095 97.416 3.72685 97.4037 4.63262C97.3915 5.53838 97.6299 6.43073 98.0938 7.21622C98.2417 7.42782 98.4432 7.59871 98.6789 7.71238C98.9146 7.82604 99.1766 7.8786 99.4393 7.86501C99.702 7.85142 99.9567 7.77215 100.179 7.63481C100.401 7.49747 100.582 7.30674 100.706 7.08108C101.107 6.38071 101.295 5.58399 101.248 4.78376V4.77028ZM99.539 13.473H98.0799C97.6254 13.4856 97.1923 13.6633 96.8657 13.9709C96.5391 14.2785 96.3427 14.6938 96.3151 15.1351C96.3099 15.4942 96.4023 15.8481 96.5828 16.1613C96.7634 16.4745 97.0258 16.7359 97.3434 16.9189C98.0174 17.3522 98.7952 17.6085 99.6012 17.6629C100.407 17.7174 101.214 17.5682 101.943 17.2298C102.301 17.1051 102.622 16.8989 102.881 16.6286C103.14 16.3582 103.328 16.0314 103.43 15.6757C103.522 15.4684 103.564 15.2432 103.552 15.0177C103.539 14.7922 103.473 14.5725 103.359 14.3761C103.244 14.1796 103.084 14.0116 102.892 13.8854C102.699 13.7592 102.479 13.6781 102.249 13.6486C101.359 13.5135 100.456 13.4865 99.5529 13.4189L99.539 13.473ZM106.501 0.0675512C106.279 0.540525 106.043 0.999985 105.834 1.4189C105.762 1.66651 105.595 1.87768 105.368 2.00855C105.14 2.13942 104.869 2.17991 104.611 2.12159C104.293 2.11976 103.976 2.1561 103.666 2.22972C103.701 2.33341 103.748 2.43309 103.805 2.52702C104.087 2.99523 104.27 3.51377 104.343 4.05192C104.415 4.59006 104.375 5.13681 104.226 5.65982C104.077 6.18283 103.822 6.67143 103.475 7.09662C103.128 7.52182 102.697 7.87497 102.207 8.13513C101.324 8.57933 100.348 8.82233 99.3536 8.84574C98.3593 8.86915 97.3725 8.67237 96.4679 8.27028C95.6619 9.10811 96.0232 9.82432 96.8292 10.3243C96.9624 10.3906 97.1105 10.4231 97.26 10.4189C98.4134 10.4189 99.5807 10.3243 100.734 10.3378C101.888 10.3514 102.833 10.4189 103.875 10.5135C104.491 10.648 105.049 10.9664 105.47 11.4244C105.891 11.8824 106.155 12.4569 106.223 13.0676C106.262 13.816 106.111 14.5622 105.784 15.2407C105.457 15.9193 104.963 16.5094 104.347 16.9595C103.065 18.0413 101.495 18.7487 99.817 19C98.8934 19.2001 97.9375 19.2145 97.008 19.0426C96.0784 18.8706 95.1948 18.5158 94.4112 18C94.1531 17.8508 93.9347 17.6447 93.7735 17.3984C93.6123 17.1521 93.5128 16.8724 93.4831 16.5818C93.4533 16.2913 93.4942 15.998 93.6023 15.7256C93.7104 15.4532 93.8828 15.2093 94.1055 15.0135L95.6897 13.527L95.9954 13.1757C95.4168 12.9372 94.9055 12.5673 94.5041 12.0971C94.1027 11.6269 93.8231 11.0699 93.6886 10.473C93.5358 9.87839 93.9249 9.55407 94.2306 9.12163C94.5363 8.6892 95.1061 8.20271 95.5507 7.77028C95.2709 7.51445 95.0108 7.23891 94.7725 6.94593C94.1818 6.0983 93.953 5.06053 94.1345 4.05187C94.316 3.04322 94.8936 2.14268 95.7453 1.54052C96.4439 1.04407 97.239 0.691016 98.0823 0.50284C98.9256 0.314663 99.7995 0.2953 100.651 0.445928C101.707 0.594577 102.763 0.797274 103.819 0.945922C104.001 0.940846 104.178 0.889619 104.333 0.797293L105.987 0.162156C105.987 0.162156 106.098 0.0540541 106.154 0L106.501 0.0675512Z" fill="#92278F"/>
<path d="M87.727 37.9861C87.6884 38.4944 87.5761 38.9949 87.3935 39.4726C87.1229 39.8107 86.7757 40.0836 86.379 40.2699C85.1741 40.9714 83.8186 41.3923 82.4185 41.4996C81.0516 41.6885 79.6582 41.5683 78.3468 41.1483C77.5269 40.8664 76.8182 40.3423 76.3198 39.6493C75.8215 38.9562 75.5584 38.129 75.5675 37.2834C75.5675 29.3375 75.5675 21.405 75.5675 13.459V12.8509H68.6193V13.3644C68.6193 19.459 68.6193 25.5266 68.6193 31.6482C68.6193 33.3915 68.3692 35.1212 68.2024 36.851C68.2024 37.351 68.0357 37.8375 67.9523 38.3375C67.8938 38.7178 67.735 39.077 67.4915 39.3801C67.248 39.6832 66.928 39.9199 66.5627 40.0672C65.2504 40.696 63.8428 41.1157 62.3937 41.3104C61.3793 41.4591 60.3509 41.5402 59.3226 41.6348C59.2433 41.6369 59.1644 41.6236 59.0904 41.5958C59.0165 41.568 58.9489 41.526 58.8918 41.4726C58.6555 41.1618 58.461 40.8104 58.2248 40.432C59.2253 39.5266 60.212 38.6347 61.1847 37.7293C61.6818 37.3374 62.1464 36.9082 62.5744 36.4455C62.8169 36.0909 62.9605 35.6812 62.9912 35.2564C63.1488 34.0278 63.237 32.7916 63.2553 31.5536C63.2553 25.5266 63.2553 19.4861 63.2553 13.4455V12.878C60.4044 12.6639 57.5428 13.1277 54.9174 14.2293C54.8831 14.0686 54.8366 13.9105 54.7784 13.7563C54.3754 12.878 54.9869 12.405 55.5566 11.959C57.275 10.6062 59.3416 9.73693 61.5321 9.44552C62.4513 9.29948 63.3802 9.2182 64.3114 9.20229C70.3564 9.20229 76.4014 9.20229 82.4463 9.20229C83.7753 9.19187 85.099 9.03774 86.3929 8.74279C87.2267 8.56712 88.0605 8.45902 88.8943 8.3374C89.1583 8.3374 89.3529 8.4185 89.2973 8.72931C89.0943 10.575 88.4468 12.3481 87.4074 13.905C87.1841 14.1515 86.9425 14.3818 86.6847 14.5942C85.837 14.1212 85.0172 13.6753 84.1973 13.2428C83.7791 12.9979 83.2951 12.8802 82.8076 12.905C82.4324 12.905 82.0711 12.905 81.6403 12.905V13.4861C81.6403 20.8915 81.6403 28.3509 81.6403 35.7293C81.6261 35.9835 81.6933 36.2356 81.8327 36.4511C81.9721 36.6665 82.1768 36.8345 82.4185 36.932C83.358 37.3776 84.3681 37.6655 85.4063 37.7834C86.1428 37.905 86.8793 37.9726 87.6992 38.0672" fill="#92278F"/>
<path d="M26.7225 63.419C27.3286 63.7205 28.0321 63.7788 28.6819 63.5811C29.2881 63.4045 29.8304 63.0645 30.246 62.6006C30.6617 62.1366 30.9336 61.5676 31.0304 60.9595C31.2836 60.1872 31.286 59.3578 31.0374 58.5841C30.7887 57.8104 30.3011 57.1299 29.6408 56.6352C29.2568 56.3214 28.7792 56.1363 28.2787 56.1071C27.7781 56.0779 27.2812 56.2062 26.8615 56.473C26.8149 56.5065 26.7761 56.549 26.7474 56.5978C26.7187 56.6467 26.7007 56.7008 26.6947 56.7568C26.6947 58.9865 26.6947 61.2027 26.6947 63.4325L26.7225 63.419ZM26.6947 54.3244V55.5541L28.6541 54.5676C29.02 54.4029 29.4183 54.3177 29.8214 54.3177C30.2246 54.3177 30.6229 54.4029 30.9887 54.5676C31.7754 54.8345 32.4721 55.3054 33.0036 55.9294C33.5351 56.5534 33.8811 57.3068 34.0043 58.1082C34.2341 59.0713 34.2026 60.0759 33.9126 61.0235C33.6227 61.9712 33.0844 62.8293 32.3506 63.5136C31.6624 64.2473 30.7433 64.7381 29.7373 64.9093C28.7314 65.0805 27.6955 64.9223 26.792 64.4595V65.2973C26.792 66.0406 26.792 66.7703 26.792 67.5136C26.7719 67.6104 26.7718 67.7101 26.7917 67.8069C26.8117 67.9037 26.8513 67.9957 26.9082 68.0775C26.9651 68.1593 27.0382 68.2292 27.1233 68.2832C27.2083 68.3372 27.3036 68.3742 27.4035 68.3919C27.9315 68.5406 28.4318 68.7568 28.932 68.9325C28.8626 69.6487 28.8626 69.6487 28.2233 69.6487H23.9015V69.1352C23.9015 64.991 23.9015 60.8424 23.9015 56.6892C23.916 56.5392 23.8823 56.3885 23.8052 56.2579C23.728 56.1272 23.6112 56.023 23.4707 55.9595C23.2901 55.8514 23.0955 55.7568 22.9288 55.6352C22.762 55.5135 22.6786 55.3784 22.7064 55.2973C22.7342 55.2162 22.9149 54.9054 23.0677 54.8649C23.8042 54.7027 24.5408 54.5676 25.2912 54.446C25.7636 54.3649 26.2361 54.3379 26.6808 54.2838" fill="#272C3E"/>
<path d="M141.758 59.9595C141.758 60.9731 141.758 62.0001 141.758 63.0136C141.742 63.1438 141.777 63.2752 141.858 63.3807C141.938 63.4862 142.056 63.558 142.189 63.5812C142.776 63.7677 143.411 63.7587 143.992 63.5556C144.573 63.3524 145.068 62.9668 145.399 62.4595C145.939 61.7413 146.244 60.8822 146.277 59.9932C146.309 59.1043 146.066 58.2264 145.58 57.4731C145.26 56.8913 144.72 56.4532 144.075 56.2515C143.429 56.0497 142.728 56.1001 142.12 56.392C142.003 56.4365 141.905 56.5181 141.842 56.6236C141.779 56.7291 141.754 56.8523 141.772 56.973C141.772 57.973 141.772 58.9595 141.772 59.9595H141.758ZM141.772 54.3109V55.6622C142.259 55.3919 142.745 55.1352 143.162 54.8514C143.745 54.5199 144.418 54.367 145.092 54.4128C145.767 54.4586 146.411 54.701 146.942 55.1082C147.639 55.5387 148.207 56.1398 148.59 56.8514C148.973 57.5629 149.157 58.3598 149.123 59.1623C149.182 60.2358 148.942 61.3049 148.429 62.2568C148.053 62.9345 147.532 63.5262 146.902 63.9923C146.271 64.4584 145.546 64.7882 144.774 64.9595C144.342 65.0798 143.89 65.1155 143.444 65.0645C142.998 65.0135 142.566 64.8767 142.175 64.6622L141.786 64.4866V68.2298L143.94 69.0406C143.94 69.2704 143.829 69.4866 143.773 69.7028H138.923V69.0677C138.923 65.0136 138.923 60.8785 138.923 56.7839C138.949 56.608 138.915 56.4288 138.828 56.2729C138.74 56.1171 138.603 55.9929 138.437 55.919C138.257 55.8364 138.089 55.732 137.937 55.6082C137.826 55.5136 137.659 55.3649 137.673 55.2704C137.687 55.1758 137.784 54.8109 138.09 54.7704L141.175 54.3244L141.689 54.2568" fill="#272C3E"/>
<path d="M136.116 64.9325C135.563 65.0663 134.979 65.0037 134.469 64.7559C133.96 64.5082 133.558 64.0915 133.336 63.5811C132.897 63.9569 132.433 64.3044 131.947 64.6217C131.197 65.073 130.298 65.2279 129.435 65.0545C128.572 64.881 127.809 64.3924 127.305 63.6892C127.005 63.1041 126.834 62.4642 126.805 61.8109C126.736 60.7163 126.805 59.6081 126.805 58.5C126.805 57.8514 126.805 57.1487 126.888 56.5676C126.915 56.4585 126.898 56.3436 126.841 56.2459C126.785 56.1483 126.692 56.0749 126.583 56.0406C126.351 55.9351 126.128 55.8132 125.916 55.6757C125.791 55.6081 125.596 55.4325 125.624 55.3919C125.692 55.1913 125.823 55.0165 125.999 54.8919C126.291 54.7966 126.595 54.742 126.902 54.7298L129.848 54.473C129.84 54.617 129.84 54.7614 129.848 54.9054C129.848 57.1352 129.751 59.3649 129.765 61.6622C129.741 61.9377 129.791 62.2145 129.91 62.4654C130.03 62.7164 130.214 62.9329 130.445 63.0937C130.676 63.2545 130.946 63.3541 131.229 63.3827C131.512 63.4113 131.798 63.3679 132.058 63.2568C132.411 63.1504 132.741 62.9808 133.031 62.7568C133.108 62.693 133.171 62.6146 133.217 62.5264C133.262 62.4381 133.289 62.3418 133.295 62.2433C133.295 60.3784 133.295 58.527 133.295 56.6757C133.295 56.2297 132.989 56.1487 132.711 55.9865C132.433 55.8244 132.225 55.7838 131.988 55.6622C131.752 55.5406 131.738 55.473 131.752 55.4325C131.766 55.3919 131.947 54.9595 132.086 54.9325C133.392 54.7973 134.698 54.6892 136.004 54.5811C136.073 54.5676 136.144 54.5676 136.213 54.5811L136.116 64.9325Z" fill="#272C3E"/>
<path d="M117.424 59.6753C117.424 60.0401 117.507 60.6212 117.618 61.1753C117.743 62.1218 118.188 63.0011 118.883 63.6753C119.113 63.8773 119.398 64.0092 119.705 64.0549C120.011 64.1005 120.324 64.0578 120.606 63.9321C120.867 63.7867 121.096 63.5924 121.28 63.3605C121.464 63.1285 121.598 62.8635 121.676 62.5807C122.126 61.2761 122.24 59.8842 122.009 58.5267C121.909 57.6662 121.62 56.8367 121.162 56.0942C121.025 55.8361 120.818 55.6197 120.563 55.4685C120.308 55.3174 120.015 55.2374 119.716 55.2374C119.418 55.2374 119.125 55.3174 118.87 55.4685C118.615 55.6197 118.408 55.8361 118.271 56.0942C117.654 57.1691 117.36 58.3915 117.424 59.6212V59.6753ZM125.261 59.5537C125.375 60.3273 125.315 61.1159 125.086 61.8649C124.856 62.6139 124.462 63.3056 123.931 63.8922C123.4 64.4789 122.745 64.9466 122.01 65.263C121.275 65.5795 120.478 65.7373 119.674 65.7254C118.871 65.7135 118.079 65.5323 117.355 65.1943C116.63 64.8563 115.989 64.3694 115.477 63.7673C114.964 63.1652 114.592 62.4623 114.386 61.7068C114.18 60.9514 114.145 60.1614 114.283 59.3915C114.323 57.996 114.931 56.6729 115.973 55.7126C117.015 54.7524 118.406 54.2335 119.842 54.2699C120.568 54.2246 121.297 54.33 121.979 54.5792C122.661 54.8284 123.28 55.2156 123.796 55.7151C124.313 56.2147 124.714 56.8152 124.974 57.477C125.234 58.1387 125.346 58.8466 125.303 59.5537" fill="#272C3E"/>
<path d="M63.7732 59.6076C63.2451 59.8374 62.6615 60.0536 62.1195 60.3103C61.8307 60.427 61.5738 60.6074 61.3691 60.8374C61.203 61.0621 61.0978 61.3238 61.0631 61.5985C61.0284 61.8732 61.0654 62.1519 61.1706 62.4091C61.2758 62.6662 61.4458 62.8934 61.6651 63.0698C61.8844 63.2462 62.1458 63.3661 62.4252 63.4185C62.9533 63.5266 63.8149 63.1077 63.8149 62.7022C63.8149 61.6752 63.8149 60.6617 63.8149 59.6076H63.7732ZM60.5353 57.6482C59.9759 57.65 59.4175 57.6002 58.8677 57.4995C58.6454 57.4995 58.4926 57.0671 58.3258 56.8239C58.2769 56.7293 58.2396 56.6295 58.2146 56.5266C58.6315 56.2428 59.0484 55.9184 59.4931 55.6752C60.5643 55.0083 61.7583 54.5494 63.0089 54.3238C63.8022 54.2693 64.5898 54.4889 65.233 54.9438C65.8762 55.3986 66.3336 56.0596 66.5247 56.8103C66.5921 57.0847 66.6248 57.3661 66.622 57.6482V64.9455C66.1267 65.0697 65.6037 65.037 65.1289 64.8523C64.6541 64.6676 64.2522 64.3405 63.9816 63.9185C63.3352 64.2934 62.6671 64.6318 61.9805 64.932C61.5455 65.0604 61.0857 65.0882 60.6376 65.0132C60.1896 64.9381 59.7658 64.7624 59.4 64.4999C59.0342 64.2373 58.7365 63.8953 58.5307 63.5011C58.3249 63.1069 58.2166 62.6714 58.2146 62.2293C58.1569 61.739 58.2864 61.2452 58.5784 60.8416C58.8705 60.438 59.3048 60.1528 59.7988 60.0401C61.0217 59.5671 62.2585 59.1752 63.5092 58.7833C63.574 58.7719 63.6359 58.7482 63.6913 58.7135C63.7467 58.6787 63.7945 58.6337 63.832 58.581C63.8694 58.5282 63.8958 58.4688 63.9095 58.4061C63.9233 58.3435 63.9242 58.2788 63.9122 58.2157C63.9519 57.8409 63.9107 57.4621 63.791 57.1037C63.6713 56.7454 63.4759 56.4153 63.2173 56.1346C62.8942 55.866 62.4929 55.7021 62.0695 55.6658C61.646 55.6295 61.2214 55.7225 60.8549 55.932C60.7576 55.932 60.7299 56.1887 60.7021 56.3373C60.6326 56.7427 60.5909 57.1617 60.5353 57.6887" fill="#272C3E"/>
<path d="M15.5239 58.5539H18.8729C18.9411 58.5365 19.0036 58.5026 19.0546 58.4553C19.1057 58.408 19.1435 58.3489 19.1647 58.2836C19.2848 57.478 19.1285 56.6563 18.7201 55.9458C18.6387 55.7896 18.5221 55.6533 18.3789 55.5471C18.2358 55.4409 18.0699 55.3676 17.8935 55.3325C17.7172 55.2974 17.5349 55.3015 17.3604 55.3445C17.1859 55.3875 17.0236 55.4683 16.8857 55.5809C16.4531 55.9572 16.1059 56.4172 15.8666 56.9314C15.6274 57.4457 15.5011 58.0029 15.4961 58.5674L15.5239 58.5539ZM15.4961 59.6485C15.406 60.3183 15.5075 60.9994 15.7894 61.6168C16.0713 62.2343 16.5228 62.7642 17.0942 63.1485C17.3949 63.3664 17.7414 63.517 18.109 63.5894C18.4766 63.6619 18.8561 63.6543 19.2203 63.5674C19.5232 63.4322 19.8041 63.2546 20.0541 63.0404L21.5549 62.0539C21.6732 62.1846 21.7384 62.3527 21.7384 62.5268C21.7384 62.7009 21.6732 62.8691 21.5549 62.9998C21.1498 63.5439 20.6838 64.0424 20.1653 64.4863C19.8226 64.6925 19.4391 64.8261 19.0397 64.8782C17.6785 65.2321 16.2314 65.0928 14.968 64.4863C14.3187 64.1724 13.7579 63.7093 13.3342 63.1371C12.9104 62.5649 12.6365 61.9008 12.5361 61.2025C12.2328 59.8653 12.3941 58.4681 12.9947 57.2295C13.3188 56.5581 13.7946 55.9663 14.3865 55.4984C14.9783 55.0305 15.6711 54.6984 16.4133 54.5268C17.1481 54.3127 17.927 54.2848 18.6761 54.4456C19.4251 54.6064 20.1195 54.9507 20.6934 55.4458C21.3754 56.0513 21.7931 56.8879 21.8607 57.7836C21.9159 58.0277 21.9438 58.2769 21.944 58.5269C21.944 59.2025 21.6939 59.4052 20.9296 59.4998C20.1653 59.5944 19.4705 59.6485 18.7339 59.662C17.65 59.662 16.5661 59.662 15.4266 59.662" fill="#272C3E"/>
<path d="M71.0904 58.5545H74.4255C74.4997 58.5341 74.5676 58.4963 74.6233 58.4445C74.679 58.3926 74.7208 58.3283 74.7451 58.2572C74.8592 57.4766 74.7131 56.6809 74.3283 55.9869C74.2434 55.8232 74.1211 55.6805 73.9709 55.5697C73.8206 55.4589 73.6463 55.3831 73.4613 55.3479C73.2762 55.3127 73.0854 55.3191 72.9032 55.3666C72.7211 55.4141 72.5526 55.5015 72.4105 55.622C71.6115 56.4118 71.1413 57.4612 71.0904 58.568V58.5545ZM71.1738 59.6491C71.0474 60.4648 71.2167 61.298 71.6528 62.0056C72.0889 62.7132 72.7646 63.2512 73.5639 63.5275C73.9825 63.6328 74.4223 63.6296 74.8392 63.5182C75.2562 63.4067 75.6358 63.1909 75.9403 62.8923C76.3294 62.5815 76.774 62.3248 77.1909 62.0545C77.3066 62.1579 77.379 62.2991 77.3944 62.4512C77.4097 62.6032 77.367 62.7555 77.2743 62.8788C76.973 63.4989 76.5029 64.0269 75.915 64.4057C75.3271 64.7844 74.6438 64.9995 73.9392 65.0275C72.7856 65.1491 71.6208 64.9376 70.5901 64.4194C69.9461 64.0858 69.3948 63.6054 68.9834 63.0194C68.5719 62.4334 68.3126 61.7592 68.2277 61.0545C68.0366 60.0325 68.0985 58.981 68.4083 57.9869C68.6681 57.0858 69.1841 56.2742 69.897 55.6455C70.6099 55.0168 71.4907 54.5965 72.4383 54.4329C73.178 54.2525 73.9537 54.2662 74.6862 54.4728C75.4186 54.6793 76.0816 55.0713 76.6073 55.6085C77.1782 56.204 77.5216 56.972 77.58 57.7842C77.5732 57.8697 77.5732 57.9555 77.58 58.041C77.7746 58.8383 77.455 59.3923 76.6212 59.4599C75.7874 59.5275 74.8146 59.6085 73.9113 59.6356C73.0081 59.6626 72.077 59.6356 71.132 59.6356" fill="#272C3E"/>
<path d="M41.9546 58.5267C41.9546 58.0402 41.9546 57.5943 41.9546 57.1754C41.9509 56.8916 41.8888 56.6115 41.7718 56.3515C41.6549 56.0916 41.4855 55.857 41.2737 55.6618C40.4399 54.9862 39.6895 55.3916 39.1197 56.1483C38.6394 56.8594 38.3789 57.6895 38.3693 58.5402L41.9546 58.5267ZM38.3554 59.6348C38.2341 60.4518 38.4092 61.2845 38.8504 61.9897C39.2916 62.6949 39.9715 63.2288 40.7734 63.4997C41.1156 63.6177 41.484 63.6448 41.8407 63.5783C42.1973 63.5118 42.5292 63.3541 42.8023 63.1213C43.3209 62.7289 43.8639 62.3678 44.4282 62.0402C44.5388 62.205 44.5894 62.4011 44.5717 62.5971C44.5541 62.7932 44.4693 62.9778 44.3309 63.1213C43.8584 63.7565 43.4554 64.4727 42.6216 64.6754C42.017 64.8598 41.3918 64.9732 40.7595 65.0132C39.6295 65.1304 38.4937 64.85 37.558 64.2227C36.6224 63.5955 35.9488 62.663 35.6595 61.5943C35.3047 60.5742 35.2534 59.4774 35.5116 58.4303C35.7697 57.3831 36.3268 56.4281 37.1186 55.6754C37.8632 54.9772 38.8104 54.5185 39.8321 54.3614C40.8537 54.2043 41.9003 54.3563 42.8301 54.797C43.3631 55.0571 43.8234 55.4388 44.1719 55.9094C44.5204 56.38 44.7465 56.9256 44.8311 57.4997C44.8726 57.7322 44.9005 57.9668 44.9145 58.2024C44.9145 59.2835 44.7756 59.2429 43.8584 59.3916C42.8331 59.5445 41.7968 59.6168 40.7595 59.6078C39.9535 59.6078 39.1336 59.6078 38.2998 59.6078" fill="#272C3E"/>
<path d="M51.1694 64.7166H46.8476V62.3787L46.7642 51.0003C46.7642 50.7436 46.6947 50.5814 46.4446 50.5003C46.2389 50.4474 46.0423 50.3654 45.861 50.2571C45.7081 50.1625 45.4857 50.0003 45.4996 49.8922C45.5135 49.7841 45.583 49.4328 45.9165 49.3517C47.1686 49.054 48.4496 48.8864 49.7381 48.8517C49.7381 49.1895 49.7381 49.4868 49.7381 49.7976C49.7381 50.649 49.7381 51.4868 49.7381 52.3382C49.7381 54.9418 49.7381 57.5499 49.7381 60.1625C49.7381 61.149 49.738 62.1355 49.8214 63.122C49.8317 63.1904 49.8568 63.2559 49.8951 63.3142C49.9335 63.3724 49.9841 63.4221 50.0438 63.4598C50.3078 63.6085 50.5997 63.7031 50.8915 63.8382C51.4473 64.0814 51.4473 64.0814 51.2389 64.7166" fill="#272C3E"/>
<path d="M111.797 64.73H106.809V64.2705C106.809 61.784 106.809 59.311 106.809 56.8245C106.829 56.6965 106.803 56.5655 106.734 56.4544C106.666 56.3433 106.559 56.2591 106.433 56.2164C106.142 56.0922 105.863 55.943 105.6 55.7705C105.6 55.1624 106.072 55.0543 106.503 54.9597C107.378 54.757 108.254 54.5813 109.115 54.3651C109.366 54.2975 109.421 54.3651 109.449 54.5678C109.449 55.1083 109.588 55.6489 109.657 56.2299C110.122 55.511 110.787 54.9347 111.575 54.5678C111.898 54.4009 112.258 54.3137 112.624 54.3137C112.99 54.3137 113.35 54.4009 113.673 54.5678C113.723 54.5871 113.768 54.6157 113.806 54.6521C113.844 54.6884 113.874 54.7316 113.895 54.7794C113.916 54.8272 113.926 54.8784 113.926 54.9303C113.927 54.9821 113.916 55.0334 113.896 55.0813C113.604 55.9191 113.312 56.7705 112.979 57.5813C112.812 58.0137 112.534 58.0002 112.298 57.5813C112.061 57.2347 111.847 56.8736 111.658 56.5002C111.464 56.1354 111.228 56.0813 110.894 56.257C110.52 56.4011 110.201 56.6562 109.984 56.986C109.767 57.3159 109.663 57.7038 109.685 58.0948C109.685 59.7029 109.685 61.3245 109.685 62.9326C109.685 63.2435 109.769 63.3651 110.102 63.4326C110.436 63.5002 110.978 63.7029 111.422 63.8381C111.867 63.9732 112.034 64.0272 111.784 64.6624" fill="#272C3E"/>
<path d="M86.1611 54.6485H88.6485C88.4401 54.9593 88.3428 55.3242 88.1204 55.4323C87.1902 55.9968 86.5262 56.895 86.2722 57.9323C85.4801 59.8242 84.7436 61.7566 83.9098 63.635C83.5827 64.1407 83.1799 64.5961 82.7147 64.9864C82.6175 65.0945 82.409 65.0945 82.2283 65.1485L79.9215 59.608C79.3657 58.2566 78.7959 56.9052 78.2261 55.5539C78.1738 55.3961 78.1412 55.2328 78.1289 55.0674C78.1289 54.7161 78.2261 54.5674 78.6152 54.5809H82.006H82.5341L81.7976 55.7701C81.7249 55.8777 81.6952 56.0075 81.7142 56.135C82.3673 57.8917 83.0205 59.6485 83.7292 61.5404L86.1611 54.5809" fill="#272C3E"/>
<path d="M57.5161 64.0811C57.5161 64.2839 57.4188 64.5001 57.3632 64.7163H53.0275V64.2433C53.0275 61.7568 53.0275 59.2568 53.0275 56.7703C53.0584 56.5991 53.0229 56.4229 52.928 56.2756C52.833 56.1284 52.6853 56.0206 52.5133 55.973C52.3548 55.923 52.205 55.8501 52.0687 55.7568C51.9575 55.6622 51.8046 55.4865 51.8324 55.3784C51.8602 55.2703 52.027 55.0136 52.1659 54.9865C53.3054 54.7703 54.4588 54.5811 55.5984 54.3784L55.918 54.2974V54.7568C55.918 57.4595 55.918 60.2568 55.918 63.0001C55.8991 63.1087 55.921 63.2203 55.9796 63.3146C56.0383 63.4088 56.1299 63.4795 56.2376 63.5136C56.6545 63.6758 57.0714 63.8784 57.5161 64.0811Z" fill="#272C3E"/>
<path d="M56.0439 51.1212C55.905 51.3104 55.7799 51.5537 55.6131 51.7428C55.4464 51.932 54.9461 52.3915 54.6265 52.7158C54.5853 52.7716 54.5311 52.8171 54.4682 52.8484C54.4054 52.8798 54.3358 52.8962 54.2652 52.8962C54.1946 52.8962 54.125 52.8798 54.0621 52.8484C53.9993 52.8171 53.945 52.7716 53.9039 52.7158C53.5296 52.3139 53.1815 51.8896 52.8616 51.4455C52.8178 51.3642 52.7949 51.2739 52.7949 51.1821C52.7949 51.0903 52.8178 50.9998 52.8616 50.9185C53.2368 50.4726 53.6537 50.0402 54.0845 49.5672C54.126 49.514 54.1796 49.4709 54.2411 49.4412C54.3025 49.4115 54.3702 49.396 54.4389 49.396C54.5075 49.396 54.5753 49.4115 54.6367 49.4412C54.6982 49.4709 54.7518 49.514 54.7933 49.5672L55.9189 50.9185C55.9189 50.9185 55.9189 51.0401 56.0022 51.1618" fill="#272C3E"/>
<path d="M152.429 52.8515L153.138 52.5948V52.4191L152.429 52.2029V52.8515ZM151.859 51.838H153.152C153.43 51.838 153.68 52.0002 153.68 52.2839C153.655 52.5443 153.589 52.7995 153.485 53.0407L153.819 53.9731C153.388 54.1083 153.124 54.0677 153.068 53.5948C153.067 53.5223 153.046 53.4515 153.009 53.3888C152.972 53.3261 152.919 53.2735 152.855 53.2358C152.791 53.1981 152.719 53.1766 152.645 53.1732C152.57 53.1699 152.496 53.1847 152.429 53.2164C152.429 53.4731 152.429 53.7299 152.429 54.0137H151.929L151.859 51.838Z" fill="#272C3E"/>
</svg>
