<svg width="123" height="57" viewBox="0 0 123 57" fill="none" xmlns="http://www.w3.org/2000/svg">
<path d="M80.0153 47.1065C79.9114 46.5912 79.7601 46.0865 79.5631 45.5989C79.4989 45.4197 79.3827 45.2637 79.2292 45.1507C79.0757 45.0377 78.8919 44.973 78.7014 44.9647C78.5108 44.9564 78.3221 45.005 78.1594 45.1043C77.9967 45.2035 77.8672 45.349 77.7877 45.5219C77.5154 46.0118 77.3726 46.5628 77.3726 47.123C77.3726 47.6832 77.5154 48.2342 77.7877 48.7241C77.8736 48.9002 78.0099 49.047 78.1794 49.1458C78.3488 49.2446 78.5439 49.2911 78.7398 49.2793C78.9358 49.2676 79.1238 49.1981 79.2802 49.0796C79.4365 48.9612 79.5542 48.7992 79.6183 48.614C79.7922 48.1234 79.925 47.6191 80.0153 47.1065ZM76.6298 54.281C76.6593 54.5265 76.7416 54.7627 76.871 54.9735C77.0004 55.1843 77.1739 55.3647 77.3797 55.5024C77.774 55.7482 78.2189 55.9016 78.6811 55.9512C79.1433 56.0007 79.6108 55.9451 80.0483 55.7886C80.3352 55.7228 80.6016 55.5883 80.8245 55.3965C81.0475 55.2048 81.2201 54.9616 81.3275 54.6882C81.4047 54.5489 81.4462 54.3929 81.4485 54.2338C81.4508 54.0747 81.4139 53.9175 81.3408 53.7761C81.2678 53.6347 81.1609 53.5134 81.0297 53.423C80.8985 53.3325 80.7471 53.2758 80.5887 53.2577C79.6582 53.0819 78.7062 53.0485 77.7657 53.1586C77.4679 53.1586 77.1702 53.1586 76.9937 53.4777C76.8173 53.7968 76.7511 53.9949 76.6298 54.259V54.281ZM77.3246 56.999C77.0268 56.922 76.7291 56.8669 76.4314 56.7679C76.1028 56.6905 75.7947 56.5432 75.5283 56.3362C75.2619 56.1292 75.0433 55.8674 74.8875 55.5685C74.8031 55.363 74.777 55.1383 74.812 54.919C74.847 54.6997 74.9418 54.4942 75.086 54.325L76.3321 52.9275C76.0229 52.7004 75.7283 52.4542 75.4499 52.1903C75.2882 52.0358 75.1605 51.8493 75.075 51.6428C74.9896 51.4363 74.9483 51.2142 74.9537 50.9909C74.9727 50.7596 75.0568 50.5383 75.1963 50.3526C75.483 49.9895 75.8359 49.6594 76.1005 49.3733C75.809 48.9794 75.5613 48.5551 75.3617 48.1078C75.1191 47.5065 75.1077 46.8369 75.3295 46.2277C75.5513 45.6184 75.9908 45.1124 76.5637 44.8067C77.2796 44.353 78.1212 44.1373 78.9676 44.1904C79.6268 44.2055 80.2819 44.2978 80.9195 44.4655C81.4926 44.6161 82.1021 44.5371 82.6177 44.2455C82.8713 44.1244 83.136 44.0364 83.3896 43.9374L83.4889 44.0144L83.0809 44.8287C83.0809 44.9277 82.9596 45.0158 82.9044 45.1148C82.8724 45.2094 82.8092 45.2903 82.725 45.3443C82.6408 45.3983 82.5408 45.4221 82.4413 45.4119C82.1824 45.4081 81.9238 45.4302 81.6694 45.4779C81.8608 45.9509 81.9905 46.4465 82.0553 46.9524C82.1009 47.4409 82.0045 47.932 81.7776 48.3672C81.5508 48.8024 81.2031 49.1632 80.7762 49.4063C80.2232 49.7316 79.6039 49.9282 78.9643 49.9815C78.3247 50.0349 77.6813 49.9436 77.082 49.7144C76.9717 49.7144 76.7622 49.7144 76.7291 49.7144C76.6037 49.9041 76.5348 50.1254 76.5306 50.3526C76.5729 50.5526 76.6872 50.7301 76.8517 50.8518C77.0163 50.9734 77.2198 51.0307 77.4238 51.0129C78.0303 51.0129 78.6368 50.9359 79.2544 50.9579C80.0483 50.9579 80.8533 51.0129 81.6473 51.0899C82.0482 51.1376 82.4218 51.317 82.7093 51.5999C82.9968 51.8828 83.1818 52.2531 83.2352 52.6524C83.3273 53.0881 83.3046 53.5402 83.1693 53.9645C83.034 54.3888 82.7908 54.7708 82.4633 55.0733C81.5363 56.0839 80.2761 56.7283 78.9125 56.8889C78.9125 56.8889 78.8574 56.8889 78.8243 56.966L77.3246 56.999Z" fill="white"/>
<path d="M3.2641 48.9223C3.2641 49.7696 3.2641 50.6059 3.2641 51.4532C3.2563 51.5024 3.25843 51.5526 3.27036 51.601C3.28228 51.6494 3.30377 51.6949 3.33356 51.7349C3.36334 51.7748 3.40082 51.8085 3.4438 51.8338C3.48679 51.8591 3.53444 51.8756 3.5839 51.8824C4.04735 52.0057 4.53766 51.983 4.98773 51.8176C5.4378 51.6521 5.82564 51.3519 6.09814 50.958C6.43131 50.4837 6.64955 49.9386 6.73566 49.3657C6.82178 48.7929 6.77339 48.2079 6.59435 47.6569C6.46119 47.1231 6.14904 46.6508 5.70972 46.3185C5.27041 45.9862 4.73037 45.8139 4.17935 45.8302C3.55079 45.8302 3.2641 46.1383 3.2641 46.7545V48.9553V48.9223ZM0.0110045 45.071C0.0434944 44.9868 0.0989319 44.9133 0.171024 44.8589C0.243116 44.8044 0.32899 44.7712 0.419012 44.7628L2.90017 44.3887C2.99914 44.3782 3.09897 44.3782 3.19793 44.3887V45.4121L4.39992 44.7408C4.89003 44.4589 5.45697 44.3391 6.01953 44.3984C6.58209 44.4577 7.11142 44.6931 7.53169 45.071C8.30361 45.623 8.83278 46.4506 9.00935 47.3818C9.23139 48.3425 9.14784 49.3484 8.77035 50.2595C8.39286 51.1707 7.7402 51.9418 6.90312 52.4656C6.32151 52.7751 5.69128 52.9835 5.03949 53.0818C4.57954 53.1045 4.12211 53.0017 3.71622 52.7847L3.1869 52.5426C3.1869 52.8617 3.2641 53.1038 3.2641 53.3348C3.2641 53.9951 3.2641 54.6553 3.2641 55.3156C3.25107 55.4158 3.27693 55.5172 3.33638 55.599C3.39583 55.6809 3.48439 55.7369 3.5839 55.7557C3.98089 55.8878 4.37785 56.0528 4.7638 56.2179C4.85202 56.2179 4.9623 56.394 4.94025 56.46C4.91819 56.526 4.94027 56.8451 4.65356 56.8231C4.36685 56.8011 3.85957 56.8231 3.46258 56.8231H0.970382V56.394C0.970382 53.0928 0.970382 49.7036 0.970382 46.3584C0.988515 46.2225 0.963096 46.0844 0.897725 45.9638C0.832354 45.8432 0.730402 45.7464 0.606493 45.6872C0.398274 45.5805 0.195839 45.4629 0 45.335L0.0110045 45.071Z" fill="white"/>
<path d="M121.258 44.422C121.431 44.4292 121.604 44.399 121.765 44.3336C121.926 44.2681 122.071 44.1689 122.191 44.0427C122.31 43.9164 122.401 43.766 122.456 43.6018C122.512 43.4375 122.532 43.2631 122.515 43.0905C122.531 42.9122 122.51 42.7324 122.453 42.5626C122.396 42.3927 122.304 42.2367 122.183 42.1043C122.063 41.972 121.915 41.8662 121.751 41.7939C121.587 41.7215 121.409 41.6842 121.23 41.6842C121.05 41.6842 120.873 41.7215 120.709 41.7939C120.545 41.8662 120.397 41.972 120.276 42.1043C120.156 42.2367 120.064 42.3927 120.007 42.5626C119.95 42.7324 119.929 42.9122 119.945 43.0905C119.936 43.2655 119.963 43.4405 120.026 43.6042C120.088 43.7679 120.184 43.9167 120.308 44.0411C120.432 44.1655 120.58 44.2627 120.743 44.3264C120.907 44.3901 121.082 44.4189 121.258 44.411V44.422ZM123 43.5747C122.801 44.0595 122.427 44.4522 121.952 44.6751C121.665 44.8035 121.348 44.8519 121.036 44.8151C120.723 44.7783 120.426 44.6576 120.177 44.466C119.899 44.2794 119.685 44.0137 119.561 43.7036C119.437 43.3935 119.409 43.0533 119.482 42.7274C119.526 42.3821 119.68 42.0602 119.923 41.8101C120.166 41.5601 120.483 41.3954 120.827 41.3409C121.049 41.2751 121.282 41.2558 121.512 41.2842C121.741 41.3126 121.962 41.3881 122.161 41.5059C122.36 41.6237 122.532 41.7813 122.667 41.9688C122.802 42.1563 122.897 42.3697 122.945 42.5954L123 43.5747Z" fill="white"/>
<path d="M80.3443 3.88437C80.4047 3.11051 80.2112 2.33804 79.7929 1.68359C79.6793 1.54143 79.535 1.42661 79.3709 1.34771C79.2067 1.26882 79.0268 1.22786 78.8446 1.22786C78.6624 1.22786 78.4825 1.26882 78.3183 1.34771C78.1541 1.42661 78.0098 1.54143 77.8962 1.68359C77.5114 2.31335 77.3032 3.03472 77.2935 3.77228C77.2838 4.50983 77.4729 5.23645 77.8411 5.87607C77.9585 6.04837 78.1184 6.18753 78.3054 6.28009C78.4925 6.37264 78.7003 6.41544 78.9088 6.40437C79.1173 6.3933 79.3193 6.32875 79.4955 6.21692C79.6716 6.10509 79.8159 5.94978 79.9143 5.76603C80.2323 5.19573 80.3815 4.54697 80.3443 3.89535V3.88437ZM78.9879 10.9708H77.8301C77.4694 10.9812 77.1257 11.1258 76.8665 11.3763C76.6073 11.6268 76.4515 11.965 76.4296 12.3243C76.4255 12.6167 76.4988 12.9049 76.6421 13.16C76.7854 13.415 76.9936 13.6278 77.2456 13.7769C77.7805 14.1296 78.3977 14.3383 79.0373 14.3827C79.6769 14.427 80.3171 14.3055 80.8957 14.03C81.1794 13.9285 81.4346 13.7606 81.6399 13.5404C81.8452 13.3202 81.9946 13.0541 82.0756 12.7645C82.1489 12.5957 82.1819 12.4124 82.172 12.2287C82.1622 12.0451 82.1098 11.8662 82.0189 11.7062C81.9281 11.5462 81.8012 11.4095 81.6484 11.3067C81.4956 11.2039 81.321 11.1379 81.1383 11.1139C80.4325 11.0039 79.7157 10.9819 78.999 10.9269L78.9879 10.9708ZM84.5127 0.055006C84.3362 0.440142 84.1487 0.814274 83.9833 1.15539C83.9264 1.35702 83.7938 1.52897 83.613 1.63554C83.4323 1.7421 83.2174 1.77507 83.0129 1.72758C82.7603 1.7261 82.5084 1.75568 82.2631 1.81563C82.291 1.90006 82.3279 1.98123 82.3733 2.05772C82.5973 2.43897 82.7423 2.86122 82.7997 3.29942C82.8571 3.73762 82.8257 4.18284 82.7074 4.60872C82.5891 5.0346 82.3864 5.43246 82.1112 5.77869C81.836 6.12491 81.4939 6.41248 81.1052 6.62433C80.4041 6.98603 79.6298 7.1839 78.8408 7.20296C78.0517 7.22203 77.2687 7.06179 76.5509 6.73437C75.9113 7.41661 76.198 7.99981 76.8376 8.40695C76.9433 8.4609 77.0608 8.4874 77.1795 8.48399C78.0947 8.48399 79.021 8.40696 79.9363 8.41797C80.8516 8.42897 81.6014 8.48399 82.4285 8.56102C82.9177 8.67049 83.3603 8.92982 83.6945 9.30273C84.0286 9.67564 84.2376 10.1435 84.2921 10.6407C84.3226 11.2502 84.2029 11.8578 83.9433 12.4103C83.6838 12.9629 83.2924 13.4434 82.8034 13.8099C81.786 14.6908 80.5398 15.2668 79.2085 15.4715C78.4756 15.6343 77.7171 15.6461 76.9795 15.5061C76.2418 15.3661 75.5406 15.0772 74.9188 14.6571C74.714 14.5356 74.5407 14.3678 74.4127 14.1673C74.2848 13.9667 74.2059 13.7389 74.1823 13.5024C74.1587 13.2658 74.1911 13.027 74.2769 12.8051C74.3627 12.5833 74.4995 12.3847 74.6762 12.2253L75.9334 11.0149L76.176 10.7288C75.7168 10.5346 75.311 10.2334 74.9925 9.85051C74.674 9.4676 74.4521 9.0141 74.3454 8.52801C74.2241 8.04384 74.5329 7.77975 74.7755 7.42762C75.0181 7.0755 75.4702 6.67936 75.8231 6.32723C75.601 6.11892 75.3946 5.89455 75.2055 5.65598C74.7367 4.96576 74.5552 4.12072 74.6992 3.29939C74.8433 2.47805 75.3016 1.74476 75.9775 1.25443C76.5318 0.85017 77.1628 0.562685 77.832 0.409455C78.5012 0.256226 79.1946 0.240459 79.8701 0.363113C80.7082 0.484156 81.5463 0.649209 82.3844 0.770252C82.5286 0.766118 82.6693 0.724404 82.7924 0.649225L84.1046 0.132041C84.1046 0.132041 84.1929 0.0440155 84.237 0L84.5127 0.055006Z" fill="white"/>
<path d="M69.6163 30.9335C69.5857 31.3475 69.4966 31.755 69.3516 32.144C69.1369 32.4193 68.8614 32.6415 68.5466 32.7932C67.5904 33.3645 66.5148 33.7072 65.4038 33.7946C64.3191 33.9484 63.2134 33.8505 62.1728 33.5084C61.5221 33.2789 60.9597 32.8522 60.5643 32.2878C60.1688 31.7235 59.96 31.0499 59.9673 30.3614C59.9673 23.8911 59.9673 17.4318 59.9673 10.9615V10.4663H54.4536V10.8845C54.4536 15.8472 54.4536 20.788 54.4536 25.7727C54.4536 27.1922 54.2551 28.6007 54.1228 30.0092C54.1228 30.4164 53.9905 30.8125 53.9243 31.2197C53.8779 31.5294 53.7519 31.8219 53.5586 32.0687C53.3654 32.3155 53.1115 32.5082 52.8216 32.6282C51.7803 33.1402 50.6633 33.482 49.5134 33.6405C48.7084 33.7615 47.8923 33.8276 47.0763 33.9046C47.0134 33.9063 46.9508 33.8955 46.8921 33.8729C46.8334 33.8502 46.7798 33.8161 46.7344 33.7725C46.547 33.5194 46.3926 33.2334 46.2051 32.9252C46.9991 32.188 47.7821 31.4617 48.554 30.7245C48.9484 30.4053 49.3171 30.0558 49.6567 29.6791C49.8491 29.3903 49.9631 29.0567 49.9875 28.7108C50.1126 27.7103 50.1825 26.7038 50.197 25.6957C50.197 20.7879 50.197 15.8692 50.197 10.9505V10.4883C47.9348 10.314 45.664 10.6917 43.5806 11.5887C43.5534 11.4578 43.5165 11.3291 43.4703 11.2036C43.1505 10.4883 43.6357 10.1032 44.0879 9.74005C45.4515 8.63846 47.0914 7.93063 48.8297 7.69334C49.5591 7.57442 50.2962 7.50823 51.0351 7.49528C55.8321 7.49528 60.629 7.49528 65.4259 7.49528C66.4805 7.4868 67.5308 7.36129 68.5576 7.12112C69.2193 6.97807 69.8809 6.89005 70.5426 6.79102C70.7521 6.79102 70.9065 6.85705 70.8624 7.11014C70.7013 8.61305 70.1875 10.0569 69.3626 11.3246C69.1854 11.5253 68.9938 11.7129 68.7892 11.8858C68.1165 11.5007 67.4659 11.1376 66.8153 10.7854C66.4835 10.586 66.0994 10.4902 65.7126 10.5103C65.4148 10.5103 65.1281 10.5103 64.7863 10.5103V10.9835C64.7863 17.0136 64.7863 23.0878 64.7863 29.0959C64.775 29.3028 64.8283 29.5082 64.9389 29.6836C65.0495 29.859 65.212 29.9958 65.4038 30.0752C66.1493 30.4381 66.9509 30.6725 67.7747 30.7685C68.3592 30.8675 68.9436 30.9225 69.5942 30.9996" fill="white"/>
<path d="M21.2057 51.6418C21.6867 51.8873 22.245 51.9347 22.7606 51.7738C23.2416 51.63 23.6719 51.3532 24.0018 50.9753C24.3316 50.5975 24.5474 50.1342 24.6242 49.639C24.8251 49.0102 24.827 48.3348 24.6297 47.7048C24.4324 47.0747 24.0455 46.5206 23.5215 46.1178C23.2168 45.8623 22.8378 45.7116 22.4406 45.6878C22.0434 45.664 21.6491 45.7685 21.316 45.9857C21.2791 46.013 21.2483 46.0476 21.2255 46.0874C21.2027 46.1272 21.1885 46.1713 21.1837 46.2169C21.1837 48.0325 21.1837 49.8371 21.1837 51.6527L21.2057 51.6418ZM21.1837 44.2361V45.2375L22.7385 44.4342C23.0289 44.3001 23.3449 44.2307 23.6648 44.2307C23.9847 44.2307 24.3008 44.3001 24.5911 44.4342C25.2154 44.6516 25.7683 45.035 26.19 45.5431C26.6118 46.0512 26.8864 46.6647 26.9841 47.3172C27.1665 48.1015 27.1414 48.9195 26.9114 49.6912C26.6813 50.4629 26.2542 51.1616 25.6718 51.7188C25.1257 52.3162 24.3963 52.7159 23.5981 52.8553C22.7999 52.9947 21.9779 52.8659 21.2609 52.489V53.1713C21.2609 53.7765 21.2609 54.3707 21.2609 54.9759C21.2449 55.0548 21.2448 55.136 21.2606 55.2148C21.2765 55.2936 21.3079 55.3685 21.3531 55.4351C21.3983 55.5017 21.4563 55.5587 21.5237 55.6026C21.5912 55.6466 21.6668 55.6767 21.7461 55.6912C22.1651 55.8122 22.5621 55.9883 22.9591 56.1313C22.9039 56.7145 22.904 56.7145 22.3967 56.7145H18.9672V56.2964C18.9672 52.9219 18.9672 49.5437 18.9672 46.1618C18.9786 46.0397 18.9519 45.917 18.8907 45.8106C18.8295 45.7042 18.7368 45.6193 18.6253 45.5676C18.482 45.4796 18.3276 45.4025 18.1953 45.3035C18.0629 45.2045 17.9968 45.0944 18.0188 45.0284C18.0409 44.9624 18.1842 44.7093 18.3055 44.6763C18.89 44.5442 19.4744 44.4342 20.0699 44.3352C20.4448 44.2691 20.8198 44.2471 21.1726 44.2031" fill="white"/>
<path d="M112.491 48.8253C112.491 49.6506 112.491 50.4868 112.491 51.3121C112.478 51.4182 112.506 51.5251 112.57 51.6111C112.633 51.697 112.727 51.7554 112.833 51.7743C113.299 51.9262 113.802 51.9189 114.263 51.7535C114.724 51.5881 115.117 51.274 115.38 50.861C115.808 50.2761 116.051 49.5766 116.076 48.8527C116.102 48.1289 115.909 47.414 115.523 46.8006C115.27 46.3269 114.841 45.9701 114.329 45.8059C113.816 45.6416 113.26 45.6826 112.777 45.9202C112.685 45.9565 112.607 46.023 112.557 46.1089C112.507 46.1948 112.487 46.2951 112.502 46.3934C112.502 47.2077 112.502 48.011 112.502 48.8253H112.491ZM112.502 44.2256V45.326C112.888 45.1059 113.274 44.8969 113.605 44.6658C114.068 44.3959 114.602 44.2714 115.137 44.3087C115.672 44.346 116.183 44.5433 116.604 44.8749C117.157 45.2254 117.608 45.7149 117.912 46.2943C118.216 46.8737 118.362 47.5227 118.335 48.1761C118.382 49.0502 118.192 49.9208 117.784 50.6959C117.485 51.2477 117.072 51.7295 116.572 52.1091C116.072 52.4886 115.496 52.7572 114.884 52.8967C114.541 52.9947 114.182 53.0237 113.828 52.9822C113.474 52.9406 113.132 52.8292 112.822 52.6546L112.513 52.5116V55.5597L114.222 56.2199C114.222 56.407 114.134 56.583 114.09 56.7591H110.241V56.2419C110.241 52.9407 110.241 49.5735 110.241 46.2394C110.261 46.0961 110.235 45.9502 110.165 45.8233C110.096 45.6964 109.987 45.5953 109.855 45.5351C109.713 45.4678 109.579 45.3828 109.458 45.282C109.37 45.205 109.238 45.084 109.249 45.0069C109.26 44.9299 109.337 44.6328 109.58 44.5998L112.028 44.2366L112.436 44.1816" fill="white"/>
<path d="M108.012 52.8725C107.574 52.9814 107.11 52.9305 106.706 52.7287C106.302 52.5269 105.983 52.1877 105.807 51.7721C105.458 52.078 105.09 52.361 104.704 52.6194C104.109 52.9869 103.396 53.113 102.711 52.9718C102.026 52.8306 101.421 52.4327 101.021 51.8601C100.783 51.3837 100.647 50.8626 100.624 50.3306C100.569 49.4393 100.624 48.5369 100.624 47.6346C100.624 47.1064 100.624 46.5342 100.69 46.0611C100.711 45.9722 100.698 45.8787 100.653 45.7991C100.608 45.7196 100.535 45.6599 100.448 45.6319C100.264 45.546 100.087 45.4467 99.9183 45.3348C99.819 45.2798 99.6646 45.1367 99.6867 45.1037C99.741 44.9403 99.8451 44.798 99.9844 44.6966C100.216 44.6189 100.457 44.5745 100.701 44.5645L103.039 44.3555C103.032 44.4727 103.032 44.5903 103.039 44.7076C103.039 46.5232 102.962 48.3389 102.973 50.2095C102.954 50.4338 102.994 50.6592 103.088 50.8636C103.183 51.0679 103.329 51.2442 103.513 51.3751C103.696 51.5061 103.91 51.5872 104.135 51.6105C104.359 51.6338 104.586 51.5985 104.792 51.508C105.073 51.4214 105.335 51.2833 105.564 51.1008C105.626 51.0489 105.676 50.9851 105.712 50.9132C105.748 50.8413 105.769 50.7629 105.774 50.6827C105.774 49.1642 105.774 47.6566 105.774 46.1491C105.774 45.7859 105.531 45.7199 105.311 45.5879C105.09 45.4559 104.925 45.4228 104.737 45.3238C104.55 45.2247 104.539 45.1697 104.55 45.1367C104.561 45.1037 104.704 44.7516 104.814 44.7296C105.851 44.6196 106.888 44.5315 107.924 44.4435C107.979 44.4325 108.035 44.4325 108.09 44.4435L108.012 52.8725Z" fill="white"/>
<path d="M93.1799 48.5935C93.1799 48.8906 93.2461 49.3638 93.3343 49.8149C93.4338 50.5856 93.7867 51.3016 94.3378 51.8506C94.5202 52.0151 94.747 52.1226 94.9901 52.1597C95.2331 52.1969 95.4817 52.1621 95.7052 52.0597C95.9125 51.9414 96.0943 51.7832 96.2401 51.5943C96.3858 51.4054 96.4926 51.1896 96.5543 50.9593C96.9111 49.897 97.002 48.7636 96.8189 47.6582C96.7393 46.9575 96.5099 46.2821 96.1463 45.6774C96.0377 45.4673 95.8733 45.291 95.671 45.168C95.4687 45.0449 95.2364 44.9798 94.9994 44.9798C94.7625 44.9798 94.5302 45.0449 94.3279 45.168C94.1256 45.291 93.9611 45.4673 93.8526 45.6774C93.3624 46.5527 93.1293 47.5481 93.1799 48.5495V48.5935ZM99.3994 48.4944C99.4898 49.1244 99.4423 49.7665 99.2601 50.3764C99.0779 50.9863 98.7653 51.5496 98.3439 52.0273C97.9225 52.505 97.4023 52.8858 96.8192 53.1435C96.236 53.4012 95.6037 53.5297 94.966 53.52C94.3283 53.5103 93.7003 53.3628 93.1252 53.0875C92.5502 52.8123 92.0418 52.4158 91.6351 51.9256C91.2284 51.4353 90.9331 50.8629 90.7696 50.2477C90.606 49.6326 90.5781 48.9894 90.6877 48.3624C90.7195 47.226 91.2018 46.1486 92.0288 45.3668C92.8557 44.5849 93.9598 44.1623 95.0987 44.1919C95.6755 44.1551 96.2536 44.2409 96.7946 44.4438C97.3357 44.6467 97.8273 44.962 98.2371 45.3688C98.6468 45.7756 98.9653 46.2646 99.1714 46.8034C99.3774 47.3423 99.4664 47.9187 99.4324 48.4944" fill="white"/>
<path d="M50.6052 48.5396C50.1862 48.7267 49.723 48.9028 49.2929 49.1118C49.0638 49.2068 48.8599 49.3538 48.6975 49.541C48.5657 49.724 48.4821 49.9371 48.4546 50.1608C48.4271 50.3844 48.4564 50.6114 48.5399 50.8208C48.6234 51.0302 48.7584 51.2152 48.9324 51.3588C49.1064 51.5025 49.3138 51.6001 49.5355 51.6427C49.9546 51.7308 50.6383 51.3897 50.6383 51.0595C50.6383 50.2232 50.6383 49.3979 50.6383 48.5396H50.6052ZM48.0358 46.9441C47.5919 46.9455 47.1488 46.905 46.7125 46.823C46.5361 46.823 46.4148 46.4709 46.2825 46.2728C46.2437 46.1959 46.2141 46.1146 46.1942 46.0308C46.5251 45.7997 46.8559 45.5356 47.2088 45.3375C48.0589 44.7944 49.0063 44.4208 49.9987 44.2371C50.6282 44.1927 51.2532 44.3715 51.7636 44.7419C52.274 45.1123 52.637 45.6505 52.7886 46.2618C52.8421 46.4853 52.868 46.7144 52.8658 46.9441V52.8862C52.4728 52.9873 52.0578 52.9607 51.681 52.8103C51.3042 52.6599 50.9853 52.3935 50.7706 52.0499C50.2576 52.3552 49.7274 52.6308 49.1827 52.8752C48.8374 52.9797 48.4725 53.0024 48.117 52.9413C47.7615 52.8802 47.4252 52.7371 47.1349 52.5233C46.8446 52.3095 46.6084 52.031 46.4451 51.71C46.2818 51.389 46.1959 51.0344 46.1942 50.6744C46.1485 50.2752 46.2512 49.873 46.483 49.5444C46.7147 49.2158 47.0593 48.9836 47.4514 48.8918C48.4218 48.5066 49.4032 48.1875 50.3957 47.8684C50.4471 47.8591 50.4963 47.8398 50.5403 47.8115C50.5842 47.7833 50.6221 47.7466 50.6518 47.7036C50.6816 47.6607 50.7025 47.6123 50.7134 47.5613C50.7243 47.5102 50.725 47.4576 50.7155 47.4062C50.747 47.101 50.7143 46.7926 50.6193 46.5008C50.5244 46.2089 50.3693 45.9401 50.1641 45.7116C49.9077 45.4929 49.5893 45.3594 49.2532 45.3298C48.9172 45.3003 48.5803 45.376 48.2894 45.5466C48.2123 45.5466 48.1902 45.7556 48.1682 45.8767C48.113 46.2068 48.0799 46.5479 48.0358 46.9771" fill="white"/>
<path d="M12.3176 47.6811H14.9752C15.0293 47.6669 15.0789 47.6393 15.1194 47.6008C15.1599 47.5623 15.1899 47.5142 15.2067 47.461C15.302 46.805 15.178 46.1359 14.8539 45.5573C14.7893 45.4302 14.6968 45.3192 14.5832 45.2328C14.4696 45.1463 14.3379 45.0865 14.198 45.058C14.058 45.0294 13.9134 45.0327 13.7749 45.0678C13.6364 45.1028 13.5077 45.1686 13.3983 45.2602C13.0549 45.5666 12.7795 45.9412 12.5896 46.36C12.3997 46.7787 12.2995 47.2325 12.2955 47.6921L12.3176 47.6811ZM12.2955 48.5724C12.224 49.1179 12.3045 49.6725 12.5283 50.1752C12.752 50.678 13.1102 51.1095 13.5637 51.4224C13.8023 51.5999 14.0773 51.7225 14.369 51.7815C14.6607 51.8405 14.9618 51.8343 15.2509 51.7635C15.4912 51.6534 15.7141 51.5089 15.9125 51.3344L17.1034 50.5311C17.1973 50.6375 17.249 50.7745 17.249 50.9162C17.249 51.058 17.1973 51.1949 17.1034 51.3014C16.782 51.7444 16.4121 52.1504 16.0007 52.5118C15.7288 52.6797 15.4244 52.7884 15.1075 52.8309C14.0273 53.1191 12.8791 53.0057 11.8765 52.5118C11.3612 52.2562 10.9162 51.8791 10.58 51.4131C10.2437 50.9472 10.0263 50.4065 9.94668 49.8378C9.706 48.749 9.83397 47.6112 10.3106 46.6027C10.5678 46.0559 10.9453 45.5741 11.415 45.1931C11.8847 44.812 12.4344 44.5416 13.0233 44.4019C13.6065 44.2276 14.2245 44.2048 14.819 44.3358C15.4134 44.4668 15.9644 44.7471 16.4198 45.1502C16.961 45.6433 17.2925 46.3245 17.346 47.0539C17.3899 47.2526 17.412 47.4556 17.4122 47.6591C17.4122 48.2093 17.2137 48.3743 16.6072 48.4514C16.0007 48.5284 15.4493 48.5724 14.8649 48.5834C14.0048 48.5834 13.1446 48.5834 12.2404 48.5834" fill="white"/>
<path d="M56.4144 47.6813H59.061C59.1199 47.6647 59.1738 47.6339 59.218 47.5917C59.2622 47.5495 59.2953 47.4972 59.3146 47.4392C59.4052 46.8036 59.2892 46.1557 58.9838 45.5906C58.9165 45.4573 58.8195 45.341 58.7002 45.2509C58.581 45.1607 58.4427 45.0989 58.2958 45.0702C58.149 45.0415 57.9975 45.0468 57.853 45.0855C57.7085 45.1242 57.5748 45.1953 57.462 45.2935C56.828 45.9366 56.4548 46.7911 56.4144 47.6923V47.6813ZM56.4806 48.5726C56.3803 49.2369 56.5147 49.9153 56.8607 50.4915C57.2068 51.0677 57.743 51.5058 58.3773 51.7307C58.7095 51.8165 59.0584 51.8139 59.3893 51.7232C59.7202 51.6324 60.0214 51.4567 60.263 51.2136C60.5718 50.9605 60.9246 50.7514 61.2554 50.5313C61.3472 50.6155 61.4047 50.7305 61.4169 50.8543C61.4291 50.9782 61.3952 51.1021 61.3216 51.2026C61.0825 51.7075 60.7095 52.1374 60.243 52.4459C59.7764 52.7543 59.2342 52.9294 58.675 52.9522C57.7597 53.0512 56.8353 52.879 56.0174 52.457C55.5064 52.1854 55.0689 51.7942 54.7424 51.3171C54.416 50.8399 54.2102 50.2909 54.1428 49.7171C53.9911 48.8849 54.0403 48.0286 54.2861 47.2191C54.4923 46.4854 54.9017 45.8245 55.4675 45.3126C56.0332 44.8006 56.7321 44.4584 57.4841 44.3252C58.0711 44.1782 58.6866 44.1894 59.2678 44.3576C59.8491 44.5258 60.3751 44.845 60.7923 45.2825C61.2453 45.7674 61.5179 46.3928 61.5642 47.0541C61.5588 47.1237 61.5588 47.1936 61.5642 47.2632C61.7186 47.9124 61.465 48.3636 60.8033 48.4186C60.1417 48.4736 59.3697 48.5396 58.653 48.5616C57.9362 48.5836 57.1974 48.5616 56.4475 48.5616" fill="white"/>
<path d="M33.2911 47.6596C33.2911 47.2634 33.2911 46.9003 33.2911 46.5592C33.2882 46.3282 33.2389 46.1 33.1461 45.8883C33.0533 45.6767 32.9188 45.4857 32.7508 45.3267C32.0891 44.7765 31.4936 45.1067 31.0415 45.7229C30.6604 46.3019 30.4537 46.9779 30.446 47.6706L33.2911 47.6596ZM30.435 48.5619C30.3388 49.2272 30.4777 49.9052 30.8278 50.4794C31.1779 51.0537 31.7175 51.4884 32.3538 51.709C32.6254 51.8051 32.9177 51.8272 33.2007 51.773C33.4837 51.7189 33.7471 51.5904 33.9638 51.4009C34.3753 51.0813 34.8062 50.7873 35.254 50.5206C35.3418 50.6547 35.3819 50.8144 35.3679 50.9741C35.3539 51.1337 35.2866 51.284 35.1768 51.4009C34.8019 51.9181 34.4821 52.5013 33.8204 52.6663C33.3406 52.8165 32.8445 52.9088 32.3428 52.9414C31.446 53.0369 30.5447 52.8085 29.8023 52.2978C29.0598 51.787 28.5253 51.0277 28.2957 50.1575C28.0141 49.3268 27.9735 48.4337 28.1783 47.581C28.3832 46.7283 28.8252 45.9507 29.4536 45.3378C30.0444 44.7692 30.7961 44.3957 31.6068 44.2678C32.4175 44.1398 33.248 44.2637 33.9858 44.6225C34.4088 44.8343 34.7741 45.1451 35.0506 45.5283C35.3271 45.9116 35.5066 46.3558 35.5738 46.8233C35.6067 47.0126 35.6288 47.2036 35.6399 47.3955C35.6399 48.2758 35.5297 48.2428 34.8019 48.3638C33.9882 48.4883 33.1659 48.5472 32.3428 48.5399C31.7032 48.5399 31.0526 48.5399 30.3909 48.5399" fill="white"/>
<path d="M40.6051 52.6978H37.1756V50.7942L37.1095 41.5289C37.1095 41.3198 37.0543 41.1878 36.8558 41.1218C36.6926 41.0786 36.5366 41.0119 36.3927 40.9237C36.2714 40.8466 36.0949 40.7146 36.106 40.6266C36.117 40.5386 36.1721 40.2525 36.4368 40.1864C37.4303 39.9441 38.4469 39.8076 39.4693 39.7793C39.4693 40.0544 39.4693 40.2965 39.4693 40.5495C39.4693 41.2428 39.4693 41.925 39.4693 42.6183C39.4693 44.7384 39.4693 46.8621 39.4693 48.9895C39.4693 49.7928 39.4693 50.5961 39.5355 51.3994C39.5436 51.4551 39.5635 51.5085 39.594 51.5559C39.6244 51.6034 39.6646 51.6438 39.7119 51.6745C39.9214 51.7955 40.153 51.8726 40.3846 51.9826C40.8257 52.1807 40.8257 52.1807 40.6603 52.6978" fill="white"/>
<path d="M88.7151 52.7084H84.7563V52.3342C84.7563 50.3095 84.7563 48.2958 84.7563 46.2711C84.7725 46.1668 84.7516 46.0602 84.6972 45.9697C84.6428 45.8793 84.5583 45.8107 84.4585 45.7759C84.2276 45.6748 84.0061 45.5532 83.7969 45.4128C83.7969 44.9176 84.1718 44.8296 84.5136 44.7525C85.2084 44.5875 85.9031 44.4444 86.5868 44.2684C86.7853 44.2134 86.8294 44.2684 86.8514 44.4334C86.8514 44.8736 86.9617 45.3137 87.0169 45.7869C87.3859 45.2015 87.9135 44.7322 88.5386 44.4334C88.795 44.2976 89.0809 44.2266 89.3712 44.2266C89.6615 44.2266 89.9474 44.2976 90.2038 44.4334C90.243 44.4491 90.2788 44.4725 90.3089 44.5021C90.3391 44.5316 90.363 44.5669 90.3795 44.6058C90.3959 44.6446 90.4044 44.6864 90.4045 44.7286C90.4046 44.7708 90.3964 44.8126 90.3802 44.8516C90.1487 45.5338 89.9171 46.2271 89.6524 46.8873C89.5201 47.2394 89.2995 47.2284 89.1121 46.8873C88.9242 46.6051 88.7547 46.311 88.6048 46.007C88.4504 45.7099 88.263 45.6659 87.9983 45.8089C87.7012 45.9263 87.4486 46.134 87.2764 46.4026C87.1042 46.6712 87.0211 46.9871 87.0389 47.3055C87.0389 48.6149 87.0389 49.9354 87.0389 51.2448C87.0389 51.4979 87.1051 51.597 87.3697 51.652C87.6344 51.707 88.0645 51.8721 88.4174 51.9821C88.7702 52.0921 88.9025 52.1361 88.704 52.6533" fill="white"/>
<path d="M68.3709 44.4991H70.3448C70.1794 44.7521 70.1022 45.0493 69.9257 45.1373C69.1876 45.597 68.6607 46.3284 68.4591 47.173C67.8305 48.7136 67.2461 50.2871 66.5844 51.8167C66.3248 52.2284 66.0052 52.5993 65.6361 52.917C65.5589 53.0051 65.3935 53.0051 65.2501 53.0491L63.4196 48.5375C62.9785 47.4371 62.5264 46.3367 62.0742 45.2363C62.0327 45.1078 62.0068 44.9749 61.9971 44.8402C61.9971 44.5541 62.0742 44.433 62.383 44.444H65.0737H65.4927L64.9083 45.4124C64.8506 45.5 64.8271 45.6057 64.8421 45.7095C65.3604 47.14 65.8787 48.5705 66.4411 50.111L68.3709 44.444" fill="white"/>
<path d="M45.6417 52.1816C45.6417 52.3467 45.5646 52.5228 45.5204 52.6988H42.0799V52.3137C42.0799 50.289 42.0799 48.2533 42.0799 46.2285C42.1044 46.0891 42.0762 45.9456 42.0009 45.8257C41.9255 45.7058 41.8083 45.618 41.6719 45.5793C41.5461 45.5386 41.4272 45.4792 41.319 45.4032C41.2308 45.3262 41.1095 45.1832 41.1315 45.0951C41.1536 45.0071 41.2859 44.798 41.3962 44.776C42.3004 44.6 43.2157 44.4459 44.1199 44.2809L44.3736 44.2148V44.589C44.3736 46.7897 44.3736 49.0676 44.3736 51.3013C44.3586 51.3898 44.376 51.4807 44.4225 51.5574C44.4691 51.6342 44.5417 51.6917 44.6272 51.7195C44.9581 51.8515 45.2889 52.0166 45.6417 52.1816Z" fill="white"/>
<path d="M44.4718 41.6275C44.3615 41.7815 44.2623 41.9796 44.1299 42.1337C43.9976 42.2877 43.6006 42.6618 43.347 42.9259C43.3143 42.9714 43.2713 43.0084 43.2214 43.0339C43.1715 43.0595 43.1163 43.0728 43.0603 43.0728C43.0042 43.0728 42.949 43.0595 42.8991 43.0339C42.8493 43.0084 42.8062 42.9714 42.7735 42.9259C42.4766 42.5986 42.2004 42.2532 41.9465 41.8916C41.9117 41.8254 41.8936 41.7518 41.8936 41.677C41.8936 41.6023 41.9117 41.5286 41.9465 41.4624C42.2442 41.0993 42.5751 40.7472 42.9169 40.3621C42.9498 40.3187 42.9923 40.2836 43.0411 40.2594C43.0899 40.2352 43.1436 40.2227 43.1981 40.2227C43.2526 40.2227 43.3063 40.2352 43.3551 40.2594C43.4039 40.2836 43.4464 40.3187 43.4793 40.3621L44.3725 41.4624C44.3725 41.4624 44.3725 41.5615 44.4387 41.6605" fill="white"/>
<path d="M120.958 43.0362L121.52 42.8272V42.6841L120.958 42.508V43.0362ZM120.506 42.2109H121.531C121.752 42.2109 121.95 42.343 121.95 42.5741C121.931 42.7861 121.878 42.9939 121.796 43.1903L122.061 43.9495C121.719 44.0596 121.509 44.0266 121.465 43.6414C121.464 43.5825 121.448 43.5248 121.418 43.4737C121.388 43.4227 121.346 43.3798 121.296 43.3491C121.245 43.3185 121.188 43.301 121.129 43.2982C121.07 43.2954 121.011 43.3075 120.958 43.3333C120.958 43.5424 120.958 43.7515 120.958 43.9825H120.561L120.506 42.2109Z" fill="white"/>
</svg>
