<svg id="eqXjz3JeFl71" xmlns="http://www.w3.org/2000/svg" xmlns:xlink="http://www.w3.org/1999/xlink" viewBox="0 0 1135 370" shape-rendering="geometricPrecision" text-rendering="geometricPrecision">
<style>
.st9{fill:none;stroke:#FFFFFF;stroke-miterlimit:10;stroke-dasharray:3.9957,1.9979;}
	.st6{opacity:0.49;}
	.st7{fill:#FFFFFF;}
</style>
<g id="eqXjz3JeFl78" transform="matrix(0 0 0 0 604.467726 338.371739)"><path d="M1.1393,69.348c.7443,1.6821,1.519,3.3946,2.2329,5.0768c2.5519,5.7183,5.1139,11.422,7.6859,17.11c1.6253,3.5916,3.281,7.1681,4.8911,10.76c2.2582,4.991,4.5012,9.982,6.7291,14.973l4.5569,10.153c2.2936,5.077,4.5569,10.154,6.8505,15.155.1671.379.3798.758.638,1.242l4.7695-6.334c3.2506-4.44,6.486-8.881,9.7518-13.291.4912-.883,1.1221-1.681,1.8684-2.364.0122-.125.0429-.248.0911-.364l6.3645-8.683c0-.425-.3494-.576-.638-.803l-9.9189-7.669c-4.9366-3.834-9.8429-7.6831-14.78-11.502l-12.592-9.699-17.347-13.397-.18228-.1819c-.06999-.0455-.12658-.1088-.16396-.1834s-.05417-.1577-.04869-.2409h-.37975c-.03263.073-.08599.1349-.15347.178s-.14615.0655-.22627.0645Z" fill="#fff" stroke="#272c3e" stroke-miterlimit="10"/><path d="M72.151,107.51l14.309-5.486l12.486-4.7279c-1.1696-.3789-2.0962-.7123-3.0379-.9851l-12-3.4855-13.853-4.016-11.514-3.425-13.959-4.0614c-4.1771-1.2275-8.3543-2.4854-12.547-3.6977l-19.109-5.5618c-3.5999-1.0457-7.1847-2.1216-10.769-3.1825-.1519,0-.31899,0-.47088-.0757l.22784.3485l12.03,6.5014l8.2936,4.5463l26.719,14.579l16.04,8.7746l7.1543,3.955Z" fill="#fff" stroke="#272c3e" stroke-miterlimit="10"/><path d="M72.151,108.51l-7.1544-3.955-16.04-8.775-10.526-5.7436-16.207-8.8654L13.93,76.6246L1.9,70.1384c-.00549.0832.01132.1663.04869.2409s.09396.1379.16396.1834l.18228.1819l17.286,13.366l12.592,9.6989c4.9367,3.819,9.8429,7.6681,14.78,11.502l9.9189,7.669c.2886.227.6379.378.6379.803.1975.121.2127.318.2431.515.4405,2.849.9113,5.698,1.3518,8.547.5367,3.274,1.0431,6.542,1.519,9.805c1.7316-3.197,3.1139-6.577,4.7392-9.835.5316-1.061.9569-2.182,1.519-3.258c1.7518-3.688,3.5088-7.371,5.2708-11.048Z" fill="#fff" stroke="#272c3e" stroke-miterlimit="10"/></g><g id="eqXjz3JeFl712" transform="matrix(0 0 0 0 322.372498 111.396816)" opacity="0"><path d="M246.15,152.49l40.1-53.042c1.991-2.5629,3.616-5.3883,4.831-8.3957c1.069-2.5622,1.646-5.3023,1.701-8.0774v-.1515c.103-1.6649-.16-3.3321-.771-4.8847-.612-1.5525-1.557-2.9526-2.768-4.102-2.844-2.283-6.443-3.4186-10.086-3.1825-1.868-.0858-3.733.2116-5.481.8737s-3.341,1.6748-4.681,2.9756c-2.799,3.0118-4.458,6.9021-4.694,11.002h-19.594c.535-6.2768,2.443-12.36,5.589-17.822c2.815-4.7726,6.893-8.6791,11.788-11.29c5.223-2.6801,11.034-4.0187,16.906-3.8948c6.226-.1555,12.409,1.0659,18.106,3.5765c4.786,2.1761,8.782,5.7755,11.438,10.305c2.758,4.9836,4.123,10.616,3.949,16.306-.004,4.8864-.889,9.7321-2.613,14.306-1.79,4.8267-4.272,9.3697-7.367,13.488l-31.169,40.66h41.787v18.185h-66.971v-16.836Z" fill="#fff"/><path d="M340.92,161.87c-5.773-5.779-8.659-13.862-8.659-24.248v-52.511c0-10.396,2.897-18.478,8.689-24.247s14.192-8.6432,25.2-8.623c11.058,0,19.468,2.8642,25.23,8.5927s8.648,13.811,8.658,24.247v52.587c0,10.396-2.896,18.478-8.689,24.247-5.792,5.769-14.192,8.648-25.199,8.638-11.059,0-19.469-2.894-25.23-8.683Zm36.455-14.034c2.4-3.03,3.585-7.304,3.585-12.926v-47.01c0-5.6224-1.185-9.9415-3.585-12.927s-6.076-4.5464-11.241-4.5464c-5.164,0-8.855,1.5155-11.24,4.5464s-3.585,7.3045-3.585,12.927v46.979c0,5.623,1.185,9.927,3.585,12.927c2.4,3.001,6.076,4.547,11.24,4.547c5.165,0,8.871-1.516,11.256-4.517h-.015Z" fill="#fff"/></g>
 <g  transform="matrix(1.475115 0 0 1.474116-500.782036-25.667334)">
 <mask id="msk1">
      <path class="path"  fill="none" stroke="#fff" stroke-dasharray="0,1489" stroke-dashoffset="0" stroke-width="4" d="M724.202544,154.000397C690.126356,205.721486,634.9,207.8,567.1,207.8h-9c-49.4,0-89.4-40-89.4-89.4s40-89.4,89.4-89.4s89.4,40,89.4,89.4-40,89.4-89.4,89.4h-1.9c-79.1,0-140.821943-45.594825-169.221943-99.994825">
	     <animate id="an_stroke" attributeName="stroke-dasharray" begin="1.6s" dur="2.5s" values="0,1489;1489,0" fill="freeze" repeatCount="1" />
	 </path>
	 </mask>
<path mask="url(#msk1)" d="M724.202544,154.000397C690.126356,205.721486,634.9,207.8,567.1,207.8h-9c-49.4,0-89.4-40-89.4-89.4s40-89.4,89.4-89.4s89.4,40,89.4,89.4-40,89.4-89.4,89.4h-1.9c-79.1,0-140.821943-45.594825-169.221943-99.994825" fill="none" stroke="#fff" stroke-width="1.03" stroke-miterlimit="10" stroke-dasharray="2.06,4.12"/>
</g><g id="eqXjz3JeFl716" transform="translate(532.90979 0.000003)"><g id="eqXjz3JeFl717" transform="translate(.000023-.000006)"><path d="M726.89,361.06h14.658l9.828-3.334v3.334h6.516v-35.583h-10.374l3.053,24.248L726.89,361.06Z" fill="#272c3e"/><path d="M726.89,361.06h14.658l9.828-3.334v3.334h6.516v-35.583h-10.374l3.053,24.248L726.89,361.06Z" fill="none" stroke="#272c3e" stroke-width="2.57" stroke-miterlimit="10"/></g><g id="eqXjz3JeFl720" transform="translate(11.409774-.801669)"><path d="M623.51,360.86h14.658l9.828-3.334v3.334h6.516v-35.583h-10.374l3.038,24.248L623.51,360.86Z" fill="#272c3e"/><path d="M623.51,360.86h14.658l9.828-3.334v3.334h6.516v-35.583h-10.374l3.038,24.248L623.51,360.86Z" fill="none" stroke="#272c3e" stroke-width="2.57" stroke-miterlimit="10"/></g><g id="eqXjz3JeFl723" transform="matrix(.078459-.996917 0.996917 0.078459 335.24273 900.871523)"><path d="M594.94,230.93l-12.957-8.138-2.674,6.668l12.441,7.805" fill="#fff"/><path d="M595.74,230.96l-12.623-7.82-2.598,6.41l12.107,7.502" fill="none" stroke="#272c3e" stroke-width="0.6" stroke-miterlimit="10"/><path d="M654.9,266.3l-60.212-37.28-3.827,7.486l52.814,32.598" fill="#272c3e"/><path d="M654.9,266.3l-60.212-37.28-3.827,7.486l52.814,32.598" fill="none" stroke="#272c3e" stroke-width="1.21" stroke-miterlimit="10"/></g><path d="M688.28,326.1v-66.15" fill="none" stroke="#272c3e" stroke-width="1.28" stroke-miterlimit="10"/><path d="M770.24,293.3l-9.251,6.683-3.767-4.971l9.008-6.501" fill="#fff"/><path d="M770.24,293.3l-9.251,6.683-3.767-4.971l9.008-6.501" fill="none" stroke="#272c3e" stroke-width="0.6" stroke-miterlimit="10"/><path d="M793.14,267.37h-32.461v-7.82h56.521l-46.511,34.068-4.724-6.274L793.14,267.37Z" fill="#272c3e"/><path d="M793.14,267.37h-32.461v-7.82h56.521l-46.511,34.068-4.724-6.274L793.14,267.37Z" fill="none" stroke="#272c3e" stroke-width="1.21" stroke-miterlimit="10"/><path d="M644.47,255.6l-1.808,66.529l116.78,3.076l1.807-66.528" fill="#fff"/><path d="M644.47,255.6l-1.808,66.529l116.78,3.076l1.807-66.528" fill="none" stroke="#272c3e" stroke-width="1.21" stroke-miterlimit="10"/><path d="M643.4,276.89l-2.203,49.314l118.71-.485l1.276-45.722-28.694-8.926-44.612,26.218-24.865-28.567-19.61,8.168Z" fill="#272c3e"/><path d="M643.95,258.69h116.43v-125.44h-87.31L643.952,258.69Z" fill="#fff"/><path d="M643.95,258.69h116.43v-125.44h-87.31L643.952,258.69Z" fill="none" stroke="#272c3e" stroke-width="1.21" stroke-miterlimit="10"/><path d="M709.3,132.82l-20.734,90.337h40.951v36.038" fill="none" stroke="#272c3e" stroke-width="0.6" stroke-miterlimit="10"/><path d="M748.72,233.96c0,0-9.513555,2.403568-9.513555,2.403568s-9.382445,2.370432-9.382445,2.370432m-70.1-68.423h12.485-12.485Zm104.14,5.486l-28.86,10.76l28.86-10.76Zm-72.911-.667l25.823,7.82-25.823-7.82Zm-9.068-11.169c1.748.045,3.444.603,4.875,1.605c1.431,1.001,2.535,2.402,3.172,4.026s.78,3.4.411,5.105c-.37,1.705-1.235,3.263-2.488,4.48-1.253,1.216-2.837,2.037-4.555,2.359-1.719.323-3.494.132-5.104-.547-1.61-.68-2.984-1.818-3.949-3.273-.965-1.454-1.478-3.16-1.476-4.905.016-1.178.265-2.341.731-3.424.467-1.082,1.143-2.062,1.989-2.884s1.847-1.47,2.944-1.906s2.269-.652,3.45-.636Zm44.05,13.094c1.744.047,3.434.607,4.861,1.608c1.426,1.001,2.525,2.399,3.16,4.02.634,1.621.775,3.392.406,5.092-.369,1.701-1.233,3.255-2.482,4.469-1.25,1.213-2.831,2.033-4.545,2.355-1.713.322-3.484.133-5.091-.543-1.607-.677-2.978-1.81-3.943-3.26-.964-1.45-1.479-3.151-1.479-4.891.015-1.181.265-2.347.733-3.431.469-1.085,1.147-2.066,1.997-2.888.849-.823,1.853-1.47,2.954-1.904c1.1-.434,2.276-.647,3.46-.627h-.031Z" fill="none" stroke="#272c3e" stroke-width="1.21" stroke-miterlimit="10"/><path d="M749.34,151.46l-35.043,12.745l2.385,5.471l33.736-15.73-1.078-2.486Z" fill="#272c3e"/><path d="M667.65,151.49l35.089,10.472l1.458-5.789-35.893-7.305-.654,2.622Z" fill="#272c3e"/><path d="M642.9,277.59l45.827-19.247l72.789,21.899" fill="none" stroke="#272c3e" stroke-width="1.28" stroke-miterlimit="10"/><path d="M694.17,261.54c-.016,1.091-.356,2.153-.978,3.05-.622.898-1.497,1.59-2.515,1.99-1.017.4-2.131.489-3.2.256-1.068-.233-2.043-.778-2.8-1.566-.757-.787-1.262-1.782-1.451-2.856-.19-1.075-.054-2.182.389-3.179.442-.998,1.173-1.842,2.097-2.424.925-.583,2.002-.878,3.096-.848c1.451.032,2.831.637,3.836,1.682c1.006,1.046,1.554,2.446,1.526,3.895Z" fill="#fff"/><path d="M694,261.54c-.016,1.067-.349,2.105-.958,2.983-.608.877-1.465,1.555-2.46,1.945-.995.391-2.085.478-3.13.249-1.044-.229-1.997-.762-2.737-1.533-.74-.77-1.234-1.743-1.419-2.794-.184-1.051-.051-2.133.382-3.109.434-.975,1.148-1.8,2.053-2.37.905-.569,1.959-.857,3.028-.827c1.42.032,2.769.624,3.751,1.647s1.518,2.393,1.49,3.809Z" fill="none" stroke="#272c3e" stroke-width="0.62" stroke-miterlimit="10"/><path d="M685.42,265.56l-17.255,4.273.486-17.928l16.997,5.168" fill="#fff"/><path d="M685.36,265.4l-16.952,4.122.471-17.322l16.708,5.002" fill="none" stroke="#272c3e" stroke-width="1.23" stroke-miterlimit="10"/><path d="M692.65,257.25l17.27-4.274-.501,17.944-16.997-5.183" fill="#fff"/><path d="M692.71,257.42l16.966-4.137-.486,17.321-16.708-5.001" fill="none" stroke="#272c3e" stroke-width="1.23" stroke-miterlimit="10"/><path d="M694.17,261.54c-.016,1.091-.356,2.153-.978,3.05-.622.898-1.497,1.59-2.515,1.99-1.017.4-2.131.489-3.2.256-1.068-.233-2.043-.778-2.8-1.566-.757-.787-1.262-1.782-1.451-2.856-.19-1.075-.054-2.182.389-3.179.442-.998,1.173-1.842,2.097-2.424.925-.583,2.002-.878,3.096-.848c1.451.032,2.831.637,3.836,1.682c1.006,1.046,1.554,2.446,1.526,3.895Z" fill="#fff"/><path d="M693.9,261.54c-.012,1.046-.337,2.066-.932,2.928s-1.434,1.528-2.409,1.913c-.976.385-2.045.472-3.07.249s-1.96-.745-2.687-1.5-1.212-1.709-1.394-2.74c-.181-1.031-.051-2.093.374-3.05s1.126-1.766,2.014-2.324c.887-.559,1.921-.841,2.97-.811.688.014,1.367.163,1.998.439.63.275,1.2.672,1.677,1.167.477.496.851,1.08,1.101,1.72.251.639.372,1.322.358,2.009Z" fill="none" stroke="#272c3e" stroke-width="1.23" stroke-miterlimit="10"/><path d="M685.45,265.5l-16.952,4.122.471-17.322l16.709,5.001" fill="none" stroke="#272c3e" stroke-width="1.23" stroke-miterlimit="10"/><path d="M692.8,257.51l16.966-4.138-.486,17.322-16.708-5.001" fill="none" stroke="#272c3e" stroke-width="1.23" stroke-miterlimit="10"/></g><g id="eqXjz3JeFl753" transform="matrix(0 0 0 0 314.477715 204.049874)" opacity="0"><path d="M256.51,222.88c21.751-4.198,46.252-49.45,75.948-38.735-23.27,1.985-59.24,61.194-3.645,33.931c2.476-1.303,2.202-.834.273.197-38.627,20.125-38.825-6.062-20.719-20.944c6.279-5.805,13.617-10.353,21.615-13.396-29.392-7.063-51.083,34.689-73.047,39.22-2.947.682-7.595.954-7.078-2.273.471-1.304,1.777-.47.82-.137-.638.288-1.671,3.546,5.833,2.137Z" fill="#fff"/><path d="M338.91,213.47c1.641,1.304-2.476,2.955-5.787,3.85-5.848,6.243,14.931,1.788,17.559.136.76-.273.334,0,.198.212-1.99,1.637-25.397,6.789-19.884-1.379c2.886-3.501,6.213-4.122,7.914-2.819Zm-.349.137c-1.519-.819-2.886.621-5.089,3.303c4.603-1.712,6.122-2.621,5.089-3.227v-.076Z" fill="#fff"/><path d="M359.01,214.09c-.759-.485-3.782-2.136-9.296,5.214-.608.894-3.038.621-2.339-.197c1.169-1.379,3.797-3.168,3.721-5.638l.957-.076c0,.152-.137.697-.137,1.107c3.722-2.546,8.674-.955,8.4.075c1.109-.485,5.575-2.409,6.957-.136c1.246,2.046-6.076,5.622-2.749,6.653c2.4.758,6.197-.819,13.974-3.713.41-.136.957,0,.41.212-8.323,2.743-11.285,4.319-13.974,3.849-2.203-.409-2.962-1.106-2.962-1.924c0-2.001,4.678-4.547,4.208-5.289-.897-1.167-4.694.136-5.514,1.091-.821.955-1.656,2.061-3.859,4.334-.759.485-2.202.349-2.126-.212c1.23-1.925,5.164-4.804,4.329-5.35Z" fill="#fff"/></g><line x1="-313.874834" y1="0" x2="313.874834" y2="0" transform="translate(889.887512 361.060001)" fill="none" stroke="#3f5787" stroke-width="3"/>
<g class="st6" transform="translate(-363.83 -114.73)">
	<rect x="1354.9" y="236" class="st7" width="59.6" height="22.1"/>
	<g>
		<path class="st7" d="M1407.1,206.3L1407.1,206.3c0.2,0.3,0.6,0.9,0.6,1.7c0,1.9-1.5,3.1-3.7,3.1c-0.7,0-1.3-0.1-1.9-0.4
			c-0.2,0.2-0.3,0.5-0.3,0.7c0,0.4,0.5,0.9,0.8,0.9c1.2-0.1,2.7-0.2,4.5,0c0.6,0.1,1,0.3,1.4,0.7c0.3,0.3,0.6,0.9,0.6,1.5
			c0,1-0.7,2.1-1.9,2.9c-1,0.6-2.2,1.1-3.6,1.1c-2.1,0-3.5-0.9-3.5-2c0-0.3,0.2-0.6,0.4-0.9l1.4-1.3v0c-0.5-0.2-0.8-0.4-1.2-0.9
			c-0.3-0.3-0.5-0.9-0.5-1.3c0-0.3,0.9-1.2,1.4-1.7c-0.7-0.5-1.1-1.2-1.1-2.2c0-1.8,1.7-3.1,3.9-3.1c0.6,0,1.1,0.1,1.6,0.2
			c0.6,0.1,1,0.2,1.6,0.3l1.7-0.7l0.1,0.2l-0.8,1.3L1407.1,206.3z M1404.1,214.3c-1.2,0-1.4,0.1-1.5,0.2c-0.2,0.2-0.5,0.7-0.5,1
			c0,1.1,1.1,1.8,2.5,1.8c1.5,0,2.7-0.6,2.7-1.9c0-0.4-0.3-0.9-0.9-1C1405.8,214.4,1405.3,214.3,1404.1,214.3L1404.1,214.3z
			 M1404.1,205.8c-1.1,0-1.4,1.3-1.4,2.3c0,1,0.4,2.3,1.4,2.3c1,0,1.4-1.2,1.4-2.2C1405.5,207.2,1405.2,205.8,1404.1,205.8
			L1404.1,205.8z"/>
		<path class="st7" d="M1393.5,211.2c1.2-0.3,2.3-0.6,3.5-0.6l0.2,0c-0.1,1.5-0.9,3.5-1.5,4.1l-0.3,0.3c-0.5-0.2-1.4-0.8-2.3-1.2
			h-1.4v16.7c0.3,0.5,1.4,1.1,4.3,1.3l-0.3,1.1c-1,0.8-2.4,1.4-4.5,1.4c-2.4,0-3.8-1.3-3.8-3.1v-17.4h-4.9v11.6
			c0,4.5-0.4,6.6-0.8,7.3c-0.9,1-3.7,1.6-5.9,1.6l-0.5-0.8c0.8-0.9,2.5-2.3,3.1-2.9c0.3-0.8,0.4-2,0.4-4.9v-11.9h-1.4
			c-1.8,0-3.6,0.7-4.5,1l-0.2-0.9c0.6-0.8,2.9-2.7,6.7-2.7H1393.5z"/>
	</g>
	<rect x="867.4" y="437.7" class="st7" width="12.8" height="30.8"/>
	<rect x="880.2" y="453.1" class="st7" width="15.4" height="15.4"/>
	<rect x="895.6" y="437.7" class="st7" width="18.1" height="30.8"/>
	<rect x="914.4" y="422.8" class="st7" width="19.1" height="45.7"/>
	<rect x="934.4" y="437.7" class="st7" width="17" height="30.8"/>
	<rect x="952.9" y="453.1" class="st7" width="15.4" height="15.4"/>
	<polygon class="st7" points="968.6,421.4 983.4,416.4 983.4,468.5 968.6,468.5 	"/>
	<rect x="984.2" y="405.2" class="st7" width="10.8" height="61.3"/>
	<path class="st7" d="M1063.9,408h9.6c0.8,0,1.7,0.1,2.4,0.4v-5.4h-42.4v63.5h4.9l-2.8-7.5h1.4v-2.4h2.3v-1.4h9.2v1.4h0.7v9.9h26.7
		v-56.9c-0.8-0.3-1.6-0.5-2.4-0.5h-1.4v2.2h-11v-0.6C1061.1,409.2,1062.4,408,1063.9,408z M1047.9,443c0.1,1.4-0.3,3.3-0.3,4.2
		l-1,0.3l-0.8,6.7h-1.8V446c-0.6-1-1.1-2.9-1.3-5.3l-0.3-0.4l-2.6,0.7l-0.5-1.6l3.2-1.4l0.1-1.9c0-0.1,0-0.1,0-0.2l0.4-2.5l0.8-0.3
		v-1.4l-0.9-0.7l0.9-1.5l0.8-0.9l1.5,0.9v3.9l1.1,0.6c0,0,0.9,1.6,1.3,2.4C1050.1,439.5,1048.4,443.8,1047.9,443z"/>
	<rect x="1083.4" y="379.6" class="st7" width="27.6" height="86.9"/>
	<path class="st7" d="M1274.9,280.3v190.8h68.3V280.3H1274.9z M1309.4,452.2h-1.4v18.3h-5.1v-18.3h-1.4v-1.1h3.5v-35.4
		c0-3.6-3-6.6-6.6-6.6h-1.4v2.2h-11v-0.6c0-1.5,1.3-2.8,2.8-2.8h9.6c4.3,0,7.7,3.5,7.7,7.7v35.4h3.5V452.2z"/>
	<polyline class="st7" points="1337.3,444.1 1337.3,289.7 1325.2,289.7 1325.2,444.1 	"/>
	<line class="st8" x1="1200.8" y1="404.9" x2="1200.8" y2="465.8"/>
	<path class="st7" d="M1342.5,257.3v213.8h84.9V257.3H1342.5z M1379.6,282.4h10.1v34.3h-10.1V282.4z M1379.6,328.5h10.1v23.4h-10.1
		V328.5z M1379.6,363.6h10.1V387h-10.1V363.6z M1356,282.4h10.1v34.3H1356V282.4z M1356,328.5h10.1v23.4H1356V328.5z M1356,363.6
		h10.1V387H1356V363.6z M1356,398.4h10.1v23.4H1356V398.4z M1376.5,460.4h-13.5v-30.7h13.5V460.4z M1379.6,398.4h10.1v23.4h-10.1
		V398.4z M1391,452.9h-10.1v-23.4h10.1V452.9z M1408.6,460.4h-13.5v-30.7h13.5V460.4z M1412.2,421.8h-10.1v-23.4h10.1V421.8z
		 M1412.2,387h-10.1v-23.4h10.1V387z M1412.2,351.8h-10.1v-23.4h10.1V351.8z M1412.2,316.7h-10.1v-34.3h10.1V316.7z"/>
	<path class="st7" d="M1227,318.3v152.9h47.9V318.3H1227z M1240.1,467.8h-7.3V332.4h7.3V467.8z M1250.1,467.8h-7.3V332.4h7.3V467.8z
		 M1260,467.8h-7.3V332.4h7.3V467.8z M1270,467.8h-7.3V332.4h7.3V467.8z"/>
	<path class="st7" d="M1227,373.7v97.2h-168.9v-28.4h22v8.7h-3.5v1.1h1.4v18.3h5.1v-18.3h0.2v-1.1h-2.2v-8.7h9.7v-8.7h34.1v29.8h1.4
		V351.7l17.4,19v92.7h4v-57.5h18.8v2.3c-1,0.4-1.7,1.4-1.7,2.6v0.6h1.7v52.1h2.7v-52.1h6.6v-2.2h1.4c3.6,0,6.6,2.9,6.6,6.6v35.4
		h-3.5v1.1h1.5v18.3h5.1v-18.3h1.4v-1.1h-3.5v-35.4c0-4.2-3.5-7.7-7.7-7.7h-8v-3.1h31.5l16.7-31.2H1227z"/>
	<path class="st7" d="M1081.2,415.7v26.7h-1.1v-26.7c0-2.8-1.7-5.1-4.2-6.1v-1.2C1079,409.4,1081.2,412.3,1081.2,415.7z"/>
	<path class="st7" d="M1427.8,280.3v190.8h68.3V280.3H1427.8z M1445,421.8h-10.1v-23.4h10.1V421.8z M1445,351.8h-10.1v-23.4h10.1
		V351.8z M1467,387h-10.1v-23.4h10.1V387z"/>
	<g>
		<path class="st7" d="M1032.4,429.7v-57.1h-36.2v57.1H1032.4z M1025.1,388.2h1.1v12.5h-1.1V388.2z M1025.1,405.2h1.1v12.5h-1.1
			V405.2z M1025.1,422.1h1.1v6.3h-1.1V422.1z M1020.6,428.4h-1.1v-6.3h1.1V428.4z M1019.4,388.2h1.1v12.5h-1.1V388.2z M1019.4,405.2
			h1.1v12.5h-1.1V405.2z M1013.8,388.2h1.1v12.5h-1.1V388.2z M1013.8,405.2h1.1v12.5h-1.1V405.2z M1013.8,422.1h1.1v6.3h-1.1V422.1z
			 M1008.1,388.2h1.1v12.5h-1.1V388.2z M1008.1,405.2h1.1v12.5h-1.1V405.2z M1008.1,422.1h1.1v6.3h-1.1V422.1z M1002.5,388.2h1.1
			v12.5h-1.1V388.2z M1002.5,405.2h1.1v12.5h-1.1V405.2z M1002.5,422.1h1.1v6.3h-1.1V422.1z"/>
		<path class="st7" d="M996.2,430.9v36.9h36.2v-36.9H996.2z M1025.1,431.5h1.1v6.3h-1.1V431.5z M1019.4,431.5h1.1v6.3h-1.1V431.5z
			 M1013.8,431.5h1.1v6.3h-1.1V431.5z M1008.1,431.5h1.1v6.3h-1.1V431.5z M1002.5,431.5h1.1v6.3h-1.1V431.5z M1004.2,451.7h-3V444h3
			V451.7z M1009.8,451.7h-3V444h3V451.7z M1015.5,451.7h-3V444h3V451.7z M1021.1,451.7h-3V444h3V451.7z M1026.8,451.7h-3V444h3
			V451.7z"/>
	</g>
	<line class="st9" x1="1343.6" y1="258.1" x2="1426.1" y2="258.1"/>
	<rect x="857.8" y="465.8" class="st7" width="641.5" height="5.3"/>
</g>
<script><![CDATA[!function(t,n){"object"==typeof exports&&"undefined"!=typeof module?module.exports=n():"function"==typeof define&&define.amd?define(n):((t="undefined"!=typeof globalThis?globalThis:t||self).__SVGATOR_PLAYER__=t.__SVGATOR_PLAYER__||{},t.__SVGATOR_PLAYER__["5c7f360c"]=n())}(this,(function(){"use strict";function t(t,n){var r=Object.keys(t);if(Object.getOwnPropertySymbols){var e=Object.getOwnPropertySymbols(t);n&&(e=e.filter((function(n){return Object.getOwnPropertyDescriptor(t,n).enumerable}))),r.push.apply(r,e)}return r}function n(n){for(var r=1;r<arguments.length;r++){var e=null!=arguments[r]?arguments[r]:{};r%2?t(Object(e),!0).forEach((function(t){u(n,t,e[t])})):Object.getOwnPropertyDescriptors?Object.defineProperties(n,Object.getOwnPropertyDescriptors(e)):t(Object(e)).forEach((function(t){Object.defineProperty(n,t,Object.getOwnPropertyDescriptor(e,t))}))}return n}function r(t){return(r="function"==typeof Symbol&&"symbol"==typeof Symbol.iterator?function(t){return typeof t}:function(t){return t&&"function"==typeof Symbol&&t.constructor===Symbol&&t!==Symbol.prototype?"symbol":typeof t})(t)}function e(t,n){if(!(t instanceof n))throw new TypeError("Cannot call a class as a function")}function i(t,n){for(var r=0;r<n.length;r++){var e=n[r];e.enumerable=e.enumerable||!1,e.configurable=!0,"value"in e&&(e.writable=!0),Object.defineProperty(t,e.key,e)}}function o(t,n,r){return n&&i(t.prototype,n),r&&i(t,r),t}function u(t,n,r){return n in t?Object.defineProperty(t,n,{value:r,enumerable:!0,configurable:!0,writable:!0}):t[n]=r,t}function a(t){return(a=Object.setPrototypeOf?Object.getPrototypeOf:function(t){return t.__proto__||Object.getPrototypeOf(t)})(t)}function l(t,n){return(l=Object.setPrototypeOf||function(t,n){return t.__proto__=n,t})(t,n)}function f(){if("undefined"==typeof Reflect||!Reflect.construct)return!1;if(Reflect.construct.sham)return!1;if("function"==typeof Proxy)return!0;try{return Boolean.prototype.valueOf.call(Reflect.construct(Boolean,[],(function(){}))),!0}catch(t){return!1}}function s(t,n,r){return(s=f()?Reflect.construct:function(t,n,r){var e=[null];e.push.apply(e,n);var i=new(Function.bind.apply(t,e));return r&&l(i,r.prototype),i}).apply(null,arguments)}function c(t,n){if(n&&("object"==typeof n||"function"==typeof n))return n;if(void 0!==n)throw new TypeError("Derived constructors may only return object or undefined");return function(t){if(void 0===t)throw new ReferenceError("this hasn't been initialised - super() hasn't been called");return t}(t)}function h(t,n,r){return(h="undefined"!=typeof Reflect&&Reflect.get?Reflect.get:function(t,n,r){var e=function(t,n){for(;!Object.prototype.hasOwnProperty.call(t,n)&&null!==(t=a(t)););return t}(t,n);if(e){var i=Object.getOwnPropertyDescriptor(e,n);return i.get?i.get.call(r):i.value}})(t,n,r||t)}function v(t){return function(t){if(Array.isArray(t))return y(t)}(t)||function(t){if("undefined"!=typeof Symbol&&null!=t[Symbol.iterator]||null!=t["@@iterator"])return Array.from(t)}(t)||function(t,n){if(!t)return;if("string"==typeof t)return y(t,n);var r=Object.prototype.toString.call(t).slice(8,-1);"Object"===r&&t.constructor&&(r=t.constructor.name);if("Map"===r||"Set"===r)return Array.from(t);if("Arguments"===r||/^(?:Ui|I)nt(?:8|16|32)(?:Clamped)?Array$/.test(r))return y(t,n)}(t)||function(){throw new TypeError("Invalid attempt to spread non-iterable instance.\nIn order to be iterable, non-array objects must have a [Symbol.iterator]() method.")}()}function y(t,n){(null==n||n>t.length)&&(n=t.length);for(var r=0,e=new Array(n);r<n;r++)e[r]=t[r];return e}var g=d(Math.pow(10,-6));function d(t){var n=arguments.length>1&&void 0!==arguments[1]?arguments[1]:6;if(Number.isInteger(t))return t;var r=Math.pow(10,n);return Math.round((+t+Number.EPSILON)*r)/r}function p(t,n){var r=arguments.length>2&&void 0!==arguments[2]?arguments[2]:g;return Math.abs(t-n)<r}var m=Math.PI/180;function b(t){return t}function w(t,n,r){var e=1-r;return 3*r*e*(t*e+n*r)+r*r*r}function A(){var t=arguments.length>0&&void 0!==arguments[0]?arguments[0]:0,n=arguments.length>1&&void 0!==arguments[1]?arguments[1]:0,r=arguments.length>2&&void 0!==arguments[2]?arguments[2]:1,e=arguments.length>3&&void 0!==arguments[3]?arguments[3]:1;return t<0||t>1||r<0||r>1?null:p(t,n)&&p(r,e)?b:function(i){if(i<=0)return t>0?i*n/t:0===n&&r>0?i*e/r:0;if(i>=1)return r<1?1+(i-1)*(e-1)/(r-1):1===r&&t<1?1+(i-1)*(n-1)/(t-1):1;for(var o,u=0,a=1;u<a;){var l=w(t,r,o=(u+a)/2);if(p(i,l))break;l<i?u=o:a=o}return w(n,e,o)}}function x(){return 1}function k(t){return 1===t?1:0}function S(){var t=arguments.length>0&&void 0!==arguments[0]?arguments[0]:1,n=arguments.length>1&&void 0!==arguments[1]?arguments[1]:0;if(1===t){if(0===n)return k;if(1===n)return x}var r=1/t;return function(t){return t>=1?1:(t+=n*r)-t%r}}var _=Math.sin,O=Math.cos,j=Math.acos,M=Math.asin,P=Math.tan,E=Math.atan2,I=Math.PI/180,R=180/Math.PI,F=Math.sqrt,N=function(){function t(){var n=arguments.length>0&&void 0!==arguments[0]?arguments[0]:1,r=arguments.length>1&&void 0!==arguments[1]?arguments[1]:0,i=arguments.length>2&&void 0!==arguments[2]?arguments[2]:0,o=arguments.length>3&&void 0!==arguments[3]?arguments[3]:1,u=arguments.length>4&&void 0!==arguments[4]?arguments[4]:0,a=arguments.length>5&&void 0!==arguments[5]?arguments[5]:0;e(this,t),this.m=[n,r,i,o,u,a],this.i=null,this.w=null,this.s=null}return o(t,[{key:"determinant",get:function(){var t=this.m;return t[0]*t[3]-t[1]*t[2]}},{key:"isIdentity",get:function(){if(null===this.i){var t=this.m;this.i=1===t[0]&&0===t[1]&&0===t[2]&&1===t[3]&&0===t[4]&&0===t[5]}return this.i}},{key:"point",value:function(t,n){var r=this.m;return{x:r[0]*t+r[2]*n+r[4],y:r[1]*t+r[3]*n+r[5]}}},{key:"translateSelf",value:function(){var t=arguments.length>0&&void 0!==arguments[0]?arguments[0]:0,n=arguments.length>1&&void 0!==arguments[1]?arguments[1]:0;if(!t&&!n)return this;var r=this.m;return r[4]+=r[0]*t+r[2]*n,r[5]+=r[1]*t+r[3]*n,this.w=this.s=this.i=null,this}},{key:"rotateSelf",value:function(){var t=arguments.length>0&&void 0!==arguments[0]?arguments[0]:0;if(t%=360){var n=_(t*=I),r=O(t),e=this.m,i=e[0],o=e[1];e[0]=i*r+e[2]*n,e[1]=o*r+e[3]*n,e[2]=e[2]*r-i*n,e[3]=e[3]*r-o*n,this.w=this.s=this.i=null}return this}},{key:"scaleSelf",value:function(){var t=arguments.length>0&&void 0!==arguments[0]?arguments[0]:1,n=arguments.length>1&&void 0!==arguments[1]?arguments[1]:1;if(1!==t||1!==n){var r=this.m;r[0]*=t,r[1]*=t,r[2]*=n,r[3]*=n,this.w=this.s=this.i=null}return this}},{key:"skewSelf",value:function(t,n){if(n%=360,(t%=360)||n){var r=this.m,e=r[0],i=r[1],o=r[2],u=r[3];t&&(t=P(t*I),r[2]+=e*t,r[3]+=i*t),n&&(n=P(n*I),r[0]+=o*n,r[1]+=u*n),this.w=this.s=this.i=null}return this}},{key:"resetSelf",value:function(){var t=arguments.length>0&&void 0!==arguments[0]?arguments[0]:1,n=arguments.length>1&&void 0!==arguments[1]?arguments[1]:0,r=arguments.length>2&&void 0!==arguments[2]?arguments[2]:0,e=arguments.length>3&&void 0!==arguments[3]?arguments[3]:1,i=arguments.length>4&&void 0!==arguments[4]?arguments[4]:0,o=arguments.length>5&&void 0!==arguments[5]?arguments[5]:0,u=this.m;return u[0]=t,u[1]=n,u[2]=r,u[3]=e,u[4]=i,u[5]=o,this.w=this.s=this.i=null,this}},{key:"recomposeSelf",value:function(){var t=arguments.length>0&&void 0!==arguments[0]?arguments[0]:null,n=arguments.length>1&&void 0!==arguments[1]?arguments[1]:null,r=arguments.length>2&&void 0!==arguments[2]?arguments[2]:null,e=arguments.length>3&&void 0!==arguments[3]?arguments[3]:null,i=arguments.length>4&&void 0!==arguments[4]?arguments[4]:null;return this.isIdentity||this.resetSelf(),t&&(t.x||t.y)&&this.translateSelf(t.x,t.y),n&&this.rotateSelf(n),r&&(r.x&&this.skewSelf(r.x,0),r.y&&this.skewSelf(0,r.y)),!e||1===e.x&&1===e.y||this.scaleSelf(e.x,e.y),i&&(i.x||i.y)&&this.translateSelf(i.x,i.y),this}},{key:"decompose",value:function(){var t=arguments.length>0&&void 0!==arguments[0]?arguments[0]:0,n=arguments.length>1&&void 0!==arguments[1]?arguments[1]:0,r=this.m,e=r[0]*r[0]+r[1]*r[1],i=[[r[0],r[1]],[r[2],r[3]]],o=F(e);if(0===o)return{origin:{x:d(r[4]),y:d(r[5])},translate:{x:d(t),y:d(n)},scale:{x:0,y:0},skew:{x:0,y:0},rotate:0};i[0][0]/=o,i[0][1]/=o;var u=r[0]*r[3]-r[1]*r[2]<0;u&&(o=-o);var a=i[0][0]*i[1][0]+i[0][1]*i[1][1];i[1][0]-=i[0][0]*a,i[1][1]-=i[0][1]*a;var l=F(i[1][0]*i[1][0]+i[1][1]*i[1][1]);if(0===l)return{origin:{x:d(r[4]),y:d(r[5])},translate:{x:d(t),y:d(n)},scale:{x:d(o),y:0},skew:{x:0,y:0},rotate:0};i[1][0]/=l,i[1][1]/=l,a/=l;var f=0;return i[1][1]<0?(f=j(i[1][1])*R,i[0][1]<0&&(f=360-f)):f=M(i[0][1])*R,u&&(f=-f),a=E(a,F(i[0][0]*i[0][0]+i[0][1]*i[0][1]))*R,u&&(a=-a),{origin:{x:d(r[4]),y:d(r[5])},translate:{x:d(t),y:d(n)},scale:{x:d(o),y:d(l)},skew:{x:d(a),y:0},rotate:d(f)}}},{key:"clone",value:function(){var t=this.m;return new this.constructor(t[0],t[1],t[2],t[3],t[4],t[5])}},{key:"toString",value:function(){var t=arguments.length>0&&void 0!==arguments[0]?arguments[0]:" ";if(null===this.s){var n=this.m.map((function(t){return d(t)}));1===n[0]&&0===n[1]&&0===n[2]&&1===n[3]?this.s="translate("+n[4]+t+n[5]+")":this.s="matrix("+n.join(t)+")"}return this.s}}],[{key:"create",value:function(t){return t?Array.isArray(t)?s(this,v(t)):t instanceof this?t.clone():(new this).recomposeSelf(t.origin,t.rotate,t.skew,t.scale,t.translate):new this}}]),t}();function T(t,n,r){return t>=.5?r:n}function B(t,n,r){return 0===t||n===r?n:t*(r-n)+n}function q(t,n,r){var e=B(t,n,r);return e<=0?0:e}function L(t,n,r){var e=B(t,n,r);return e<=0?0:e>=1?1:e}function C(t,n,r){return 0===t?n:1===t?r:{x:B(t,n.x,r.x),y:B(t,n.y,r.y)}}function D(t,n,r){var e=function(t,n,r){return Math.round(B(t,n,r))}(t,n,r);return e<=0?0:e>=255?255:e}function z(t,n,r){return 0===t?n:1===t?r:{r:D(t,n.r,r.r),g:D(t,n.g,r.g),b:D(t,n.b,r.b),a:B(t,null==n.a?1:n.a,null==r.a?1:r.a)}}function V(t,n){for(var r=[],e=0;e<t;e++)r.push(n);return r}function G(t,n){if(--n<=0)return t;var r=(t=Object.assign([],t)).length;do{for(var e=0;e<r;e++)t.push(t[e])}while(--n>0);return t}var Y,$=function(){function t(n){e(this,t),this.list=n,this.length=n.length}return o(t,[{key:"setAttribute",value:function(t,n){for(var r=this.list,e=0;e<this.length;e++)r[e].setAttribute(t,n)}},{key:"removeAttribute",value:function(t){for(var n=this.list,r=0;r<this.length;r++)n[r].removeAttribute(t)}},{key:"style",value:function(t,n){for(var r=this.list,e=0;e<this.length;e++)r[e].style[t]=n}}]),t}(),U=/-./g,Q=function(t,n){return n.toUpperCase()};function H(t){return"function"==typeof t?t:T}function J(t){return t?"function"==typeof t?t:Array.isArray(t)?function(t){var n=arguments.length>1&&void 0!==arguments[1]?arguments[1]:b;if(!Array.isArray(t))return n;switch(t.length){case 1:return S(t[0])||n;case 2:return S(t[0],t[1])||n;case 4:return A(t[0],t[1],t[2],t[3])||n}return n}(t,null):function(t,n){var r=arguments.length>2&&void 0!==arguments[2]?arguments[2]:b;switch(t){case"linear":return b;case"steps":return S(n.steps||1,n.jump||0)||r;case"bezier":case"cubic-bezier":return A(n.x1||0,n.y1||0,n.x2||0,n.y2||0)||r}return r}(t.type,t.value,null):null}function Z(t,n,r){var e=arguments.length>3&&void 0!==arguments[3]&&arguments[3],i=n.length-1;if(t<=n[0].t)return e?[0,0,n[0].v]:n[0].v;if(t>=n[i].t)return e?[i,1,n[i].v]:n[i].v;var o,u=n[0],a=null;for(o=1;o<=i;o++){if(!(t>n[o].t)){a=n[o];break}u=n[o]}return null==a?e?[i,1,n[i].v]:n[i].v:u.t===a.t?e?[o,1,a.v]:a.v:(t=(t-u.t)/(a.t-u.t),u.e&&(t=u.e(t)),e?[o,t,r(t,u.v,a.v)]:r(t,u.v,a.v))}function K(t,n){var r=arguments.length>2&&void 0!==arguments[2]?arguments[2]:null;return t&&t.length?"function"!=typeof n?null:("function"!=typeof r&&(r=null),function(e){var i=Z(e,t,n);return null!=i&&r&&(i=r(i)),i}):null}function W(t,n){return t.t-n.t}function X(t,n,e,i,o){var u,a="@"===e[0],l="#"===e[0],f=Y[e],s=T;switch(a?(u=e.substr(1),e=u.replace(U,Q)):l&&(e=e.substr(1)),r(f)){case"function":if(s=f(i,o,Z,J,e,a,n,t),l)return s;break;case"string":s=K(i,H(f));break;case"object":if((s=K(i,H(f.i),f.f))&&"function"==typeof f.u)return f.u(n,s,e,a,t)}return s?function(t,n,r){if(arguments.length>3&&void 0!==arguments[3]&&arguments[3])return t instanceof $?function(e){return t.style(n,r(e))}:function(e){return t.style[n]=r(e)};if(Array.isArray(n)){var e=n.length;return function(i){var o=r(i);if(null==o)for(var u=0;u<e;u++)t[u].removeAttribute(n);else for(var a=0;a<e;a++)t[a].setAttribute(n,o)}}return function(e){var i=r(e);null==i?t.removeAttribute(n):t.setAttribute(n,i)}}(n,e,s,a):null}function tt(t,n,e,i){if(!i||"object"!==r(i))return null;var o=null,u=null;return Array.isArray(i)?u=function(t){if(!t||!t.length)return null;for(var n=0;n<t.length;n++)t[n].e&&(t[n].e=J(t[n].e));return t.sort(W)}(i):(u=i.keys,o=i.data||null),u?X(t,n,e,u,o):null}function nt(t,n,r){if(!r)return null;var e=[];for(var i in r)if(r.hasOwnProperty(i)){var o=tt(t,n,i,r[i]);o&&e.push(o)}return e.length?e:null}function rt(t,n){if(!n.duration||n.duration<0)return null;var r=function(t,n){if(!n)return null;var r=[];if(Array.isArray(n))for(var e=n.length,i=0;i<e;i++){var o=n[i];if(2===o.length){var u=null;if("string"==typeof o[0])u=t.getElementById(o[0]);else if(Array.isArray(o[0])){u=[];for(var a=0;a<o[0].length;a++)if("string"==typeof o[0][a]){var l=t.getElementById(o[0][a]);l&&u.push(l)}u=u.length?1===u.length?u[0]:new $(u):null}if(u){var f=nt(t,u,o[1]);f&&(r=r.concat(f))}}}else for(var s in n)if(n.hasOwnProperty(s)){var c=t.getElementById(s);if(c){var h=nt(t,c,n[s]);h&&(r=r.concat(h))}}return r.length?r:null}(t,n.elements);return r?function(t,n){var r=arguments.length>2&&void 0!==arguments[2]?arguments[2]:1/0,e=arguments.length>3&&void 0!==arguments[3]?arguments[3]:1,i=arguments.length>4&&void 0!==arguments[4]&&arguments[4],o=arguments.length>5&&void 0!==arguments[5]?arguments[5]:1,u=t.length,a=e>0?n:0;i&&r%2==0&&(a=n-a);var l=null;return function(f,s){var c=f%n,h=1+(f-c)/n;s*=e,i&&h%2==0&&(s=-s);var v=!1;if(h>r)c=a,v=!0,-1===o&&(c=e>0?0:n);else if(s<0&&(c=n-c),c===l)return!1;l=c;for(var y=0;y<u;y++)t[y](c);return v}}(r,n.duration,n.iterations||1/0,n.direction||1,!!n.alternate,n.fill||1):null}function et(t){return+("0x"+(t.replace(/[^0-9a-fA-F]+/g,"")||27))}function it(t,n,r){return!t||!r||n>t.length?t:t.substring(0,n)+it(t.substring(n+1),r,r)}function ot(t){var n=arguments.length>1&&void 0!==arguments[1]?arguments[1]:27;return!t||t%n?t%n:ot(t/n,n)}function ut(t,n,r){if(t&&t.length){var e=et(r),i=et(n),o=ot(e)+5,u=it(t,ot(e,5),o);return u=u.replace(/\x7c$/g,"==").replace(/\x2f$/g,"="),u=function(t,n,r){var e=+("0x"+t.substring(0,4));t=t.substring(4);for(var i=n%e+r%27,o=[],u=0;u<t.length;u+=2)if("|"!==t[u]){var a=+("0x"+t[u]+t[u+1])-i;o.push(a)}else{var l=+("0x"+t.substring(u+1,u+1+4))-i;u+=3,o.push(l)}return String.fromCharCode.apply(String,o)}(u=(u=atob(u)).replace(/[\x41-\x5A]/g,""),i,e),u=JSON.parse(u)}}Number.isInteger||(Number.isInteger=function(t){return"number"==typeof t&&isFinite(t)&&Math.floor(t)===t}),Number.EPSILON||(Number.EPSILON=2220446049250313e-31);var at=function(){function t(n,r){var i=arguments.length>2&&void 0!==arguments[2]?arguments[2]:{};e(this,t),this._id=0,this._running=!1,this._rollingBack=!1,this._animations=n,this.duration=r.duration,this.alternate=r.alternate,this.fill=r.fill,this.iterations=r.iterations,this.direction=i.direction||1,this.speed=i.speed||1,this.fps=i.fps||100,this.offset=i.offset||0,this.rollbackStartOffset=0}return o(t,[{key:"_rollback",value:function(){var t=this,n=1/0,r=null;this.rollbackStartOffset=this.offset,this._rollingBack||(this._rollingBack=!0,this._running=!0);this._id=window.requestAnimationFrame((function e(i){if(t._rollingBack){null==r&&(r=i);var o=i-r,u=t.rollbackStartOffset-o,a=Math.round(u*t.speed);if(a>t.duration&&n!=1/0){var l=!!t.alternate&&a/t.duration%2>1,f=a%t.duration;a=(f+=l?t.duration:0)||t.duration}var s=t.fps?1e3/t.fps:0,c=Math.max(0,a);if(c<n-s){t.offset=c,n=c;for(var h=t._animations,v=h.length,y=0;y<v;y++)h[y](c,t.direction)}var g=!1;if(t.iterations>0&&-1===t.fill){var d=t.iterations*t.duration,p=d==a;a=p?0:a,t.offset=p?0:t.offset,g=a>d}a>0&&t.offset>=a&&!g?t._id=window.requestAnimationFrame(e):t.stop()}}))}},{key:"_start",value:function(){var t=this,n=arguments.length>0&&void 0!==arguments[0]?arguments[0]:0,r=-1/0,e=null,i={},o=function o(u){t._running=!0,null==e&&(e=u);var a=Math.round((u-e+n)*t.speed),l=t.fps?1e3/t.fps:0;if(a>r+l&&!t._rollingBack){t.offset=a,r=a;for(var f=t._animations,s=f.length,c=0,h=0;h<s;h++)i[h]?c++:(i[h]=f[h](a,t.direction),i[h]&&c++);if(c===s)return void t._stop()}t._id=window.requestAnimationFrame(o)};this._id=window.requestAnimationFrame(o)}},{key:"_stop",value:function(){this._id&&window.cancelAnimationFrame(this._id),this._running=!1,this._rollingBack=!1}},{key:"play",value:function(){!this._rollingBack&&this._running||(this._rollingBack=!1,this.rollbackStartOffset>this.duration&&(this.offset=this.rollbackStartOffset-(this.rollbackStartOffset-this.offset)%this.duration,this.rollbackStartOffset=0),this._start(this.offset))}},{key:"stop",value:function(){this._stop(),this.offset=0,this.rollbackStartOffset=0;var t=this.direction,n=this._animations;window.requestAnimationFrame((function(){for(var r=0;r<n.length;r++)n[r](0,t)}))}},{key:"reachedToEnd",value:function(){return this.iterations>0&&this.offset>=this.iterations*this.duration}},{key:"restart",value:function(){this._stop(),this.offset=0,this._start()}},{key:"pause",value:function(){this._stop()}},{key:"reverse",value:function(){this.direction=-this.direction}}],[{key:"build",value:function(r,e){return delete r.animationSettings,r.options=ut(r.options,r.root,"5c7f360c"),r.animations.map((function(t){var e=ut(t.s,r.root,"5c7f360c");for(var i in delete t.s,r.animationSettings||(r.animationSettings=n({},e)),e)e.hasOwnProperty(i)&&(t[i]=e[i])})),(r=function(t,n){if(Y=n,!t||!t.root||!Array.isArray(t.animations))return null;for(var r=document.getElementsByTagName("svg"),e=!1,i=0;i<r.length;i++)if(r[i].id===t.root&&!r[i].svgatorAnimation){(e=r[i]).svgatorAnimation=!0;break}if(!e)return null;var o=t.animations.map((function(t){return rt(e,t)})).filter((function(t){return!!t}));return o.length?{element:e,animations:o,animationSettings:t.animationSettings,options:t.options||void 0}:null}(r,e))?{el:r.element,options:r.options||{},player:new t(r.animations,r.animationSettings,r.options)}:null}},{key:"push",value:function(t){return this.build(t)}},{key:"init",value:function(){var t=this,n=window.__SVGATOR_PLAYER__&&window.__SVGATOR_PLAYER__["5c7f360c"];Array.isArray(n)&&n.splice(0).forEach((function(n){return t.build(n)}))}}]),t}();function lt(t){return d(t)+""}function ft(t){var n=arguments.length>1&&void 0!==arguments[1]?arguments[1]:" ";return t&&t.length?t.map(lt).join(n):""}function st(t){if(!t)return"transparent";if(null==t.a||t.a>=1){var n=function(t){return 1===(t=parseInt(t).toString(16)).length?"0"+t:t},r=function(t){return t.charAt(0)===t.charAt(1)},e=n(t.r),i=n(t.g),o=n(t.b);return r(e)&&r(i)&&r(o)&&(e=e.charAt(0),i=i.charAt(0),o=o.charAt(0)),"#"+e+i+o}return"rgba("+t.r+","+t.g+","+t.b+","+t.a+")"}function ct(t){return t?"url(#"+t+")":"none"}!function(){for(var t=0,n=["ms","moz","webkit","o"],r=0;r<n.length&&!window.requestAnimationFrame;++r)window.requestAnimationFrame=window[n[r]+"RequestAnimationFrame"],window.cancelAnimationFrame=window[n[r]+"CancelAnimationFrame"]||window[n[r]+"CancelRequestAnimationFrame"];window.requestAnimationFrame||(window.requestAnimationFrame=function(n){var r=Date.now(),e=Math.max(0,16-(r-t)),i=window.setTimeout((function(){n(r+e)}),e);return t=r+e,i},window.cancelAnimationFrame=window.clearTimeout)}();var ht={f:null,i:function(t,n,r){return 0===t?n:1===t?r:{x:q(t,n.x,r.x),y:q(t,n.y,r.y)}},u:function(t,n){return function(r){var e=n(r);t.setAttribute("rx",lt(e.x)),t.setAttribute("ry",lt(e.y))}}},vt={f:null,i:function(t,n,r){return 0===t?n:1===t?r:{width:q(t,n.width,r.width),height:q(t,n.height,r.height)}},u:function(t,n){return function(r){var e=n(r);t.setAttribute("width",lt(e.width)),t.setAttribute("height",lt(e.height))}}};Object.freeze({M:2,L:2,Z:0,H:1,V:1,C:6,Q:4,T:2,S:4,A:7});var yt={},gt=null;function dt(t){var n=function(){if(gt)return gt;if("object"!==("undefined"==typeof document?"undefined":r(document))||!document.createElementNS)return{};var t=document.createElementNS("http://www.w3.org/2000/svg","svg");return t&&t.style?(t.style.position="absolute",t.style.opacity="0.01",t.style.zIndex="-9999",t.style.left="-9999px",t.style.width="1px",t.style.height="1px",gt={svg:t}):{}}().svg;if(!n)return function(t){return null};var e=document.createElementNS(n.namespaceURI,"path");e.setAttributeNS(null,"d",t),e.setAttributeNS(null,"fill","none"),e.setAttributeNS(null,"stroke","none"),n.appendChild(e);var i=e.getTotalLength();return function(t){var n=e.getPointAtLength(i*t);return{x:n.x,y:n.y}}}function pt(t){return yt[t]?yt[t]:yt[t]=dt(t)}function mt(t,n,r,e){if(!t||!e)return!1;var i=["M",t.x,t.y];if(n&&r&&(i.push("C"),i.push(n.x),i.push(n.y),i.push(r.x),i.push(r.y)),n?!r:r){var o=n||r;i.push("Q"),i.push(o.x),i.push(o.y)}return n||r||i.push("L"),i.push(e.x),i.push(e.y),i.join(" ")}function bt(t,n,r,e){var i=arguments.length>4&&void 0!==arguments[4]?arguments[4]:1,o=mt(t,n,r,e),u=pt(o);try{return u(i)}catch(t){return null}}function wt(t,n,r,e){var i=1-e;return i*i*t+2*i*e*n+e*e*r}function At(t,n,r,e){return 2*(1-e)*(n-t)+2*e*(r-n)}function xt(t,n,r,e){var i=arguments.length>4&&void 0!==arguments[4]&&arguments[4],o=bt(t,n,null,r,e);return o||(o={x:wt(t.x,n.x,r.x,e),y:wt(t.y,n.y,r.y,e)}),i&&(o.a=kt(t,n,r,e)),o}function kt(t,n,r,e){return Math.atan2(At(t.y,n.y,r.y,e),At(t.x,n.x,r.x,e))}function St(t,n,r,e,i){var o=i*i;return i*o*(e-t+3*(n-r))+3*o*(t+r-2*n)+3*i*(n-t)+t}function _t(t,n,r,e,i){var o=1-i;return 3*(o*o*(n-t)+2*o*i*(r-n)+i*i*(e-r))}function Ot(t,n,r,e,i){var o=arguments.length>5&&void 0!==arguments[5]&&arguments[5],u=bt(t,n,r,e,i);return u||(u={x:St(t.x,n.x,r.x,e.x,i),y:St(t.y,n.y,r.y,e.y,i)}),o&&(u.a=jt(t,n,r,e,i)),u}function jt(t,n,r,e,i){return Math.atan2(_t(t.y,n.y,r.y,e.y,i),_t(t.x,n.x,r.x,e.x,i))}function Mt(t,n,r){return t+(n-t)*r}function Pt(t,n,r){var e=arguments.length>3&&void 0!==arguments[3]&&arguments[3],i={x:Mt(t.x,n.x,r),y:Mt(t.y,n.y,r)};return e&&(i.a=Et(t,n)),i}function Et(t,n){return Math.atan2(n.y-t.y,n.x-t.x)}function It(t,n,r){var e=arguments.length>3&&void 0!==arguments[3]&&arguments[3];if(Ft(n)){if(Nt(r))return xt(n,r.start,r,t,e)}else if(Ft(r)){if(n.end)return xt(n,n.end,r,t,e)}else{if(n.end)return r.start?Ot(n,n.end,r.start,r,t,e):xt(n,n.end,r,t,e);if(r.start)return xt(n,r.start,r,t,e)}return Pt(n,r,t,e)}function Rt(t,n,r){var e=It(t,n,r,!0);return e.a=function(t){return arguments.length>1&&void 0!==arguments[1]&&arguments[1]?t+Math.PI:t}(e.a)/m,e}function Ft(t){return!t.type||"corner"===t.type}function Nt(t){return null!=t.start&&!Ft(t)}var Tt=new N;var Bt={f:lt,i:B},qt={f:lt,i:L};function Lt(t,n,r){return t.map((function(t){return function(t,n,r){var e=t.v;if(!e||"g"!==e.t||e.s||!e.v||!e.r)return t;var i=r.getElementById(e.r),o=i&&i.querySelectorAll("stop")||[];return e.s=e.v.map((function(t,n){var r=o[n]&&o[n].getAttribute("offset");return{c:t,o:r=d(parseInt(r)/100)}})),delete e.v,t}(t,0,r)}))}var Ct={gt:"gradientTransform",c:{x:"cx",y:"cy"},rd:"r",f:{x:"x1",y:"y1"},to:{x:"x2",y:"y2"}};function Dt(t,n,e,i,o,u,a,l){return Lt(t,0,l),n=function(t,n,r){for(var e,i,o,u=t.length-1,a={},l=0;l<=u;l++)(e=t[l]).e&&(e.e=n(e.e)),e.v&&"g"===(i=e.v).t&&i.r&&(o=r.getElementById(i.r))&&(a[i.r]={e:o,s:o.querySelectorAll("stop")});return a}(t,i,l),function(i){var o=e(i,t,zt);if(!o)return"none";if("c"===o.t)return st(o.v);if("g"===o.t){if(!n[o.r])return ct(o.r);var u=n[o.r];return function(t,n){for(var r=t.s,e=r.length;e<n.length;e++){var i=r[r.length-1].cloneNode();i.id=Yt(i.id),t.e.appendChild(i),r=t.s=t.e.querySelectorAll("stop")}for(var o=0,u=r.length,a=n.length-1;o<u;o++)r[o].setAttribute("stop-color",st(n[Math.min(o,a)].c)),r[o].setAttribute("offset",n[Math.min(o,a)].o)}(u,o.s),Object.keys(Ct).forEach((function(t){if(void 0!==o[t])if("object"!==r(Ct[t])){var n,e="gt"===t?(n=o[t],Array.isArray(n)?"matrix("+n.join(" ")+")":""):o[t],i=Ct[t];u.e.setAttribute(i,e)}else Object.keys(Ct[t]).forEach((function(n){if(void 0!==o[t][n]){var r=o[t][n],e=Ct[t][n];u.e.setAttribute(e,r)}}))})),ct(o.r)}return"none"}}function zt(t,r,e){if(0===t)return r;if(1===t)return e;if(r&&e){var i=r.t;if(i===e.t)switch(r.t){case"c":return{t:i,v:z(t,r.v,e.v)};case"g":if(r.r===e.r){var o={t:i,s:Vt(t,r.s,e.s),r:r.r};return r.gt&&e.gt&&(o.gt=function(t,n,r){var e=n.length;if(e!==r.length)return T(t,n,r);for(var i=new Array(e),o=0;o<e;o++)i[o]=B(t,n[o],r[o]);return i}(t,r.gt,e.gt)),r.c?(o.c=C(t,r.c,e.c),o.rd=q(t,r.rd,e.rd)):r.f&&(o.f=C(t,r.f,e.f),o.to=C(t,r.to,e.to)),o}}if("c"===r.t&&"g"===e.t||"c"===e.t&&"g"===r.t){var u="c"===r.t?r:e,a="g"===r.t?n({},r):n({},e),l=a.s.map((function(t){return{c:u.v,o:t.o}}));return a.s="c"===r.t?Vt(t,l,a.s):Vt(t,a.s,l),a}}return T(t,r,e)}function Vt(t,n,r){if(n.length===r.length)return n.map((function(n,e){return Gt(t,n,r[e])}));for(var e=Math.max(n.length,r.length),i=[],o=0;o<e;o++){var u=Gt(t,n[Math.min(o,n.length-1)],r[Math.min(o,r.length-1)]);i.push(u)}return i}function Gt(t,n,r){return{o:L(t,n.o,r.o||0),c:z(t,n.c,r.c||{})}}function Yt(t){return t.replace(/-fill-([0-9]+)$/,(function(t,n){return"-fill-"+(+n+1)}))}var $t={fill:Dt,"fill-opacity":qt,stroke:Dt,"stroke-opacity":qt,"stroke-width":Bt,"stroke-dashoffset":{f:lt,i:B},"stroke-dasharray":{f:function(t){var n=arguments.length>1&&void 0!==arguments[1]?arguments[1]:" ";return t&&t.length>0&&(t=t.map((function(t){return d(t,4)}))),ft(t,n)},i:function(t,n,r){var e,i,o,u=n.length,a=r.length;if(u!==a)if(0===u)n=V(u=a,0);else if(0===a)a=u,r=V(u,0);else{var l=(o=(e=u)*(i=a)/function(t,n){for(var r;n;)r=n,n=t%n,t=r;return t||1}(e,i))<0?-o:o;n=G(n,Math.floor(l/u)),r=G(r,Math.floor(l/a)),u=a=l}for(var f=[],s=0;s<u;s++)f.push(d(q(t,n[s],r[s])));return f}},opacity:qt,transform:function(t,n,e,i){if(!(t=function(t,n){if(!t||"object"!==r(t))return null;var e=!1;for(var i in t)t.hasOwnProperty(i)&&(t[i]&&t[i].length?(t[i].forEach((function(t){t.e&&(t.e=n(t.e))})),e=!0):delete t[i]);return e?t:null}(t,i)))return null;var o=function(r,i,o){var u=arguments.length>3&&void 0!==arguments[3]?arguments[3]:null;return t[r]?e(i,t[r],o):n&&n[r]?n[r]:u};return n&&n.a&&t.o?function(n){var r=e(n,t.o,Rt);return Tt.recomposeSelf(r,o("r",n,B,0)+r.a,o("k",n,C),o("s",n,C),o("t",n,C)).toString()}:function(t){return Tt.recomposeSelf(o("o",t,It,null),o("r",t,B,0),o("k",t,C),o("s",t,C),o("t",t,C)).toString()}},r:Bt,"#size":vt,"#radius":ht,_:function(t,n){if(Array.isArray(t))for(var r=0;r<t.length;r++)this[t[r]]=n;else this[t]=n}},Ut=function(t){!function(t,n){if("function"!=typeof n&&null!==n)throw new TypeError("Super expression must either be null or a function");t.prototype=Object.create(n&&n.prototype,{constructor:{value:t,writable:!0,configurable:!0}}),n&&l(t,n)}(u,t);var n,r,i=(n=u,r=f(),function(){var t,e=a(n);if(r){var i=a(this).constructor;t=Reflect.construct(e,arguments,i)}else t=e.apply(this,arguments);return c(this,t)});function u(){return e(this,u),i.apply(this,arguments)}return o(u,null,[{key:"build",value:function(t){var n=h(a(u),"build",this).call(this,t,$t);if(!n)return null;n.el,n.options,function(t,n,r){t.play()}(n.player)}}]),u}(at);return Ut.init(),Ut}));
(function(s,i,o,w){w[o]=w[o]||{};w[o][s]=w[o][s]||[];w[o][s].push(i);})('5c7f360c',{"root":"eqXjz3JeFl71","animations":[{"elements":{"eqXjz3JeFl78":{"transform":{"data":{"a":1,"t":{"x":-47.147063,"y":-96.918797}},"keys":{"o":[{"t":1000,"v":{"x":604.467726,"y":338.371739,"type":"cusp","end":{"x":568.400859,"y":324.505293},"a":-158.96999819253628},"e":[0.42,0,0.615,1.05]},{"t":1500,"v":{"x":592.956429,"y":170.093987,"type":"cusp","start":{"x":573.708111,"y":222.360475},"end":{"x":597.247865,"y":182.950152}}},{"t":1600,"v":{"x":562.296541,"y":203.846967,"type":"cusp","start":{"x":598.259472,"y":178.52196},"end":{"x":541.045643,"y":254.437686}}},{"t":1800,"v":{"x":367.843129,"y":281.119609,"type":"cusp","start":{"x":450.963299,"y":286.423004},"end":{"x":260.24917,"y":281.510313}}},{"t":2200,"v":{"x":196.530893,"y":107.550138,"type":"cusp","start":{"x":191.324748,"y":263.151597},"end":{"x":248.60352,"y":-25.461318}}},{"t":2500,"v":{"x":457.411218,"y":150.924657,"type":"cusp","start":{"x":427.359332,"y":-20.096108},"end":{"x":435.882181,"y":222.017432}}},{"t":2800,"v":{"x":220.541394,"y":267.454049,"type":"cusp","start":{"x":416.45563,"y":310.725097}}},{"t":3200,"v":{"x":76.421061,"y":130.932635,"type":"cusp","start":{"x":98.670295,"y":209.513165},"a":-105.80890075863854}}],"r":[{"t":1500,"v":-7.964771},{"t":1600,"v":141.967583},{"t":3200,"v":154.510803}],"s":[{"t":0,"v":{"x":0,"y":0}},{"t":900,"v":{"x":0,"y":0}},{"t":1000,"v":{"x":0.1,"y":0.1},"e":[0.42,0,0.58,1]},{"t":1500,"v":{"x":0.5,"y":0.5}},{"t":3200,"v":{"x":1,"y":1}}]}}},"eqXjz3JeFl712":{"transform":{"data":{"o":{"x":322.372498,"y":111.396816,"type":"corner"},"t":{"x":-322.372497,"y":-111.396816}},"keys":{"s":[{"t":3000,"v":{"x":0,"y":0}},{"t":5000,"v":{"x":1,"y":1}}]}},"opacity":[{"t":3000,"v":0},{"t":5000,"v":1}]},"eqXjz3JeFl716":{"transform":{"data":{"t":{"x":-720.355011,"y":-246.940002}},"keys":{"o":[{"t":0,"v":{"x":1253.264801,"y":246.940005,"type":"corner"}},{"t":200,"v":{"x":1171.048268,"y":246.940005,"type":"corner"}},{"t":400,"v":{"x":1086.706817,"y":246.31702,"type":"corner"}},{"t":600,"v":{"x":1018.016357,"y":245.940005,"type":"corner"}},{"t":800,"v":{"x":892.80843,"y":246.940005,"type":"corner"}},{"t":1000,"v":{"x":723.127387,"y":246.940005,"type":"corner"}}]}}},"eqXjz3JeFl717":{"transform":{"data":{"t":{"x":-742.390999,"y":-343.2685}},"keys":{"o":[{"t":0,"v":{"x":742.391022,"y":343.268494,"type":"corner"}},{"t":400,"v":{"x":742.123001,"y":341.820866,"type":"corner"}},{"t":600,"v":{"x":645.396329,"y":344.2685,"type":"corner"}},{"t":800,"v":{"x":734.91697,"y":344.172617,"type":"corner"}},{"t":1000,"v":{"x":641.196977,"y":342.89151,"type":"corner"}}]}}},"eqXjz3JeFl720":{"transform":{"data":{"t":{"x":-639.011017,"y":-343.068497}},"keys":{"o":[{"t":0,"v":{"x":650.420791,"y":342.266828,"type":"corner"}},{"t":100,"v":{"x":650.420791,"y":342.266828,"type":"corner"}},{"t":200,"v":{"x":737.568082,"y":339.649419,"type":"corner"}},{"t":400,"v":{"x":645.396352,"y":343.995489,"type":"corner"}},{"t":600,"v":{"x":732.3575,"y":341.097064,"type":"corner"}},{"t":800,"v":{"x":642.662,"y":341.963923,"type":"corner"}},{"t":1000,"v":{"x":741.720993,"y":341.483291,"type":"corner"}}]}}},"eqXjz3JeFl723":{"transform":{"data":{"a":1,"t":{"x":-654.9,"y":-269.104}},"keys":{"o":[{"t":1000,"v":{"x":654.900001,"y":269.104001,"type":"corner","a":0},"e":[0.42,0,0.58,1]},{"t":1500,"v":{"x":654.900001,"y":269.104001,"type":"corner"}},{"t":3000,"v":{"x":654.900001,"y":269.104001,"type":"corner","a":0}}],"r":[{"t":1000,"v":-85.500003,"e":[0.42,0,0.58,1]},{"t":1300,"v":11.183204},{"t":3000,"v":-81.587609}]}}},"eqXjz3JeFl753":{"transform":{"data":{"o":{"x":314.477715,"y":204.049874,"type":"corner"},"t":{"x":-314.477714,"y":-204.049873}},"keys":{"s":[{"t":3000,"v":{"x":0,"y":0}},{"t":5000,"v":{"x":1,"y":1}}]}},"opacity":[{"t":3000,"v":0},{"t":5000,"v":1}]}},"s":"MWDA1M2IzNWE5Y2FkYWVE5OWFjV2ExYTdhNjVThNzI2ZDY4Njg2ODY0QNWE5Y2ExYWE5ZDliYXWNWYTFhN2E2NWE3MjMY5UDY0NWFhMWFjOWROhYTk5YWNhMWE3YTZhNYjVhNzI2OTY0NWE5ZYWExYTRhNDVhNzI2OTRY0NWE5OWE0T2FjOWRHhYWE2OTlhYzlkQzVhXQTcyOWU5OWE0YWJQOQWQ2NDVhYWJhODlkOWMQ5YzVhNzI2OWI1"}],"options":"MJDAxMDg4STJmODA4MTMZlN2Y4MTJmNDcyZjcH5N2M2ZTcxMmY4YQ|"},'__SVGATOR_PLAYER__',window)]]></script></svg>