<svg id="man" class="animate"  xmlns="http://www.w3.org/2000/svg" xmlns:xlink="http://www.w3.org/1999/xlink" viewBox="0 0 930.89342 605.00262" shape-rendering="geometricPrecision" text-rendering="geometricPrecision" width="930.89342" height="605.00262" style="background-color:transparent"><style><![CDATA[#man-plane_to {animation: man-plane_to__to 5000ms linear 1 normal forwards}@keyframes man-plane_to__to { 0% {offset-distance: 0%} 50% {offset-distance: 0%} 52% {offset-distance: 1.257741%} 54% {offset-distance: 2.88928%} 58% {offset-distance: 8.14062%} 60% {offset-distance: 10.829751%} 66% {offset-distance: 37.386949%} 70% {offset-distance: 53.257398%} 76% {offset-distance: 64.536111%} 78% {offset-distance: 69.924397%} 84% {offset-distance: 81.293117%} 94% {offset-distance: 100%} 100% {offset-distance: 100%}} #man-plane_tr {animation: man-plane_tr__tr 5000ms linear 1 normal forwards}@keyframes man-plane_tr__tr { 0% {transform: rotate(21.231473deg)} 50% {transform: rotate(21.231473deg)} 60% {transform: rotate(-43.991566deg)} 64% {transform: rotate(-3.881469deg)} 66% {transform: rotate(57.684371deg)} 70% {transform: rotate(168.544353deg)} 76% {transform: rotate(252.577485deg)} 80% {transform: rotate(309.100342deg)} 84% {transform: rotate(345.358875deg)} 94% {transform: rotate(384.727803deg)} 100% {transform: rotate(384.727803deg)}} #man-plane_ts {animation: man-plane_ts__ts 5000ms linear 1 normal forwards}@keyframes man-plane_ts__ts { 0% {transform: skewX(-0.09959deg) skewY(0deg) scale(0,0)} 50% {transform: skewX(-0.09959deg) skewY(0deg) scale(0,0)} 58% {transform: skewX(-0.09959deg) skewY(0deg) scale(0.5,0.5)} 94% {transform: skewX(-0.09959deg) skewY(0deg) scale(1,1)} 100% {transform: skewX(-0.09959deg) skewY(0deg) scale(1,1)}} #man-plane {animation: man-plane_c_o 5000ms linear 1 normal forwards}@keyframes man-plane_c_o { 0% {opacity: 1} 94% {opacity: 1} 100% {opacity: 0}} #man-number_ts {animation: man-number_ts__ts 5000ms linear 1 normal forwards}@keyframes man-number_ts__ts { 0% {transform: translate(237.101681px,244.318949px) scale(0,0)} 60% {transform: translate(237.101681px,244.318949px) scale(0,0)} 100% {transform: translate(237.101681px,244.318949px) scale(0.8,0.8)}} #man-number {animation: man-number_c_o 5000ms linear 1 normal forwards}@keyframes man-number_c_o { 0% {opacity: 0} 60% {opacity: 0} 100% {opacity: 1}} #man-year_ts {animation: man-year_ts__ts 5000ms linear 1 normal forwards}@keyframes man-year_ts__ts { 0% {transform: translate(235.995789px,335.486663px) scale(0,0)} 60% {transform: translate(235.995789px,335.486663px) scale(0,0)} 100% {transform: translate(235.995789px,335.486663px) scale(1,1)}} #man-year {animation: man-year_c_o 5000ms linear 1 normal forwards}@keyframes man-year_c_o { 0% {opacity: 0} 60% {opacity: 0} 100% {opacity: 1}} #man-man_to {animation: man-man_to__to 5000ms linear 1 normal forwards}@keyframes man-man_to__to { 0% {transform: translate(492.174922px,233.950135px)} 10% {transform: translate(492.174922px,233.950135px);animation-timing-function: cubic-bezier(0,0,0.58,1)} 50% {transform: translate(-34.6046px,235.016px)} 100% {transform: translate(-34.6046px,235.016px)}} #man-hand_tr {animation: man-hand_tr__tr 5000ms linear 1 normal forwards}@keyframes man-hand_tr__tr { 0% {transform: translate(654.512px,269.2925px) rotate(-93.376601deg)} 50% {transform: translate(654.512px,269.2925px) rotate(-93.376601deg);animation-timing-function: cubic-bezier(0.42,0,1,1)} 58% {transform: translate(654.512px,269.2925px) rotate(0deg)} 100% {transform: translate(654.512px,269.2925px) rotate(0deg)}} #man-leg1_to {animation: man-leg1_to__to 5000ms linear 1 normal forwards}@keyframes man-leg1_to__to { 0% {transform: translate(742.391022px,343.268494px)} 14% {transform: translate(742.391022px,343.268494px)} 20% {transform: translate(640.685875px,343.268494px)} 30% {transform: translate(741.720992px,342.996504px)} 40% {transform: translate(642.9px,344.205057px)} 50% {transform: translate(741.720992px,343.891503px)} 100% {transform: translate(741.720992px,343.891503px)}} #man-leg2_to {animation: man-leg2_to__to 5000ms linear 1 normal forwards}@keyframes man-leg2_to__to { 0% {transform: translate(639.011017px,343.068481px)} 14% {transform: translate(639.011017px,343.068481px)} 20% {transform: translate(742.233497px,343.646017px)} 30% {transform: translate(642.9px,342.996473px)} 40% {transform: translate(741.720992px,342.996473px)} 50% {transform: translate(639.011017px,343.068481px)} 100% {transform: translate(639.011017px,343.068481px)}} #man-path1089 {animation: man-path1089_c_o 5000ms linear 1 normal forwards}@keyframes man-path1089_c_o { 0% {opacity: 1} 98% {opacity: 1} 100% {opacity: 0}}]]></style><defs><linearGradient id="man-path981-fill" x1="3231.229193" y1="232.57814" x2="2302.618049" y2="555.153607" spreadMethod="pad" gradientUnits="userSpaceOnUse" gradientTransform="translate(0 0)"><stop id="man-path981-fill-0" offset="0%" stop-color="#afabe0"/><stop id="man-path981-fill-1" offset="24.81%" stop-color="#bba9e0"/><stop id="man-path981-fill-2" offset="65.71%" stop-color="#caa8e0"/><stop id="man-path981-fill-3" offset="100%" stop-color="#cfa7e0"/></linearGradient><linearGradient id="man-path983-fill" x1="3169.094924" y1="98.509906" x2="2240.48378" y2="421.089759" spreadMethod="pad" gradientUnits="userSpaceOnUse" gradientTransform="translate(0 0)"><stop id="man-path983-fill-0" offset="0%" stop-color="#afabe0"/><stop id="man-path983-fill-1" offset="24.81%" stop-color="#bba9e0"/><stop id="man-path983-fill-2" offset="65.71%" stop-color="#caa8e0"/><stop id="man-path983-fill-3" offset="100%" stop-color="#cfa7e0"/></linearGradient>    <mask id="mymask">
      <path class="path" fill="none" stroke="#fff" stroke-width="2"
            d="m724.2 154c-34.076 51.721-89.303 53.8-157.1 53.8h-9c-49.4 0-89.4-40-89.4-89.4s40-89.4 89.4-89.4 89.4 40 89.4 89.4-40 89.4-89.4 89.4h-1.9c-79.1 0-140.82-45.595-169.22-99.995"/>
    </mask></defs><rect id="man-rect979" width="929.374" height="603.483" rx="0" ry="0" transform="translate(0 1.51962)" fill="#1d0df7" stroke="#130e15" stroke-width="1.5194" stroke-miterlimit="10"/><g id="man-sity" transform="matrix(.793411 0 0 0.916552-711.722 69.3475)"><path id="man-path981" d="M1792.5,473h-3.6v-209.3h-77.8v209.3h-.5v-235.5h-96.6v235.5h-1.5v-209.3h-73.9v209.3h-1.5v-166.1h-54.5v63.1h-10.8l-19.1,35.5h-35.8v3.5h9.1c2.2,0,4.1.7,5.7,2.1h3v46.9h3.9v1.3h-1.6v13.7h-5.9v-13.7h-1.6v-1.3h3.9v-15h-2.1v-8h2.1v-3.9h-2.1v-8h2.1v-4h-2.1v-6.7c-1.5-1.5-3.2-2.2-5.3-2.2h-1.6v.8h2.3v8h-3.5v-6.3h-6.3v59.3h-3v-59.3h-2v-.7c0-.6.2-1.2.6-1.8.4-.5.8-.9,1.4-1.1v-2.6h-21.4v65.4h-4.6v-105.3L1368,345v127.1h-1.6v-33.9h-15.8v34.8h-.2v-96.3h-31.4v81.4h-3.1v-40.3c0-2.4-.9-4.5-2.6-6.2-1.1-1.1-2.3-1.8-3.7-2.2v1.2c-.6-.2-1.2-.2-1.8-.2h-.7v.2h-1v2.4h-12.5v-.7c0-.9.3-1.6.9-2.3.3-.3.6-.5,1-.7v-3.9h3.4v3.7h4.6v-3.7h3.5v3.7h.7c1,0,1.9.2,2.8.5v-6.2h-48.3v69.6h-1.3v-37.9l-.6,1.2.6-2.5v-65h-41.2v65l.3,1.3h-.3v37.9h-1.3v-67.2h-12.3v67.2h-.9v-54.4l-16.9,5.7v48.7h-9.6v-13.8h1.6v-1.3h-3.9v-40.3c0-2.4-.9-4.5-2.6-6.2-1.1-1.1-2.4-1.8-3.7-2.3-.8-.2-1.6-.3-2.5-.3h-10.9c-.5,0-.9.1-1.3.3s-.7.4-1,.7c-.6.6-1,1.4-1,2.2v.7h12.5v-2.5h1.6c.9,0,1.7.1,2.5.4c1,.4,2,1,2.8,1.8c1.5,1.5,2.2,3.2,2.2,5.3v40.3h-3.9v1.3h1.6v13.7h-4.1v-30.2h-19.4v30.2h-1v-47.1h-21.8v47.1h-.9v-30.2h-20.6v17.6h-17.6v-17.6h-14.5v30.2h-10.9v1h730.4v-1Zm-557.3-14.1h-3.4v-8.8h3.4Zm4.9-61.8h-3.4v-8.8h3.4Zm8,61.8h-3.4v-8.8h3.4Zm6.4-27.5h-3.4v-8.8h3.4Zm14,17.9h-3.4v-5.2h3.4Zm0-31.1h-3.4v-5.2h3.4Zm0-7.7h-3.4v-5.2h3.4Zm15.8,38.8h-3.5v-5.2h3.5Zm0-15.4h-3.5v-5.2h3.5Zm0-8h-3.5v-5.2h3.5Zm7-7.7h-3.4v-5.2h3.4Zm0-7.7h-3.4v-5.2h3.4Zm7.7,38.8h-3.4v-5.2h3.4Zm0-15.4h-3.4v-5.2h3.4Zm8.1,15.4h-3.5v-5.2h3.5Zm7.5,8.8h-3.9v1.3h1.6v13.5h-1.3v-.5c0,.2-.1.4-.1.7h-.4v-61.9c.7.4,1.3.8,1.9,1.4c1.5,1.5,2.2,3.2,2.2,5.3ZM1319,473h-.8v-13.7h.8Zm10.1-45.6h-5.2v-3.5h5.2Zm0-15.8h-5.2v-3.4h5.2Zm0-7h-5.2v-3.5h5.2Zm0-15.8h-5.2v-3.4h5.2Zm7.8,38.6h-5.2v-3.5h5.2Zm0-8.1h-5.2v-3.4h5.2Zm0-7.7h-5.2v-3.4h5.2Zm0-7h-5.2v-3.5h5.2Zm0-15.8h-5.2v-3.4h5.2Zm7.6,38.6h-5.2v-3.5h5.2Zm0-8.1h-5.2v-3.4h5.2Zm0-14.7h-5.2v-3.5h5.2Zm0-8.1h-5.2v-3.4h5.2Zm82.1,46.6h-3.5v-8h3.5Zm0-11.9h-3.5v-8h3.5Zm15.8,11.9h-3.4v-8h3.4Zm0-11.9h-3.4v-8h3.4Zm0-12h-3.4v-8h3.4Zm55,53.8h-8.3v-150h8.3Zm11.3,0h-8.3v-150h8.3Zm11.4,0h-8.3v-150h8.3Zm11.3,0h-8.3v-150h8.3Zm65.8-177.8l.4-1.4c-.4,4.6-.7,9.1-.7,13.5-.1-4,.1-8,.3-12.1Zm-27.6,163.4h-1.6v14.1h-5.9v-14.1h-1.6v-1.3h3.9v-40.3c0-2.1-.7-3.8-2.2-5.3s-3.3-2.2-5.3-2.2h-1.6v2.5h-12.5v-.7c0-.9.3-1.6,1-2.2.3-.3.6-.5,1-.7s.8-.3,1.3-.3h10.9c2.4,0,4.5.9,6.2,2.6s2.6,3.8,2.6,6.2v40.3h3.9v1.4Zm1.2-71.9h-11.5v-26.7h11.5Zm0-40h-11.5v-26.7h11.5Zm26.9,77.2h-11.5v-26.6h11.5Zm0-37.2h-11.5v-26.7h11.5Zm83.5-134.8c0-.1,0-.2.1-.2v-.2h14.1v.8h-13.4v13.8h11.4v39.1h-11.4v13.3h11.4v26.7h-11.4v13.3h11.4v26.6h-11.4v13h11.4v26.7h-11.5v-1.5h-.7Zm-26.8-.4h14.2v.8h-13.4v171h-.8Zm1.8,133.6v-26.6h11.5v26.6Zm11.5,13v26.7h-11.5v-26.7Zm-11.5-52.9v-26.7h11.5v26.7Zm0-40.1v-39.1h11.5v39.1Zm-27.9-53.6h14.2v.8h-13.4v171h-.8v-171h-.1v-.8Zm1,133.6v-26.6h11.5v26.6Zm11.5,13v26.7h-11.5v-26.7Zm-11.5-52.9v-26.7h11.5v26.7Zm0-40.1v-39.1h11.5v39.1ZM1706,473h-85.5v-1.7h6.6v-4.1h10.3v-33.4h15.4v33.4h21v-33.4h15.4v33.4h11.2v4.1h5.6Zm-48.3-12.8v-26.7h11.5v26.7ZM1617.5,432l7.6-5h74.2l7.6,5Zm126.7-73.5h11.5v26.7h-11.5Zm-13.6,66.2h-11.5v-26.7h11.5Zm0-79.5h-11.5v-26.7h11.5Zm27.7,66.9h-12.5v-2.5h-1.6c-2.1,0-3.8.7-5.3,2.2s-2.2,3.2-2.2,5.3v40.3h3.9v1.3h-1.6v14.3h-5.9v-14.4h-1.6v-1.3h3.9v-40.3c0-2.4.9-4.5,2.6-6.2s3.8-2.6,6.2-2.6h10.9c.5,0,.9.1,1.3.3s.7.4,1,.7c.6.6,1,1.4,1,2.2v.7Z" fill="url(#man-path981-fill)" stroke-width="1.17265"/><g id="man-g987"><g id="man-g985" opacity="0.9765"><path id="man-path983" d="M1628,212v25.1h67.8v-25.1h-67.8m46.1-22.7l.3-.3c.4-.3.8-1,1.1-2c.4-1,.6-1.9.7-2.7h-.2c-.6,0-2,.3-3.9.7h-16.2c-1.9,0-3.6.4-5.2,1.2-1.1.6-2,1.2-2.4,1.8l.2,1l2.2-.7c1.1-.3,2.1-.5,2.9-.5h1.6v13.6c0,2.7-.2,4.6-.5,5.6-1.8,1.5-2.9,2.6-3.6,3.3l.6.9c1.4,0,2.7-.2,3.9-.5c1.4-.4,2.3-.8,2.8-1.3.6-1.1.9-3.9.9-8.3v-13.2h5.5v19.8c0,1.1.4,1.9,1.1,2.6.8.7,1.9,1,3.2,1c2.1,0,3.8-.5,5.1-1.6l.3-1.3c-2.9-.2-4.5-.7-4.9-1.5v-19h1.6c1,.3,1.8.8,2.9,1.4m15.8-11.4l-.1-.2-1.9.8-1.8-.3c-.6-.1-1.2-.2-1.8-.2-1.3,0-2.3.3-3.2,1-.8.7-1.3,1.5-1.3,2.5c0,1.1.4,1.9,1.3,2.5-.4.3-.7.6-1,1-.4.4-.6.7-.6.9c0,.5.2,1,.6,1.5s.8.8,1.3,1l-1.6,1.5c-.3.3-.5.7-.5,1c0,.7.4,1.2,1.1,1.6s1.7.7,2.9.7c1.5,0,2.9-.4,4.1-1.3c1.5-.9,2.2-2,2.2-3.3c0-.4-.1-.8-.3-1.2-.1-.1-.2-.3-.3-.4-.4-.5-.9-.7-1.5-.8-1.3-.1-3-.1-5.1,0-.2,0-.4-.2-.7-.4-.2-.2-.3-.5-.3-.7s.1-.5.4-.8c.6.3,1.4.5,2.1.5c1.3,0,2.3-.3,3.1-1c.8-.6,1.1-1.5,1.1-2.6c0-.8-.2-1.4-.7-1.8l1.5-.1l1-1.4m-5.7.9c.6,0,1,.3,1.3,1c.2.5.3,1,.3,1.7s-.1,1.3-.3,1.7c-.3.6-.7.8-1.2.8s-.9-.3-1.2-.9c-.3-.5-.4-1.1-.4-1.7c0-.7.1-1.2.3-1.7.2-.6.6-.9,1.2-.9m-1.7,12.6c-.6-.4-.8-.9-.8-1.5c0-.4.2-.8.6-1.2.3-.1.8-.2,1.8-.2c1.1,0,1.9,0,2.4.1.7.2,1.1.5,1.1,1.1c0,.7-.3,1.2-.9,1.6s-1.3.5-2.1.5c-.9.2-1.5,0-2.1-.4Z" fill="url(#man-path983-fill)" stroke-width="1.17265"/></g></g></g><g id="man-plane_to" style="offset-path:path('M430.15014,495.394964C425.426257,486.482314,422.922358,492.519788,417.226514,486.644546C413.8086,482.543473,407.722736,483.177054,406.099838,469.742532C387.159736,454.526313,407.279992,430.455822,412.284503,406.421197Q410.984025,395.888263,415.988536,371.853638C244.935626,374.930511,142.162494,395.87799,132.410555,267.785523C124.552615,180.502325,243.89163,143.458239,276.209636,169.974613C340.058225,202.00733,348.956924,250.098787,341.034196,288.035664C334.959046,306.42727,316.69106,334.859761,305.031383,347.54279C264.724259,379.112305,229.644909,383.146394,167.818234,351.386433C119.174904,309.09158,116.833076,312.856322,17.212172,162.58138');offset-rotate:0deg"><g id="man-plane_tr" transform="rotate(21.231473)"><g id="man-plane_ts" transform="skewX(-0.09959) skewY(0) scale(0,0)"><g id="man-plane" transform="translate(-25.783129,-91.096144)"><path id="man-path991" d="M1.1393,69.348c.7443,1.6821,1.519,3.3946,2.2329,5.0768c2.5519,5.7183,5.1139,11.422,7.6859,17.11c1.6253,3.5916,3.281,7.1681,4.8911,10.76c2.2582,4.991,4.5012,9.982,6.7291,14.973l4.5569,10.153c2.2936,5.077,4.5569,10.154,6.8505,15.155.1671.379.3798.758.638,1.242l4.7695-6.334c3.2506-4.44,6.486-8.881,9.7518-13.291.4912-.883,1.1221-1.681,1.8684-2.364.0122-.125.0429-.248.0911-.364l6.3645-8.683c0-.425-.3494-.576-.638-.803l-9.9189-7.669c-4.9366-3.834-9.8429-7.6831-14.78-11.502l-12.592-9.699-17.347-13.397-.18228-.1819c-.06999-.0455-.12658-.1088-.16396-.1834s-.05417-.1577-.04869-.2409h-.37975c-.03263.073-.08599.1349-.15347.178s-.14615.0655-.22627.0645Z" fill="#fff" stroke="#272c3e" stroke-width="1.38214" stroke-miterlimit="10"/><path id="man-path993" d="M72.151,107.51l14.309-5.486l12.486-4.7279c-1.1696-.3789-2.0962-.7123-3.0379-.9851l-12-3.4855-13.853-4.016-11.514-3.425-13.959-4.0614c-4.1771-1.2275-8.3543-2.4854-12.547-3.6977l-19.109-5.5618c-3.5999-1.0457-7.1847-2.1216-10.769-3.1825-.1519,0-.31899,0-.47088-.0757l.22784.3485l12.03,6.5014l8.2936,4.5463l26.719,14.579l16.04,8.7746l7.1543,3.955Z" fill="#fff" stroke="#272c3e" stroke-width="1.38214" stroke-miterlimit="10"/><path id="man-path995" d="M72.151,108.51l-7.1544-3.955-16.04-8.775-10.526-5.7436-16.207-8.8654L13.93,76.6246L1.9,70.1384c-.00549.0832.01132.1663.04869.2409s.09396.1379.16396.1834l.18228.1819l17.286,13.366l12.592,9.6989c4.9367,3.819,9.8429,7.6681,14.78,11.502l9.9189,7.669c.2886.227.6379.378.6379.803.1975.121.2127.318.2431.515.4405,2.849.9113,5.698,1.3518,8.547.5367,3.274,1.0431,6.542,1.519,9.805c1.7316-3.197,3.1139-6.577,4.7392-9.835.5316-1.061.9569-2.182,1.519-3.258c1.7518-3.688,3.5088-7.371,5.2708-11.048Z" fill="#fff" stroke="#272c3e" stroke-width="1.38214" stroke-miterlimit="10"/></g></g></g></g><g id="man-number_ts" transform="translate(237.101681,244.318949) scale(0,0)"><g id="man-number" transform="translate(-322.006722,-117.706181)" opacity="0"><path id="man-path999" d="M246.15,152.49l40.1-53.042c1.991-2.5629,3.616-5.3883,4.831-8.3957c1.069-2.5622,1.646-5.3023,1.701-8.0774v-.1515c.103-1.6649-.16-3.3321-.771-4.8847-.612-1.5525-1.557-2.9526-2.768-4.102-2.844-2.283-6.443-3.4186-10.086-3.1825-1.868-.0858-3.733.2116-5.481.8737s-3.341,1.6748-4.681,2.9756c-2.799,3.0118-4.458,6.9021-4.694,11.002h-19.594c.535-6.2768,2.443-12.36,5.589-17.822c2.815-4.7726,6.893-8.6791,11.788-11.29c5.223-2.6801,11.034-4.0187,16.906-3.8948c6.226-.1555,12.409,1.0659,18.106,3.5765c4.786,2.1761,8.782,5.7755,11.438,10.305c2.758,4.9836,4.123,10.616,3.949,16.306-.004,4.8864-.889,9.7321-2.613,14.306-1.79,4.8267-4.272,9.3697-7.367,13.488l-31.169,40.66h41.787v18.185h-66.971v-16.836Z" fill="#fff" stroke-width="1.24685"/><path id="man-path1001" d="M340.92,161.87c-5.773-5.779-8.659-13.862-8.659-24.248v-52.511c0-10.396,2.897-18.478,8.689-24.247s14.192-8.6432,25.2-8.623c11.058,0,19.468,2.8642,25.23,8.5927s8.648,13.811,8.658,24.247v52.587c0,10.396-2.896,18.478-8.689,24.247-5.792,5.769-14.192,8.648-25.199,8.638-11.059,0-19.469-2.894-25.23-8.683Zm36.455-14.034c2.4-3.03,3.585-7.304,3.585-12.926v-47.01c0-5.6224-1.185-9.9415-3.585-12.927s-6.076-4.5464-11.241-4.5464c-5.164,0-8.855,1.5155-11.24,4.5464s-3.585,7.3045-3.585,12.927v46.979c0,5.623,1.185,9.927,3.585,12.927c2.4,3.001,6.076,4.547,11.24,4.547c5.165,0,8.871-1.516,11.256-4.517Z" fill="#fff" stroke-width="1.24685"/></g></g><g id="man-year_ts" transform="translate(235.995789,335.486663) scale(0,0)"><g id="man-year" transform="translate(-316.014003,-212.900527)" opacity="0"><path id="man-path1005" d="M256.51,222.88c21.751-4.198,46.252-49.45,75.948-38.735-23.27,1.985-59.24,61.194-3.645,33.931c2.476-1.303,2.202-.834.273.197-38.627,20.125-38.825-6.062-20.719-20.944c6.279-5.805,13.617-10.353,21.615-13.396-29.392-7.063-51.083,34.689-73.047,39.22-2.947.682-7.595.954-7.078-2.273.471-1.304,1.777-.47.82-.137-.638.288-1.671,3.546,5.833,2.137Z" fill="#fff" stroke-width="1.1113"/><path id="man-path1007" d="M338.91,213.47c1.641,1.304-2.476,2.955-5.787,3.85-5.848,6.243,14.931,1.788,17.559.136.76-.273.334,0,.198.212-1.99,1.637-25.397,6.789-19.884-1.379c2.886-3.501,6.213-4.122,7.914-2.819Zm-.349.137c-1.519-.819-2.886.621-5.089,3.303c4.603-1.712,6.122-2.621,5.089-3.227Z" fill="#fff" stroke-width="1.1113"/><path id="man-path1009" d="M359.01,214.09c-.759-.485-3.782-2.136-9.296,5.214-.608.894-3.038.621-2.339-.197c1.169-1.379,3.797-3.168,3.721-5.638l.957-.076c0,.152-.137.697-.137,1.107c3.722-2.546,8.674-.955,8.4.075c1.109-.485,5.575-2.409,6.957-.136c1.246,2.046-6.076,5.622-2.749,6.653c2.4.758,6.197-.819,13.974-3.713.41-.136.957,0,.41.212-8.323,2.743-11.285,4.319-13.974,3.849-2.203-.409-2.962-1.106-2.962-1.924c0-2.001,4.678-4.547,4.208-5.289-.897-1.167-4.694.136-5.514,1.091-.821.955-1.656,2.061-3.859,4.334-.759.485-2.202.349-2.126-.212c1.23-1.925,5.164-4.804,4.329-5.35Z" fill="#fff" stroke-width="1.1113"/></g></g><g id="man-man_to" transform="translate(492.174922,233.950135)"><g id="man-man" transform="scale(0.756002,0.755883) translate(0,0)"><g id="man-hand_tr" transform="translate(654.512,269.2925) rotate(-93.376601)"><g id="man-hand" transform="translate(-654.512,-269.2925)"><path id="man-path1013" d="M594.94,230.93l-12.957-8.138-2.674,6.668l12.441,7.805" fill="#fff" stroke-width="1.32285"/><path id="man-path1015" d="M595.74,230.96l-12.623-7.82-2.598,6.41l12.107,7.502" fill="none" stroke="#272c3e" stroke-width="0.793711" stroke-miterlimit="10"/><path id="man-path1017" d="M654.9,266.3l-60.212-37.28-3.827,7.486l52.814,32.598" fill="#272c3e" stroke-width="1.32285"/><path id="man-path1019" d="M654.9,266.3l-60.212-37.28-3.827,7.486l52.814,32.598" fill="none" stroke="#272c3e" stroke-width="1.60065" stroke-miterlimit="10"/></g></g><g id="man-leg1_to" transform="translate(742.391022,343.268494)"><g id="man-leg1" transform="translate(-742.391022,-343.268494)"><path id="man-path1023" d="M726.89,361.06h14.658l9.828-3.334v3.334h6.516v-35.583h-10.374l3.053,24.248Z" fill="#272c3e" stroke-width="1.32285"/><path id="man-path1025" d="M726.89,361.06h14.658l9.828-3.334v3.334h6.516v-35.583h-10.374l3.053,24.248Z" fill="none" stroke="#272c3e" stroke-width="3.39973" stroke-miterlimit="10"/></g></g><path id="man-path1029" d="M688.28,326.1v-66.15" fill="none" stroke="#272c3e" stroke-width="1.69325" stroke-miterlimit="10"/><path id="man-path1031" d="M770.24,293.3l-9.251,6.683-3.767-4.971l9.008-6.501" fill="#fff" stroke-width="1.32285"/><path id="man-path1033" d="M770.24,293.3l-9.251,6.683-3.767-4.971l9.008-6.501" fill="none" stroke="#272c3e" stroke-width="0.793711" stroke-miterlimit="10"/><path id="man-path1035" d="M793.14,267.37h-32.461v-7.82h56.521l-46.511,34.068-4.724-6.274Z" fill="#272c3e" stroke-width="1.32285"/><path id="man-path1037" d="M793.14,267.37h-32.461v-7.82h56.521l-46.511,34.068-4.724-6.274Z" fill="none" stroke="#272c3e" stroke-width="1.60065" stroke-miterlimit="10"/><path id="man-path1039" d="M644.47,255.6l-1.808,66.529l116.78,3.076l1.807-66.528" fill="#fff" stroke-width="1.32285"/><path id="man-path1041" d="M644.47,255.6l-1.808,66.529l116.78,3.076l1.807-66.528" fill="none" stroke="#272c3e" stroke-width="1.60065" stroke-miterlimit="10"/><path id="man-path1043" d="M643.4,276.89l-2.203,49.314l118.71-.485l1.276-45.722-28.694-8.926-44.612,26.218-24.865-28.567-19.61,8.168Z" fill="#272c3e" stroke-width="1.32285"/><path id="man-path1045" d="M643.95,258.69h116.43v-125.44h-87.31L643.952,258.69Z" fill="#fff" stroke-width="1.32285"/><path id="man-path1047" d="M643.95,258.69h116.43v-125.44h-87.31L643.952,258.69Z" fill="none" stroke="#272c3e" stroke-width="1.60065" stroke-miterlimit="10"/><path id="man-path1049" d="M709.3,132.82l-20.734,90.337h40.951v36.038" fill="none" stroke="#272c3e" stroke-width="0.793711" stroke-miterlimit="10"/><path id="man-path1051" d="M748.72,233.96l-18.896,4.774m-70.1-68.423h12.485Zm104.14,5.486l-28.86,10.76Zm-72.911-.667l25.823,7.82Zm-9.068-11.169c1.748.045,3.444.603,4.875,1.605c1.431,1.001,2.535,2.402,3.172,4.026s.78,3.4.411,5.105c-.37,1.705-1.235,3.263-2.488,4.48-1.253,1.216-2.837,2.037-4.555,2.359-1.719.323-3.494.132-5.104-.547-1.61-.68-2.984-1.818-3.949-3.273-.965-1.454-1.478-3.16-1.476-4.905.016-1.178.265-2.341.731-3.424.467-1.082,1.143-2.062,1.989-2.884s1.847-1.47,2.944-1.906s2.269-.652,3.45-.636Zm44.05,13.094c1.744.047,3.434.607,4.861,1.608c1.426,1.001,2.525,2.399,3.16,4.02.634,1.621.775,3.392.406,5.092-.369,1.701-1.233,3.255-2.482,4.469-1.25,1.213-2.831,2.033-4.545,2.355-1.713.322-3.484.133-5.091-.543-1.607-.677-2.978-1.81-3.943-3.26-.964-1.45-1.479-3.151-1.479-4.891.015-1.181.265-2.347.733-3.431.469-1.085,1.147-2.066,1.997-2.888.849-.823,1.853-1.47,2.954-1.904c1.1-.434,2.276-.647,3.46-.627Z" fill="none" stroke="#272c3e" stroke-width="1.60065" stroke-miterlimit="10"/><path id="man-path1053" d="M749.34,151.46l-35.043,12.745l2.385,5.471l33.736-15.73Z" fill="#272c3e" stroke-width="1.32285"/><path id="man-path1055" d="M667.65,151.49l35.089,10.472l1.458-5.789-35.893-7.305Z" fill="#272c3e" stroke-width="1.32285"/><path id="man-path1057" d="M642.9,277.59l45.827-19.247l72.789,21.899" fill="none" stroke="#272c3e" stroke-width="1.69325" stroke-miterlimit="10"/><path id="man-path1059" d="M694.17,261.54c-.016,1.091-.356,2.153-.978,3.05-.622.898-1.497,1.59-2.515,1.99-1.017.4-2.131.489-3.2.256-1.068-.233-2.043-.778-2.8-1.566-.757-.787-1.262-1.782-1.451-2.856-.19-1.075-.054-2.182.389-3.179.442-.998,1.173-1.842,2.097-2.424.925-.583,2.002-.878,3.096-.848c1.451.032,2.831.637,3.836,1.682c1.006,1.046,1.554,2.446,1.526,3.895Z" fill="#fff" stroke-width="1.32285"/><path id="man-path1061" d="M694,261.54c-.016,1.067-.349,2.105-.958,2.983-.608.877-1.465,1.555-2.46,1.945-.995.391-2.085.478-3.13.249-1.044-.229-1.997-.762-2.737-1.533-.74-.77-1.234-1.743-1.419-2.794-.184-1.051-.051-2.133.382-3.109.434-.975,1.148-1.8,2.053-2.37.905-.569,1.959-.857,3.028-.827c1.42.032,2.769.624,3.751,1.647s1.518,2.393,1.49,3.809Z" fill="none" stroke="#272c3e" stroke-width="0.820168" stroke-miterlimit="10"/><path id="man-path1063" d="M685.42,265.56l-17.255,4.273.486-17.928l16.997,5.168" fill="#fff" stroke-width="1.32285"/><path id="man-path1065" d="M685.36,265.4l-16.952,4.122.471-17.322l16.708,5.002" fill="none" stroke="#272c3e" stroke-width="1.62711" stroke-miterlimit="10"/><path id="man-path1067" d="M692.65,257.25l17.27-4.274-.501,17.944-16.997-5.183" fill="#fff" stroke-width="1.32285"/><path id="man-path1069" d="M692.71,257.42l16.966-4.137-.486,17.321-16.708-5.001" fill="none" stroke="#272c3e" stroke-width="1.62711" stroke-miterlimit="10"/><path id="man-path1071" d="M694.17,261.54c-.016,1.091-.356,2.153-.978,3.05-.622.898-1.497,1.59-2.515,1.99-1.017.4-2.131.489-3.2.256-1.068-.233-2.043-.778-2.8-1.566-.757-.787-1.262-1.782-1.451-2.856-.19-1.075-.054-2.182.389-3.179.442-.998,1.173-1.842,2.097-2.424.925-.583,2.002-.878,3.096-.848c1.451.032,2.831.637,3.836,1.682c1.006,1.046,1.554,2.446,1.526,3.895Z" fill="#fff" stroke-width="1.32285"/><path id="man-path1073" d="M693.9,261.54c-.012,1.046-.337,2.066-.932,2.928s-1.434,1.528-2.409,1.913c-.976.385-2.045.472-3.07.249s-1.96-.745-2.687-1.5-1.212-1.709-1.394-2.74c-.181-1.031-.051-2.093.374-3.05s1.126-1.766,2.014-2.324c.887-.559,1.921-.841,2.97-.811.688.014,1.367.163,1.998.439.63.275,1.2.672,1.677,1.167.477.496.851,1.08,1.101,1.72.251.639.372,1.322.358,2.009Z" fill="none" stroke="#272c3e" stroke-width="1.62711" stroke-miterlimit="10"/><path id="man-path1075" d="M685.45,265.5l-16.952,4.122.471-17.322l16.709,5.001" fill="none" stroke="#272c3e" stroke-width="1.62711" stroke-miterlimit="10"/><path id="man-path1077" d="M692.8,257.51l16.966-4.138-.486,17.322-16.708-5.001" fill="none" stroke="#272c3e" stroke-width="1.62711" stroke-miterlimit="10"/><g id="man-leg2_to" transform="translate(639.011017,343.068481)"><g id="man-leg2" transform="translate(-639.011017,-343.068481)"><path id="man-path1079" d="M623.51,360.86h14.658l9.828-3.334v3.334h6.516v-35.583h-10.374l3.038,24.248Z" fill="#272c3e" stroke-width="1.32285"/><path id="man-path1081" d="M623.51,360.86h14.658l9.828-3.334v3.334h6.516v-35.583h-10.374l3.038,24.248Z" fill="none" stroke="#272c3e" stroke-width="3.39973" stroke-miterlimit="10"/></g></g></g></g><line id="man-line1087" x1="931.85602" y1="507.69763" x2="404.77072" y2="509.38922" fill="#272c3e" stroke="#272c3e"/><path id="man-path1089" class="dashed" fill="none" stroke="black" stroke-linejoin="round" stroke-miterlimit="10" stroke-width="1.5"
          mask="url(#mymask)"d="M405.45712,373.98155c-77.90525,3.00103-143.19144-1.49919-157.64298-1.49919h-10.71693c-58.82402,0-106.4548-46.73572-106.4548-104.45433s47.63078-104.45434,106.4548-104.45434s106.45482,46.73572,106.45482,104.45434-47.6308,104.45433-106.45482,104.45433h-2.26245c-94.18989,0-172.668728-106.25704-206.486586-169.81762" fill="none" stroke="#fff" stroke-width="1.51899" stroke-miterlimit="10" stroke-dasharray="3.03797,6.07594"/></svg>