<svg width="1068.1" height="498.18" version="1.1" viewBox="0 0 1068.1 498.18" xml:space="preserve" xmlns="http://www.w3.org/2000/svg"><filter id="dropshadow" height="130%">
  <feGaussianBlur in="SourceAlpha" stdDeviation="3"/> <!-- stdDeviation is how much to blur -->
  <feOffset dx="2" dy="2" result="offsetblur"/> <!-- how much to offset -->
  <feComponentTransfer>
    <feFuncA type="linear" slope="0.5"/> <!-- slope is the opacity of the shadow -->
  </feComponentTransfer>
  <feMerge> 
    <feMergeNode/> <!-- this contains the offset blurred image -->
    <feMergeNode in="SourceGraphic"/> <!-- this contains the element that the filter is applied to -->
  </feMerge>
</filter> <path class="st1" d="m338.2.2c.1 2 .1 4 .3 5.9.2 2.9 1.3 5 4.7 5 2.7 0 2.8 1.3 2 3.5-1.9 5.4-2.4 10.9.9 16.1 1.2 1.9-.2 3.2-1.2 4.4-2.6 3.2-4.5 6.6-4.7 10.7-.1 2.3-1.8 3-3.3 4s-3.8 1.8-4.3 3.2c-1.6 5-4.4 4.5-8.2 2.3 2.8-5.2 5.4-10.5 8.4-15.6s4.6-10.6 6-16.3c.5-2-.3-3.3-1.4-4.5-5.1-5.5-6-11.9-4.3-18.9 1.8.2 3.5.2 5.1.2z" style="fill:#fdfefe"/> <path class="st1" d="m297.2.2c-1.3 1.8-1.9 3.4 1.1 3.9 3.2.5 5.7 1.4 5.8 5.3 0 1 1 2.1 1.8 2.9 4.4 4.4 4.2 8.8-.1 13.6-11.5-8.3-20.6-20.3-34.6-25.7h26z" style="fill:#fdfefe"/> <path class="st1" d="m942.2.2c-.2 3.3 2 5.8 3.2 8.7 2 4.7-2.7 4.4-4.4 6.2-2 2.2-2.6-.6-3.5-1.6s-1.7-2.1-2.3-3.2c-3.4-7.4-8.4-10.6-16.8-7.5-3.4 1.2-7-1-10.3-2.5 11.4-.1 22.7-.1 34.1-.1z" style="fill:#fdfefe"/> <path class="st1" d="m892.2.2c-4 3.1-8 4-12 0h12z" style="fill:#fdfefe"/> <path class="st2" d="m557.4 493.8c-.6-3.1 1.2-4.9 3.3-5.8 3.2-1.4 6.5-2.7 10.1-1.6.5.1 1.2 1.3 1.1 1.5-1.4 2.7-2.6 5.7-4.7 7.8-1.7 1.7-4 3.5-7.1 1.8-1.8-.9-3.3-1.6-2.7-3.7z" style="fill:#561453"/> <g id="China" transform="translate(-582.8 .1)"> <path class="st2" d="m1136.3 476.2c-4-1.2-8.7-1.4-8.7-7.6 0-1.7-9.1-3.8-10.7-2.6-3.6 2.7-7.8 2.4-11.9 2.7-5.9.5-7.4 1.7-7.9 7.4-.1 1 .2 2.1-1.1 2.5-1.2.4-1.9-.5-2.2-1.4-.7-2.2-2-1.7-3.9-1.5-4.5.6-7.4-2.4-7.2-7 0-.8-5.8-8.6-6.5-8.8-1.6-.4-4.5 1.2-4.5-1.3 0-2.7-.6-6.1 2.4-8.2 3-2.2 3.8-5.2 4.2-9 .5-4.7-2.4-7.3-4.5-10.5-1.5-2.1-4.1-.6-6.1-1s-5 .8-3.4-3.7c.6-1.5-1.2-5.2-4.9-3-.8.5-1.6 1.6-2.6 1-5.7-3-9.3 1.1-12.6 4.2-4.3 4.1-8.1 5.7-14 3.6-7.1-2.5-7.3-2-13.8 3.5-.3-2.7-1.1-3.8-4.3-3-5.1 1.2-10.2-.6-15-2.5-6.7-2.8-12.6-7.1-18.6-11-3.1-2-5.9-4.3-10.4-3.3-3.9.9-14.5-7.8-15.4-11.9-.4-1.8-2.6-4.6 2.2-4.5 2.1 0 1.5-2.8.7-4.1-2.1-3.5-2.7-5.9 1.8-8.3 2.7-1.4 3.9-4.9 4.6-8 .6-2.8-4.5-5.5-8.1-4.2-3.4 1.2-6.6 2.8-10.5 1.3-3.5-1.4-6.9-2.3-7.6-6.7-.2-1.4-1.5-2.1-2.6-2.9-1-.8-2.3-1.7-2.7-2.9-1.6-4.5-1.5-9.6-7.3-12-2.6-1.1-.9-8.4 2.1-10.4 3.4-2.4 6.9-4.7 11.5-3.1 1.1.4 2.8.5 3.1-.7 1.3-4.6 5.8-3.5 8.4-5.3 4.3-3 9-5.2 13.5-7.9 1.2-.7 1.6-2.1 1-3.6-.3-.9-.9-2.3 0-2.8 6.1-3.1 1.8-7.1.8-10.4-2.3-7.3-2.5-7.6 4.9-9.1 6.9-1.3 9.3-5.8 10.6-11.9 1.7-7.9 1.9-7.9 9.7-6 6 1.5 8.2-.2 8.2-6.7 0-3.2.1-5.6 4.1-6.6 3-.8 4.7-4 6.1-6.8.9 0 1.7-.1 2.6-.1.3 6.6 4 10.5 9.9 12.9 2.4.9 5.1 1.2 6.7 3.9 2.1 3.5 3.6 6.5 1.9 11-2.4 6.6-.5 8.9 6.5 10.2 2.3.4 4.7.3 6.9 1.1 6.8 2.6 14 4.7 17.1 12.4 1.2 3 2.3 7.3 6 7.2 7.8-.1 15.4 2.8 23.2 1.3 3.8-.7 7.7-.4 11.2 1.6 9 5.1 18 7.8 27.9 1.9 2.7-1.6 6.4-2.5 9.6-2.4 7.8.2 14.1-2.1 19.7-7.8 2.5-2.5 4.6-4 2.1-7.6-1.5-2 .2-3.7 1.3-5.4 1.1-1.9 3-1.8 4.4-1.1 4.8 2.6 8.4.7 12.2-2.2 1.9-1.5 4.5-2.1 6.8-3 1.6-.6 3.2-1 4.2-2.5 3.6-5.5 8.8-7.5 15.1-8.2 2.4-.3 6.3 3.2 7.2-1.1.7-3.6-3.6-5.2-5.6-7.7-.7-.9-1.9-1.3-2.9-1.9-.9-.5-2.1-1-2.8-.2-3.2 3.6-7.2 1.4-10.8 1.5-4.1.1-5.1-1.4-3.5-5.2 2-4.6 4-9.1 6-13.7.7 0 1.5-.2 1.9.2 5.3 4.3 9.4.9 13.6-2.1 1.3-.9 2.1-1.9 2.2-3.6.5-5.5 3.2-10 6.9-14 2.6-2.7 3.1-5.6.6-8.4-1.5-1.7-1.1-2.6.2-4.1 6.2-7.3 29.1-5.9 32.7 2.8 2.9 7 6.8 13.7 8.5 21.2l.3 1.5c1 4.5 2.5 7.9 8.2 8.6 5.8.8 10.1 5 12.4 10.4 2.9 6.6 8.4 8.8 14.7 5 1.9-1.1 3.6-2.4 5.8-2.9 2-.4 4.3-2.7 5.9-1 1.3 1.4-.6 4-1.6 5.3-4.4 5.8-4 13.2-7.3 19.4-1.7 3.2-3.7 3.8-6.7 3.4-6.3-.8-8.6 1.8-7.6 7.8.8 4.8 1.5 9.6-2.8 13.5-.5.5-.2 1.9-.3 2.9-1.9-.1-2.3-5.2-4.7-2.1-2.3 2.9-5.3 3.7-8.3 4.9-1.2.5-3 .8-2.8 2.3.8 4.6-3.1 3.3-4.2 2.5-3.4-2.3-4.9-.9-6.5 1.9-1.1 2-3.2 2.8-5 4-3.1 2-5.8 4.4-7.7 7.6-4.7 1-9.4 1.7-13.2 5.2-1.6 1.4-4.1 1.8-6.7 2.8 2.1-4.4 1.6-9.2 5.7-12.1.7-.5-1.3-2-2-3.1-.9-1.5-1.9-.8-2.9-.2-4.8 2.5-9 5.6-12.3 10-1.4 1.8-2.7 3.4-5.3 3-3.1-.5-5.5 1.7-5.6 3.7-.2 2.3 1.5 5.1 4.4 5.9 2 .6 3.1 1.2 4 3.5 1 2.6 3.8 4 6.9 1.4 1.6-1.3 3.1-3.9 5.2-3.3 2.9.9 5.6 2.6 8.8 3.2.5.1 1.1 1.7 1 2.6-.1 1.8-1.9 1.6-3.1 1.8-7.4 1.4-11.1 7.6-16.1 12.2-1.7 1.6-1.6 3.1.8 4 3.6 1.4 5.2 4.3 6.2 7.8 1.3 4.6 4.1 8.3 6.7 12.1 2.2 3.2 3.6 6.3-.6 9.3-2.7 2-.3 3.7 1.1 5.2 3.2 3.2 2.2 11.5-2 13.3-1.6.7-2.3 1.7-3.1 2.9-1.5 2.6-3.3 5.1-4.5 7.8-5.2 11.7-14.2 19.7-25.2 25.2-4.2 2.1-9.1 4.2-14.5 3.5-1.1-.1-2.2 1.8-3.5 2.4-2.7 1.3-5.5 2.6-8.3 3.3-4.3.9-8.6 1.3-9 7.1-.1 1.5-1.8 1.5-2.8 1.5-1.7 0-1.8-1.7-2.1-2.9-1.4-5.7-4.1-7.2-10.3-5.5.4.5.2.5.1.5z" style="fill:#561453"/> <g> 	<g> 		<path class="st0" d="m978.8 367.3c0-7.2 5.2-12.3 12-12.3 2.6 0 4.9.6 6.8 1.9v1.8c-2-1.3-4.1-2-6.8-2-5.7 0-10.3 4.5-10.3 10.7s4.6 10.7 10.3 10.7c2.9 0 5.3-.9 7.3-2.5v1.9c-2 1.5-4.4 2.2-7.3 2.2-6.7-.1-12-5.2-12-12.4z" style="fill:#ffffff"/> 		<path class="st0" d="m1003.4 355.4h1.7v10.2h15.3v-10.2h1.7v23.8h-1.7v-12h-15.3v12h-1.7z" style="fill:#ffffff"/> 		<path class="st0" d="m1029.5 355.4h1.7v23.8h-1.7z" style="fill:#ffffff"/> 		<path class="st0" d="m1038.5 355.4h1.5l16 20.8v-20.8h1.7v23.8h-1.5l-16.1-20.9v20.9h-1.7z" style="fill:#ffffff"/> 		<path class="st0" d="m1073.2 355.3h1.6l10.7 23.9h-1.8l-3.1-6.9h-13.3l-3.1 6.9h-1.8zm6.8 15.5-6-13.3-6.1 13.3z" style="fill:#ffffff"/> 	</g> </g> </g> <g id="Russia" style="filter:url(#dropshadow)" transform="translate(-582.8 .1)"> <path class="st5" d="m635 150c.2-.3.4-.5.6-.8 6.1-6.1 6.1-6.1.3-11.9 5.4-7.1 10.9-14.2 16.3-21.4 6-8.1 5.9-9.2-1.1-16.2-1.7-1.8-4.1-3.4-2.6-6.3 2.4-4.4 1.1-8.3-1.4-12.1-2-3-2.5-6-.9-9.4 2.9-6 2.4-11.7-1-17.4-1.1-1.8-1.6-4-2.5-6-.9-1.8-.9-3.6.3-5.2 5.2-7.2 3.3-13.3-3-18.6-.3-.2-.6-.4-.8-.6-3.3-4.2-.9-13 3.8-15.5 4.1-2.1 8.9-3.7 11.1-8.5h13c2.5 4.2 6.1 6.5 11 7.6 4.6 1 9.6 1.1 13.6 4.4 6.4 5.3 12.9 10.5 19.3 15.8 7.1 6 11.6 18.3 1.5 27.2-4.2 3.7-11.8 5.6-16.9 3.5-6.7-2.9-13.5-5.6-20.2-8.6-2.4-1.1-4.3-1-7.1 1.5 12.1 6.6 11.3 18 11.1 29.2 0 .5.1 1 .1 1.5 0 1.3.6 2.2 1.7 2.8 3.4 1.9 6.8 3.9 10.2 5.8 1.4-3.8.5-6.8-1.7-9.6-2.1-2.7.4-4.2 1.6-6 1.4-2.3 3.1-1.2 4.7-.2 3.4 2.1 6.9 4 10.2 6.2 2.2 1.5 3.3-.1 4.9-.9 1.8-1 1.8-2.3.8-3.7-4.4-6.4-2.1-11.2 3.4-15.4 2-1.5 3.8-3.4 5.2-5.4 2.9-4 6.6-2.8 9.8-1.3 5.5 2.6 5.1 2.8 7.4-3.1 1.3-3.6-1-5.7-2.3-8.2-1.2-2.4-2.8-4.7-1.2-7.4 2.6-4.6 1.7-8.8-.7-13.1-.5-1-1.6-2.1-.8-3.8 4.1 1.2 8 2.8 12 3.5 5.1.9 7 4.2 8.3 8.6.6 2.1.3 3.2-1.9 3.3-5.2.2-5.3 3.6-5.1 7.6.2 3.8 2.3 6.5 5.4 7.4 3.6 1 8.4-3 8.7-6.7.4-4.2 2-7.1 6-9.4 7.3-4 14.1-8.8 21.1-13.3 2.5-1.6 5-3.3 7.5-5 2-1.4 4.5-1.4 6.1 0 1.6 1.5-1 2.7-1.4 4.2-.2.8-.7 1.6-1.2 2.2-3.3 3.7-1 4.4 2.4 5 1.6.3 2.7.1 3.3-1.3 2-4 5.6-4 9.3-4.1 2.4 0 4.8.2 7.2-1.4 8.4-5.8 8.4-5.8 14.7 2.5.2.2.5.4.8.6 1.2-1.8 2.1-3.8 3.5-5.5 2.7-3.1 2.7-5.8.1-9.1-1.8-2.2-4.1-4.5-3.2-8h18c14 5.4 23.1 17.4 34.7 25.7 4.3-4.8 4.5-9.2.1-13.6-.8-.8-1.8-1.9-1.8-2.9-.1-3.9-2.7-4.8-5.8-5.3-3-.4-2.4-2.1-1.1-3.9h36c-1.7 7-.8 13.4 4.3 18.9 1 1.1 1.8 2.4 1.4 4.5-1.4 5.7-3 11.2-6 16.3s-5.7 10.4-8.4 15.6c3.8 2.1 6.7 2.7 8.2-2.3.4-1.4 2.8-2.2 4.3-3.2s3.1-1.7 3.3-4c.3-4.1 2.1-7.6 4.7-10.7 1-1.2 2.4-2.5 1.2-4.4-3.3-5.2-2.8-10.6-.9-16.1.8-2.2.7-3.5-2-3.5-3.4 0-4.5-2.1-4.7-5-.2-2-.2-4-.3-5.9h541.9c4 4 8 3.1 12 0h16c3.3 1.5 6.8 3.7 10.3 2.5 8.4-3 13.3.2 16.8 7.5.6 1.2 1.4 2.3 2.3 3.2.9 1 1.5 3.8 3.5 1.6 1.7-1.8 6.4-1.5 4.4-6.2-1.2-2.8-3.4-5.3-3.2-8.7h46c17.9 10.4 32 25.2 46.6 39.4 1.8 1.8 1.8 3.6 1.7 5.8-.1 2.8-1.7 6.1 2 8 .2-.2.5-.4.5-.6-.7-8.8-.7-8 8.2-8 11.1.1 14.9 8.9 20.1 15.6 1.5 2-3.4 5.2-6.1 7.2-.2.2-.6.2-1 .2-2.8.6-6.7-.3-8.1 2.4-1.2 2.2-.4 5.5-.4 8.4 0 2.8.5 6.3-2.7 7.4-3.3 1.1-7 .9-9.4-2.5-1.5-2.1-3.7-3.3-6-4.3-3.1-1.3-5-3.1-5.7-6.7-.7-4.1-4.6-4.4-7.8-3.9-7.5 1.2-9.5-.6-8.8-8.4-4.1.7-6.5 2.4-3.8 6.8 1.1 1.8.7 3.4-.3 5.1-3.9 6.4-8.6 11.3-17.1 9.9-.1-.1-.1-.2-.2-.3 0 0-.1 0-.2.1.2 0 .3.1.5.1 4.8 6.4 5.8 14.6 10 21.2 1.3 2.1 1.5 4.5 1.5 6.7-.1 2.6-1.8 4.6-4.7 3.2-6.8-3.2-12.1 0-18 2.9-10.7 5.2-20.2 11.8-28.6 20.2-1.9 1.9-4 3.5-4.8 6.2-.9 3.1-2.4 2.3-4.2.6-6.8-6.1-6.8-6-14.8-1.2-1.9 1.1-3.7 2.2-5.6 3.3-.8.5-2.2 1.4-2.7.5-2.9-5.3-4.9-1-7.2.6-1.8 1.3-3.6.2-5.3-.1-2.7-.6-4.4-.4-4.8 3-.6 5.2-4.2 8.9-6.8 13.2-3.1 5-2.7 6.9 2.7 8.9 2.5.9 3.3 2.2 2.9 4.8-.4 2.3-.5 4.6-.5 7 0 3.3.7 6.7-4.7 6.5-2.1-.1-4.9 8.1-3.3 10.4 2.5 3.5.5 4.5-2.2 5.5-5.2 1.8-8.4 4.8-8.2 10.9.1 3.1-1.5 5.6-5.2 5.9-4.1.3-6.1 2.6-6.1 6.8.1 6.4-5.3 9.2-8.9 13.1-1.5 1.7-2.2.4-2.9-1.4-2.5-6.4-3-13.3-4.3-19.9-1.2-5.8-1.8-11.8-2.4-17.8-1.1-9.5 1.2-17.8 5.7-26.5 2.8-5.3 5.2-8.3 10.8-9.2 1.7-.3 2.2-1.9 3.1-3.1 8.9-12.1 17.8-24.1 29.5-33.7 1.2-1 1.8-2.2 2.2-3.8.9-3.9 2-7.7 3-11.6.4-1.4 2.1-3.4-.3-4-1.8-.5-4.8-.7-5.3 2.2-1.7 10.1-10.1 14.7-16.5 21-2.7 2.6-4 2.1-4.9-1.3-.8-3-2.1-5.9-2.9-9-.6-2.7-1.8-2.6-4.2-2.2-8.1 1.4-14.8 4.6-18.6 12.4-.8 1.6-2.1 3-3.2 4.4-5.4 7.3-5.4 7.3-1.1 15.3-7.1 2.1-14.2 3.5-21.4 4.3-3.5.4-2.5-1.8-2.7-3.7-.2-1.8 1.4-4.5-1.3-5.1s-6.1-3-8.5-.3c-5.1 5.8-11.4 4.6-17.5 3.5-9.4-1.8-18.2 1.3-27.2 2.5-.9.1-1.8.8-2.4 1.5-14.1 15.7-28.1 31.5-42.2 47.3.9 1.6 2.4 1.1 3.6 1.2 3.6.2 6 1.5 7.5 5.1 1.9 4.6 5.1 4.8 8.5 1.3 2.5-2.6 8.4-2.2 10.9.8 2.3 2.8 4.5 5.7 6.8 8.7 1.5-1.2 2.7-2.3 4-3.3 2.1-1.6 4-3.2 1.7-6-1-1.2-.5-2.1.8-2.6 1.7-.7 2.5.2 2.8 1.7 1.1 5.2 3.3 10.5 3 15.6-.7 11.8 3.8 22.1 7.5 32.7.3.9.7 1.8.9 2.5-.9 1.6-1.9.7-2.8.5-6.2-1.8-6-1.8-8.1 4.2-1.6 4.7-1.7 8.9 1.9 12.9 1.2 1.3 2.5 2.8 2.3 4.8-.1 1.4.7 3.4-.8 4.2-1.6.9-2.1-1.1-2.9-2-1.3-1.5-2-1.1-2.9.4-.7 1.2-1.2 2.7-3.2 3.6-.5-2.2-1.8-4.3-1.4-6.2 1.4-7.9-.9-15.9.7-23.8 1.9-9.5 1.6-18.8-3.5-27.5-2.7 4.4-4.5 9.1-4.6 14.8-.1 10.9-3.5 20.6-9.3 30.3-7.1 11.8-15.8 22-24 32.8-2.7 3.5-6.5 5.2-10.1 7.1-1.3.7-3.9 1-4.8.2-6.7-5.7-9.1 1-12.8 4.1-.5.4-1.1.5-1.7.7 0-.6-.1-1.1-.1-1.7.1-1-.2-2.4.3-2.9 4.3-3.8 3.7-8.7 2.8-13.5-1-6 1.3-8.6 7.6-7.8 3.1.4 5.1-.3 6.7-3.4 3.3-6.2 2.9-13.6 7.3-19.4 1-1.3 2.9-3.9 1.6-5.3-1.6-1.7-3.9.6-5.9 1-2.2.4-3.9 1.8-5.8 2.9-6.3 3.7-11.8 1.5-14.7-5-2.3-5.3-6.6-9.6-12.4-10.4-5.6-.8-7.2-4.1-8.2-8.6l-.3-1.5c-1.7-7.5-5.6-14.2-8.5-21.2-3.6-8.7-26.6-10.1-32.7-2.8-1.3 1.5-1.7 2.4-.2 4.1 2.4 2.8 1.9 5.7-.6 8.4-3.7 3.9-6.4 8.5-6.9 14-.2 1.7-.9 2.6-2.2 3.6-4.2 2.9-8.3 6.3-13.6 2.1-.4-.3-1.3-.1-1.9-.2-4-.3-8-.2-11.2-3.4-1-1.1-2.7-.7-3.7.3-5.1 5.3-12.1 6.3-18.7 8.4-5.9 1.8-16.8-.3-21-4.5-4-4-8.5-7.2-14.4-6.5-3.1.4-6.1 1.4-9.2 2.2-3.7 1-11.7-2.3-12-5.4-.5-5.2-3.7-6.9-7.9-7.8-3.5-.8-7.2-1.1-10.2-3.6-1-.8-2.3-.9-3.1.2-2.4 3.3-5.7 6-4.4 11 1.6 5.7-3 10.2-8.7 8.9-2.1-.5-4.2-1.6-6.3-1.5-3.9 0-6.6-2.2-9.8-3.6-5.2-2.2-10.8-5-17.3-1.7-7.6 3.9-13.4 11.2-22.5 12.1-.9 0-1.7.1-2.6.1-2.4-3.2-4.6-6.5-9.5-4.3-1.4.7-2.6-.6-3.7-1.8-3-3.4-7.2-5.6-9.4-9.8-1-1.8-3.2-1.3-5-.6-4.2 1.7-8 1.5-11.4-1.8-1-.9-2.7-2.9-4.1-.5-3 5.2-3.9 1.4-5.4-1-5.7-9.3-9.2-19.9-17.4-27.8-2.6-2.6-4-2.4-6.6-.7-3.5 2.3-6.7 5.4-11.4 5.7-2 .1-3 .3-3.4-2.1-.6-4.4-5.3-7.8-9.2-6-5.8 2.8-6.1-1-6.4-4.5-.3-3.3-.8-5.9-4.9-6-2.9-.1-5.7-2.2-8.5.4-1.3 1.2-3 2.2-4.7 2.7-12.2 3.5-24 8.4-36.7 9.9-6.5.8-7.3 2.8-4.3 8.4.5 1 2.4 3 .9 3.1-4.8.3-3.5 5.2-6 6.9-4.2 2.7-2.5 4.4.7 6.2 1 .5 2 1.3 2.9 1.9 1.4 1 2.7 2 2 4.1-.7 2.2-2.3 2.5-4.3 2.5-2.4 0-4.9-.7-7 1.5-1.2 1.2-2.8.3-4.1-.7-6.2-4.7-12.5-4.3-18.8-.1-1.7 1.2-3.3 1-5.1 0-4.1-2.2-8.4-4-12.4-6.4-10.7-6.3-16.1-4-23.3 3.3-2.8 2.8-6.4 4.5-5.9 9.5.2 2.2-1.8 1.3-2.7.3-3.1-3.8-4.2-1.6-6.3 1.4-2.7 3.8.1 8.1-2.5 11.8-2 2.8 1.4 8.4 4.9 9 5.1.9 7.3 3.3 6.9 8.3-.2 2.7 1.3 3.1 3.2 3.3-1.3 2-1.4 5.4-4.1 5.8-5 .7-6.9 4.5-9.4 7.9-1.4 1.9-1.4 3.2 0 5.2 1.5 2.1 4.4 4.1 3.7 6.7-1.2 4.3 1.3 6.9 3.2 9.9 1.2 1.9 3.2 3.5 3.2 6-1.9.1-2.8 1.6-4 2.7-1.5 1.5-3.1 1.9-4.9.6-6.5-4.9-11.3-12.9-21.3-11.6-.7.1-1.6-1-2.5-1.5-6.6-4-13.8-5.1-21.4-5h.1c-.3-.7-.8-.9-1.5-.8-5.3-6.5-14.1-8.4-19.6-14.8 7.5-4.2 9.6-8.5 6.1-13 3-1.4 6-2.7 9.5-4.2-2.8-1.6-4.6.4-6.5-.2-.6-4.6 2.4-6.2 6.1-6.9 1.9-.4 4.1-.5 3.8-2.9-.4-3.9-.2-7.3 1.6-11 .9-1.8-1.4-2.8-3.2-3.6-4.2-2.1-9.9-.5-13-5.2-.2-.4-1.3-.4-1.9-.3-5.8.9-10.3-.4-12.3-6.6-.5-1.6-1.6-2.5-3.4-2.5-2.5.1-3-1.3-2.8-3.5.5-5.7-2.8-8.5-8.3-7.2-7.4 1.8-7.2 1.8-9.1-5.7-.7-2.9 0-3.6 2.7-3.6 1.6 0 3.7.4 4.2-1.7.5-2-1.9-2.4-2.8-3.6-3.6-4.8-9.2-8.5-7.8-16.1.7-3.8-2.4-6-6.5-6.3-4.7-.4-8.4-3-11-6.7s-.1-9.3-4.3-12.7c-.2-.2-.1-1.1.2-1.4 2.5-2.7 1.3-5.6.6-8.5-.7-3.4-.5-6.5 2-9.3 1.1-1.2 2.1-2.7.7-4.6z" style="fill:#92278f"/> <path class="st5" d="m671.1 291c1.8-.3 3.7-.6 5.5-.9 2.9 2.9 5.6 6.3 10.5 5.1.7-.2 1.8-.2 1.9.9s-.7 2.1-1.6 2.2c-5.3.7-9.5 3.7-14 6.1-1.9 1-4.7-.4-4.4-1.7 1.2-5.1-3.2-4.8-5.9-6.4 1.8-3.3 5.4-3.6 8-5.3z" style="fill:#92278f"/> <path class="st5" d="m592.8 199.8c2.7.2 5.2 1 7.7 1.9 2.6 1 2.7 3.1 2.5 5.3-.3 2.5-2.3 1.9-3.9 2-5.5.2-10.9 0-16.3-1.1.4-6.3 5.9-6.4 10-8.1z" style="fill:#92278f"/> <g> 	<path class="st0" d="m1056 62.8h12.4c5.5 0 8.6 3 8.6 7.4 0 4-2.4 6.8-6.9 7.4l9.2 13.2h-2.3l-9.1-13.1h-9.8v13.1h-2zm12.3 13.1c4.2 0 6.7-2 6.7-5.6s-2.5-5.6-6.7-5.6h-10.3v11.2z" style="fill:#ffffff"/> 	<path class="st0" d="m1085 78.9v-16h2v16c0 6.7 3.6 10.6 9.2 10.6 5.7 0 9.2-3.8 9.2-10.6v-16h2v16c0 8.1-4.7 12.4-11.2 12.4s-11.2-4.3-11.2-12.4z" style="fill:#ffffff"/> 	<path class="st0" d="m1113.1 88.3v-2.3c1.8 1.6 5.7 3.4 10.1 3.4 4.7 0 8.2-2.3 8.2-6 0-4.1-3.8-5.1-8.4-6.4-5.2-1.5-9.1-2.8-9.1-7.8 0-3.8 3.1-7 9.3-7 3.4 0 6.3.9 8.5 2.4v2.1c-2.3-1.6-5.1-2.6-8.4-2.6-5.2 0-7.4 2.4-7.4 5.1 0 3.7 3.6 4.6 8.2 6 4.5 1.3 9.3 2.8 9.3 8.2 0 5.2-4.8 7.8-10.1 7.8-4.4.1-8.3-1.4-10.2-2.9z" style="fill:#ffffff"/> 	<path class="st0" d="m1138 88.3v-2.3c1.8 1.6 5.7 3.4 10.1 3.4 4.7 0 8.2-2.3 8.2-6 0-4.1-3.8-5.1-8.4-6.4-5.2-1.5-9.1-2.8-9.1-7.8 0-3.8 3.1-7 9.3-7 3.4 0 6.3.9 8.5 2.4v2.1c-2.3-1.6-5.1-2.6-8.4-2.6-5.2 0-7.4 2.4-7.4 5.1 0 3.7 3.6 4.6 8.2 6 4.5 1.3 9.3 2.8 9.3 8.2 0 5.2-4.8 7.8-10.1 7.8-4.4.1-8.2-1.4-10.2-2.9z" style="fill:#ffffff"/> 	<path class="st0" d="m1165.5 62.8h2v28h-2z" style="fill:#ffffff"/> 	<path class="st0" d="m1185.9 62.7h1.8l12.6 28.2h-2.1l-3.7-8.2h-15.5l-3.7 8.2h-2.1zm8 18.2-7.1-15.6-7.1 15.6z" style="fill:#ffffff"/> </g> <g> 	<path class="st0" d="m980 160.3 6.6-6.3h2.2l-7.1 6.7 8.3 8h-2.4l-7.6-7.4v7.4h-1.7v-14.7h1.7z" style="fill:#ffffff"/> 	<path class="st0" d="m992 158.5h1.7v1.9c.9-1.4 2.5-2.2 4-2.2v1.7c-1.7.1-3.3.9-4 2.4v6.4h-1.7z" style="fill:#ffffff"/> 	<path class="st0" d="m999 165.5c0-2.2 1.9-3.4 4.2-3.4 1.7 0 2.8.5 3.6.9v-.9c0-1.9-1.4-2.5-3.3-2.5-1.3 0-2.6.5-3.3 1v-1.6c.7-.4 1.9-.9 3.7-.9 2.6 0 4.6 1.2 4.6 3.8v4c0 .9.4 1.3.9 1.3.2 0 .4 0 .6-.1v1.3c-.3.2-.7.3-1.1.3-.9 0-1.7-.5-2-1.6-.8.9-2.1 1.7-4.1 1.7-2 .1-3.8-1.1-3.8-3.3zm7.7.3v-1.4c-.7-.5-1.8-.9-3.2-.9-1.8 0-2.9.7-2.9 2 0 1.4 1.3 2 2.6 2 1.6-.1 2.9-.9 3.5-1.7z" style="fill:#ffffff"/> 	<path class="st0" d="m1011.6 167.9v-1.7c.7.5 2.2 1.2 4.2 1.2 1.7 0 2.7-.6 2.7-1.5 0-1.2-1.4-1.3-3.1-1.7-2.2-.6-3.5-1.2-3.5-3.1 0-1.7 1.5-2.9 4.1-2.9 1.3 0 2.8.3 3.7.9v1.6c-.9-.6-2.3-1-3.7-1-1.7 0-2.5.6-2.5 1.4 0 1 1.3 1.3 3 1.7 2 .4 3.6 1.2 3.6 3.1s-1.8 3-4.3 3c-1.7 0-3.4-.5-4.2-1z" style="fill:#ffffff"/> 	<path class="st0" d="m1023.1 168.7v-10.2h1.7v1.5c.8-.9 2.1-1.8 4-1.8 2.6 0 3.9 1.6 3.9 4.2v6.2h-1.7v-5.8c0-2.6-1.6-3-2.8-3-1.4 0-2.8 1-3.4 2v6.8h-1.7z" style="fill:#ffffff"/> 	<path class="st0" d="m1046.2 163.6c0 2.9-2.2 5.3-5.5 5.3s-5.5-2.5-5.5-5.3 2.2-5.4 5.5-5.4 5.5 2.5 5.5 5.4zm-1.7 0c0-2.2-1.6-3.9-3.8-3.9s-3.8 1.7-3.8 3.9 1.6 3.8 3.8 3.8 3.8-1.6 3.8-3.8z" style="fill:#ffffff"/> 	<path class="st0" d="m1047.8 172.7v-1.5c.4.2.8.3 1.4.3 1.3 0 2.1-1.1 2.9-3.2l-4.5-9.8h1.8l3.5 7.9 3.4-7.9h1.8l-5 11.3c-.9 2-2 3.1-3.7 3.1-.6.1-1.2 0-1.6-.2z" style="fill:#ffffff"/> 	<path class="st0" d="m1059.4 165.5c0-2.2 1.9-3.4 4.2-3.4 1.7 0 2.8.5 3.6.9v-.9c0-1.9-1.4-2.5-3.3-2.5-1.3 0-2.6.5-3.3 1v-1.6c.7-.4 1.9-.9 3.7-.9 2.6 0 4.6 1.2 4.6 3.8v4c0 .9.4 1.3.9 1.3.2 0 .4 0 .6-.1v1.3c-.3.2-.7.3-1.1.3-.9 0-1.7-.5-2-1.6-.8.9-2.1 1.7-4.1 1.7-2 .1-3.8-1.1-3.8-3.3zm7.8.3v-1.4c-.7-.5-1.8-.9-3.2-.9-1.8 0-2.9.7-2.9 2 0 1.4 1.3 2 2.6 2 1.6-.1 2.8-.9 3.5-1.7z" style="fill:#ffffff"/> 	<path class="st0" d="m1072.8 158.5h1.7v1.9c.9-1.4 2.5-2.2 4-2.2v1.7c-1.7.1-3.3.9-4 2.4v6.4h-1.7z" style="fill:#ffffff"/> 	<path class="st0" d="m1079.9 167.9v-1.7c.7.5 2.2 1.2 4.2 1.2 1.7 0 2.7-.6 2.7-1.5 0-1.2-1.4-1.3-3.1-1.7-2.2-.6-3.5-1.2-3.5-3.1 0-1.7 1.5-2.9 4.1-2.9 1.3 0 2.8.3 3.7.9v1.6c-.9-.6-2.3-1-3.7-1-1.7 0-2.5.6-2.5 1.4 0 1 1.3 1.3 3 1.7 2 .4 3.6 1.2 3.6 3.1s-1.8 3-4.3 3c-1.7 0-3.4-.5-4.2-1z" style="fill:#ffffff"/> 	<path class="st0" d="m1093.1 162.6 4.7-4.1h2.2l-5.3 4.6 6 5.6h-2.4l-5.3-4.9v4.9h-1.7v-14.7h1.7v8.6z" style="fill:#ffffff"/> </g> <g> 	<polygon class="st1" points="952.3 178.3 943.1 168.3 943.1 151.2 961.5 151.2 961.5 168.3" style="fill:#fdfefe"/> 	<g> 		<path class="st6" d="m959.4 155c.1.1.3.4.3.7 0 .8-.7 1.3-1.6 1.3-.3 0-.6-.1-.8-.2-.1.1-.1.2-.1.3 0 .2.2.4.4.4.5 0 1.2-.1 2 0 .3 0 .4.1.6.3.1.1.2.4.2.6 0 .5-.3.9-.8 1.3-.4.3-.9.5-1.6.5-.9 0-1.5-.4-1.5-.9 0-.1.1-.3.2-.4l.6-.6c-.2-.1-.3-.2-.5-.4-.1-.2-.2-.4-.2-.6s.4-.5.6-.7c-.3-.2-.5-.5-.5-1 0-.8.7-1.3 1.7-1.3.3 0 .5 0 .7.1.3 0 .4.1.7.1l.7-.3v.1l-.5.7zm-1.3 3.5c-.5 0-.6 0-.7.1s-.2.3-.2.4c0 .5.5.8 1.1.8s1.2-.3 1.2-.8c0-.2-.1-.4-.4-.4-.3-.1-.5-.1-1-.1zm0-3.7c-.5 0-.6.6-.6 1s.2 1 .6 1 .6-.5.6-1c0-.4-.1-1-.6-1z" style="fill:#951b81"/> 		<path class="st6" d="m953.4 157.2 1.5-.3h.1c0 .6-.4 1.5-.7 1.8l-.1.1c-.2-.1-.6-.4-1-.5h-.6v7.3c.1.2.6.5 1.9.6l-.1.5c-.4.4-1 .6-2 .6-1.1 0-1.7-.6-1.7-1.4v-7.6h-2.1v5.1c0 1.9-.2 2.9-.3 3.2-.4.4-1.6.7-2.6.7l-.2-.4c.4-.4 1.1-1 1.4-1.3.1-.3.2-.9.2-2.2v-5.2h-.6c-.8 0-1.6.3-2 .4l-.1-.4c.2-.4 1.3-1.2 2.9-1.2h6.1z" style="fill:#951b81"/> 	</g> </g> <g transform="matrix(.87596 0 0 1 208.08 -21.175)" style="stroke-width:1.0685"> 	<path class="st0" d="m1151.9 286.7h1.9l5.4 12.4 5.4-12.4h1.8l-6.4 14.8h-1.6z" style="fill:#ffffff;stroke-width:1.0685"/> 	<path class="st0" d="m1168.9 299.1v-12.4h1.7v12c0 1 .5 1.4 1.3 1.4.3 0 .7-.1 1-.3v1.5c-.4.2-1 .3-1.5.3-1.3 0-2.5-.5-2.5-2.5z" style="fill:#ffffff;stroke-width:1.0685"/> 	<path class="st0" d="m1174.2 298.3c0-2.2 1.9-3.4 4.2-3.4 1.7 0 2.8.5 3.6.9v-.9c0-1.9-1.4-2.5-3.3-2.5-1.3 0-2.6.5-3.3 1v-1.6c.7-.4 1.9-.9 3.7-.9 2.6 0 4.6 1.2 4.6 3.8v4c0 .9.4 1.3.9 1.3.2 0 .4 0 .6-.1v1.3c-.3.2-.7.3-1.1.3-.9 0-1.7-.5-2-1.6-.8.9-2.1 1.7-4.1 1.7s-3.8-1.2-3.8-3.3zm7.8.2v-1.4c-.7-.5-1.8-.9-3.2-.9-1.8 0-2.9.7-2.9 2 0 1.4 1.3 2 2.6 2 1.5-.1 2.8-.9 3.5-1.7z" style="fill:#ffffff;stroke-width:1.0685"/> 	<path class="st0" d="m1197.5 286.7v14.7h-1.7v-1.6c-.8 1-2.1 1.8-3.9 1.8-3 0-5.1-2.5-5.1-5.3 0-2.9 2-5.4 5.1-5.4 1.8 0 3.1.8 3.9 1.8v-6.1h1.7zm-1.7 7.9c-.6-1.3-1.9-2.2-3.5-2.2-2.2 0-3.8 1.7-3.8 3.9s1.6 3.8 3.8 3.8c1.5 0 2.9-1 3.5-2.2z" style="fill:#ffffff;stroke-width:1.0685"/> 	<path class="st0" d="m1202 286.6c.6 0 1.1.5 1.1 1.1 0 .7-.5 1.1-1.1 1.1-.7 0-1.1-.5-1.1-1.1s.5-1.1 1.1-1.1zm-.8 4.6h1.7v10.2h-1.7z" style="fill:#ffffff;stroke-width:1.0685"/> 	<path class="st0" d="m1205.4 291.2h1.9l3.6 8 3.6-8h1.8l-4.7 10.2h-1.5z" style="fill:#ffffff;stroke-width:1.0685"/> 	<path class="st0" d="m1228.7 296.3c0 2.9-2.2 5.3-5.5 5.3s-5.5-2.5-5.5-5.3 2.2-5.4 5.5-5.4 5.5 2.5 5.5 5.4zm-1.7 0c0-2.2-1.6-3.9-3.8-3.9s-3.8 1.7-3.8 3.9 1.6 3.8 3.8 3.8c2.1 0 3.8-1.6 3.8-3.8z" style="fill:#ffffff;stroke-width:1.0685"/> 	<path class="st0" d="m1230.7 300.6v-1.7c.7.5 2.2 1.2 4.2 1.2 1.7 0 2.7-.6 2.7-1.5 0-1.2-1.4-1.3-3.1-1.7-2.2-.6-3.5-1.2-3.5-3.1 0-1.7 1.5-2.9 4.1-2.9 1.3 0 2.8.3 3.7.9v1.6c-.9-.6-2.3-1-3.7-1-1.7 0-2.5.6-2.5 1.4 0 1 1.3 1.3 3 1.7 2 .4 3.6 1.2 3.6 3.1s-1.8 3-4.3 3c-1.8 0-3.4-.5-4.2-1z" style="fill:#ffffff;stroke-width:1.0685"/> 	<path class="st0" d="m1243.1 298.5v-5.9h-2.4v-1.4h2.4v-3.1h1.7v3.1h3.5v1.4h-3.5v5.4c0 1.5.5 2.1 1.7 2.1.7 0 1.3-.2 1.6-.4v1.5c-.4.3-1.3.5-2.1.5-2-.1-2.9-1.3-2.9-3.2z" style="fill:#ffffff;stroke-width:1.0685"/> 	<path class="st0" d="m1261.1 296.3c0 2.9-2.2 5.3-5.5 5.3s-5.5-2.5-5.5-5.3 2.2-5.4 5.5-5.4 5.5 2.5 5.5 5.4zm-1.7 0c0-2.2-1.6-3.9-3.8-3.9s-3.8 1.7-3.8 3.9 1.6 3.8 3.8 3.8 3.8-1.6 3.8-3.8z" style="fill:#ffffff;stroke-width:1.0685"/> 	<path class="st0" d="m1265.5 295.3 4.7-4.1h2.2l-5.2 4.6 6 5.6h-2.4l-5.3-4.9v4.9h-1.7v-14.7h1.7z" style="fill:#ffffff;stroke-width:1.0685"/> </g> 	<g> 	<polygon class="st1" points="1291.1 313.6 1281.9 303.5 1281.9 286.4 1300.3 286.4 1300.3 303.5" style="fill:#fdfefe"/> 	<g> 		<path class="st6" d="m1298.2 290.2c.1.1.3.4.3.7 0 .8-.7 1.3-1.6 1.3-.3 0-.6-.1-.8-.2-.1.1-.1.2-.1.3 0 .2.2.4.4.4.5 0 1.2-.1 2 0 .3 0 .4.1.6.3.1.1.2.4.2.6 0 .5-.3.9-.8 1.3-.4.3-.9.5-1.6.5-.9 0-1.5-.4-1.5-.9 0-.1.1-.3.2-.4l.6-.6c-.2-.1-.3-.2-.5-.4-.1-.2-.2-.4-.2-.6s.4-.5.6-.7c-.3-.2-.5-.5-.5-1 0-.8.7-1.3 1.7-1.3.3 0 .5 0 .7.1.3 0 .4.1.7.1l.7-.3v.1l-.3.6zm-1.4 3.6c-.5 0-.6 0-.7.1s-.2.3-.2.4c0 .5.5.8 1.1.8s1.2-.3 1.2-.8c0-.2-.1-.4-.4-.4-.2-.1-.4-.1-1-.1zm.1-3.8c-.5 0-.6.6-.6 1s.2 1 .6 1 .6-.5.6-1c0-.4-.2-1-.6-1z" style="fill:#951b81"/> 		<path class="st6" d="m1292.2 292.4 1.5-.3h.1c0 .6-.4 1.5-.7 1.8l-.1.1c-.2-.1-.6-.4-1-.5h-.6v7.3c.1.2.6.5 1.9.6l-.1.5c-.4.4-1 .6-2 .6-1.1 0-1.7-.6-1.7-1.4v-7.6h-2.1v5.1c0 1.9-.2 2.9-.3 3.2-.4.4-1.6.7-2.6.7l-.2-.4c.4-.4 1.1-1 1.4-1.3.1-.3.2-.9.2-2.2v-5.2h-.6c-.8 0-1.6.3-2 .4l-.1-.4c.2-.4 1.3-1.2 2.9-1.2h6.1z" style="fill:#951b81"/> 	</g> </g> <g> 	<path class="st0" d="m681.5 134.5v-1.9c1 .9 3.1 1.8 5.4 1.8 2.2 0 3.9-1 3.9-2.6 0-1.8-1.7-2.3-4.1-3-2.7-.8-4.9-1.5-4.9-4.2 0-2.2 1.8-3.8 5.1-3.8 1.8 0 3.4.5 4.6 1.2v1.7c-1.2-.8-2.8-1.4-4.6-1.4-2.5 0-3.4 1.1-3.4 2.3 0 1.7 2 2 4.1 2.7 2.4.7 4.9 1.6 4.9 4.4s-2.5 4.3-5.5 4.3c-2.3 0-4.3-.7-5.5-1.5z" style="fill:#ffffff"/> 	<path class="st0" d="m694.6 132.7c0-2.2 1.9-3.4 4.2-3.4 1.7 0 2.8.5 3.6.9v-.9c0-1.9-1.4-2.5-3.3-2.5-1.3 0-2.6.5-3.3 1v-1.6c.7-.4 1.9-.9 3.7-.9 2.6 0 4.6 1.2 4.6 3.8v4c0 .9.4 1.3.9 1.3.2 0 .4 0 .6-.1v1.3c-.3.2-.7.3-1.1.3-.9 0-1.7-.5-2-1.6-.8.9-2.1 1.7-4.1 1.7s-3.8-1.2-3.8-3.3zm7.7.3v-1.4c-.7-.5-1.8-.9-3.2-.9-1.8 0-2.9.7-2.9 2 0 1.4 1.3 2 2.6 2 1.6-.2 2.9-1 3.5-1.7z" style="fill:#ffffff"/> 	<path class="st0" d="m709 121c.6 0 1.1.5 1.1 1.1 0 .7-.5 1.1-1.1 1.1-.7 0-1.1-.5-1.1-1.1s.4-1.1 1.1-1.1zm-.8 4.6h1.7v10.2h-1.7z" style="fill:#ffffff"/> 	<path class="st0" d="m713.6 135.8v-10.2h1.7v1.5c.8-.9 2.1-1.8 4-1.8 2.6 0 3.9 1.6 3.9 4.2v6.2h-1.7v-5.8c0-2.6-1.6-3-2.8-3-1.4 0-2.8 1-3.4 2v6.8h-1.7z" style="fill:#ffffff"/> 	<path class="st0" d="m727.6 132.9v-5.9h-2.4v-1.4h2.4v-3.1h1.7v3.1h3.5v1.4h-3.5v5.4c0 1.5.5 2.1 1.7 2.1.7 0 1.3-.2 1.6-.4v1.5c-.4.3-1.3.5-2.1.5-2-.1-2.9-1.3-2.9-3.2z" style="fill:#ffffff"/> 	<path class="st0" d="m741.3 121.1h6.2c3 0 4.7 1.7 4.7 4.1 0 2.5-1.7 4.2-4.7 4.2h-4.5v6.4h-1.7zm6 6.7c2 0 3.2-.9 3.2-2.6s-1.2-2.6-3.2-2.6h-4.3v5.2z" style="fill:#ffffff"/> 	<path class="st0" d="m753.6 130.7c0-3 2.1-5.4 5.2-5.4 3.4 0 4.8 3 4.8 5.3v.5h-8.3c.2 2.1 1.9 3.4 4.2 3.4 1.3 0 2.4-.4 3.3-.9v1.5c-.8.6-2.1 1-3.6 1-3.2-.1-5.6-2.2-5.6-5.4zm8.2-.9c0-1.2-.9-2.9-3.2-2.9-2.1 0-3.3 1.5-3.4 2.9z" style="fill:#ffffff"/> 	<path class="st0" d="m767.4 132.9v-5.9h-2.4v-1.4h2.4v-3.1h1.7v3.1h3.5v1.4h-3.5v5.4c0 1.5.5 2.1 1.7 2.1.7 0 1.3-.2 1.6-.4v1.5c-.4.3-1.3.5-2.1.5-1.9-.1-2.9-1.3-2.9-3.2z" style="fill:#ffffff"/> 	<path class="st0" d="m774.4 130.7c0-3 2.1-5.4 5.2-5.4 3.4 0 4.8 3 4.8 5.3v.5h-8.3c.2 2.1 1.9 3.4 4.2 3.4 1.3 0 2.4-.4 3.3-.9v1.5c-.8.6-2.1 1-3.6 1-3.1-.1-5.6-2.2-5.6-5.4zm8.3-.9c0-1.2-.9-2.9-3.2-2.9-2.1 0-3.3 1.5-3.4 2.9z" style="fill:#ffffff"/> 	<path class="st0" d="m787.1 125.6h1.7v1.9c.9-1.4 2.5-2.2 4-2.2v1.7c-1.7.1-3.3.9-4 2.4v6.4h-1.7z" style="fill:#ffffff"/> 	<path class="st0" d="m794.3 135v-1.7c.7.5 2.2 1.2 4.2 1.2 1.7 0 2.7-.6 2.7-1.5 0-1.2-1.4-1.3-3.1-1.7-2.2-.6-3.5-1.2-3.5-3.1 0-1.7 1.5-2.9 4.1-2.9 1.3 0 2.8.3 3.7.9v1.6c-.9-.6-2.3-1-3.7-1-1.7 0-2.5.6-2.5 1.4 0 1 1.3 1.3 3 1.7 2 .4 3.6 1.2 3.6 3.1s-1.8 3-4.3 3c-1.8 0-3.5-.5-4.2-1z" style="fill:#ffffff"/> 	<path class="st0" d="m807.4 121.1v6.1c.8-1 2.1-1.8 3.9-1.8 3 0 5.1 2.5 5.1 5.4s-2 5.3-5.1 5.3c-1.8 0-3.1-.8-3.9-1.8v1.6h-1.7v-14.7zm0 11.2c.5 1.2 1.9 2.2 3.5 2.2 2.2 0 3.8-1.7 3.8-3.8 0-2.2-1.6-3.9-3.8-3.9-1.6 0-2.9.9-3.5 2.2z" style="fill:#ffffff"/> 	<path class="st0" d="m828.4 125.6v10.2h-1.7v-1.5c-.8.9-2.1 1.8-4 1.8-2.6 0-3.9-1.6-3.9-4.2v-6.2h1.7v5.8c0 2.6 1.6 3 2.8 3 1.4 0 2.8-1 3.4-2v-6.8h1.7z" style="fill:#ffffff"/> 	<path class="st0" d="m831.9 125.6h1.7v1.9c.9-1.4 2.5-2.2 4-2.2v1.7c-1.7.1-3.3.9-4 2.4v6.4h-1.7z" style="fill:#ffffff"/> 	<path class="st0" d="m848 134.1c-.7 1-2 1.8-3.9 1.8-3 0-5.1-2.4-5.1-5.2 0-2.9 2.1-5.3 5.1-5.3 1.8 0 3.1.8 3.9 1.8v-1.5h1.7v9.5c0 3.4-2.6 5-5.6 5-1.4 0-3-.4-3.9-.9v-1.6c1.1.7 2.4 1 3.8 1 2.2 0 4.1-1 4.1-3.5zm0-5.1c-.6-1.3-1.9-2.1-3.5-2.1-2.2 0-3.8 1.6-3.8 3.8 0 2.1 1.6 3.8 3.8 3.8 1.6 0 2.9-.9 3.5-2.1z" style="fill:#ffffff"/> </g> <g> 	<polygon class="st1" points="657.7 144 648.5 134 648.5 116.9 666.9 116.9 666.9 134" style="fill:#fdfefe"/> 	<g> 		<path class="st6" d="m664.8 120.7c.1.1.3.4.3.7 0 .8-.7 1.3-1.6 1.3-.3 0-.6-.1-.8-.2-.1.1-.1.2-.1.3 0 .2.2.4.4.4.5 0 1.2-.1 2 0 .3 0 .4.1.6.3.1.1.2.4.2.6 0 .5-.3.9-.8 1.3-.4.3-.9.5-1.6.5-.9 0-1.5-.4-1.5-.9 0-.1.1-.3.2-.4l.6-.6c-.2-.1-.3-.2-.5-.4-.1-.2-.2-.4-.2-.6s.4-.5.6-.7c-.3-.2-.5-.5-.5-1 0-.8.7-1.3 1.7-1.3.3 0 .5 0 .7.1.3 0 .4.1.7.1l.7-.3v.1l-.3.6zm-1.3 3.5c-.5 0-.6 0-.7.1s-.2.3-.2.4c0 .5.5.8 1.1.8s1.2-.3 1.2-.8c0-.2-.1-.4-.4-.4-.3-.1-.5-.1-1-.1zm0-3.7c-.5 0-.6.6-.6 1s.2 1 .6 1 .6-.5.6-1c0-.4-.1-1-.6-1z" style="fill:#951b81"/> 		<path class="st6" d="m658.8 122.8 1.5-.3h.1c0 .6-.4 1.5-.7 1.8l-.1.1c-.2-.1-.6-.4-1-.5h-.6v7.3c.1.2.6.5 1.9.6l-.1.5c-.4.4-1 .6-2 .6-1.1 0-1.7-.6-1.7-1.4v-7.5h-2.1v5.1c0 1.9-.2 2.9-.3 3.2-.4.4-1.6.7-2.6.7l-.2-.4c.4-.4 1.1-1 1.4-1.3.1-.3.2-.9.2-2.2v-5.1h-.6c-.8 0-1.6.3-2 .4l-.1-.4c.2-.4 1.3-1.2 2.9-1.2z" style="fill:#951b81"/> 	</g> </g> <g> <g> 	<polygon class="st1" points="694.1 173.1 694.1 156 712.5 156 712.5 173.1 703.3 183.2" style="fill:#fdfefe"/> 	<g> 		<path class="st6" d="m710.4 159.9c.1.1.3.4.3.7 0 .8-.7 1.3-1.6 1.3-.3 0-.6-.1-.8-.2-.1.1-.1.2-.1.3 0 .2.2.4.4.4.5 0 1.2-.1 2 0 .3 0 .4.1.6.3.1.1.2.4.2.6 0 .5-.3.9-.8 1.3-.4.3-.9.5-1.6.5-.9 0-1.5-.4-1.5-.9 0-.1.1-.3.2-.4l.6-.6c-.2-.1-.3-.2-.5-.4-.1-.2-.2-.4-.2-.6s.4-.5.6-.7c-.3-.2-.5-.5-.5-1 0-.8.7-1.3 1.7-1.3.3 0 .5 0 .7.1.3 0 .4.1.7.1l.7-.3v.1l-.3.6zm-1.3 3.5c-.5 0-.6 0-.7.1s-.2.3-.2.4c0 .5.5.8 1.1.8s1.2-.3 1.2-.8c0-.2-.1-.4-.4-.4-.3-.1-.5-.1-1-.1zm0-3.8c-.5 0-.6.6-.6 1s.2 1 .6 1 .6-.5.6-1c0-.3-.1-1-.6-1z" style="fill:#951b81"/> 		<path class="st6" d="m704.4 162 1.5-.3h.1c0 .6-.4 1.5-.7 1.8l-.1.1c-.2-.1-.6-.4-1-.5h-.6v7.3c.1.2.6.5 1.9.6l-.1.5c-.4.4-1 .6-2 .6-1.1 0-1.7-.6-1.7-1.4v-7.6h-2.1v5.1c0 1.9-.2 2.9-.3 3.2-.4.4-1.6.7-2.6.7l-.2-.4c.4-.4 1.1-1 1.4-1.3.1-.3.2-.9.2-2.2v-5.2h-.6c-.8 0-1.6.3-2 .4l-.1-.4c.2-.4 1.3-1.2 2.9-1.2h6.1z" style="fill:#951b81"/> 	</g> </g> 	<path class="st0" d="m729.1 161.5h1.7l5.2 7 5.2-7h1.7v14.7h-1.7v-12.2l-4.7 6.3h-1l-4.7-6.3v12.1h-1.7z" style="fill:#ffffff"/> 	<path class="st0" d="m756.9 171.1c0 2.9-2.2 5.3-5.5 5.3s-5.5-2.5-5.5-5.3 2.2-5.4 5.5-5.4 5.5 2.5 5.5 5.4zm-1.7 0c0-2.2-1.6-3.9-3.8-3.9s-3.8 1.7-3.8 3.9 1.6 3.8 3.8 3.8 3.8-1.7 3.8-3.8z" style="fill:#ffffff"/> 	<path class="st0" d="m758.9 175.4v-1.7c.7.5 2.2 1.2 4.2 1.2 1.7 0 2.7-.6 2.7-1.5 0-1.2-1.4-1.3-3.1-1.7-2.2-.6-3.5-1.2-3.5-3.1 0-1.7 1.5-2.9 4.1-2.9 1.3 0 2.8.3 3.7.9v1.6c-.9-.6-2.3-1-3.7-1-1.7 0-2.5.6-2.5 1.4 0 1 1.3 1.3 3 1.7 2 .4 3.6 1.2 3.6 3.1s-1.8 3-4.3 3c-1.7 0-3.4-.5-4.2-1z" style="fill:#ffffff"/> 	<path class="st0" d="m769.6 171.1c0-3.1 2.4-5.3 5.5-5.3 1.2 0 2.2.3 3.1.7v1.5c-.9-.5-1.8-.8-2.8-.8-2.2 0-4 1.6-4 3.9 0 2.2 1.8 3.8 4 3.8 1.2 0 2.2-.3 3-.9v1.5c-.9.6-2 .9-3.3.9-3.1 0-5.5-2.3-5.5-5.3z" style="fill:#ffffff"/> 	<path class="st0" d="m791.4 171.1c0 2.9-2.2 5.3-5.5 5.3s-5.5-2.5-5.5-5.3 2.2-5.4 5.5-5.4 5.5 2.5 5.5 5.4zm-1.7 0c0-2.2-1.6-3.9-3.8-3.9s-3.8 1.7-3.8 3.9 1.6 3.8 3.8 3.8 3.8-1.7 3.8-3.8z" style="fill:#ffffff"/> 	<path class="st0" d="m793 166h1.7l2.8 7.7 2.7-7.8h1.4l2.7 7.8 2.7-7.7h1.7l-3.6 10.2h-1.4l-2.8-7.8-2.7 7.8h-1.4z" style="fill:#ffffff"/> </g> <g> 	<polygon class="st5" points="1371.4 294.3 1362.2 284.2 1362.2 267.2 1380.6 267.2 1380.6 284.2" style="fill:#92278f"/> 	<g> 		<path class="st0" d="m1378.5 271c.1.1.3.4.3.7 0 .8-.7 1.3-1.6 1.3-.3 0-.6-.1-.8-.2-.1.1-.1.2-.1.3 0 .2.2.4.4.4.5 0 1.2-.1 2 0 .3 0 .4.1.6.3.1.1.2.4.2.6 0 .5-.3.9-.8 1.3-.4.3-.9.5-1.6.5-.9 0-1.5-.4-1.5-.9 0-.1.1-.3.2-.4l.6-.6c-.2-.1-.3-.2-.5-.4-.1-.2-.2-.4-.2-.6s.4-.5.6-.7c-.3-.2-.5-.5-.5-1 0-.8.7-1.3 1.7-1.3.3 0 .5 0 .7.1.3 0 .4.1.7.1l.7-.3v.1l-.3.6zm-1.3 3.5c-.5 0-.6 0-.7.1s-.2.3-.2.4c0 .5.5.8 1.1.8s1.2-.3 1.2-.8c0-.2-.1-.4-.4-.4-.3-.1-.5-.1-1-.1zm0-3.8c-.5 0-.6.6-.6 1s.2 1 .6 1 .6-.5.6-1c0-.3-.1-1-.6-1z" style="fill:#ffffff"/> 		<path class="st0" d="m1372.5 273.1 1.5-.3h.1c0 .6-.4 1.5-.7 1.8l-.1.1c-.2-.1-.6-.4-1-.5h-.6v7.3c.1.2.6.5 1.9.6l-.1.5c-.4.4-1 .6-2 .6-1.1 0-1.7-.6-1.7-1.4v-7.6h-2.1v5.1c0 1.9-.2 2.9-.3 3.2-.4.4-1.6.7-2.6.7l-.2-.4c.4-.4 1.1-1 1.4-1.3.1-.3.2-.9.2-2.2v-5.2h-.6c-.8 0-1.6.3-2 .4l-.1-.4c.2-.4 1.3-1.2 2.9-1.2h6.1z" style="fill:#ffffff"/> 	</g> </g> <g> 	<path class="st5" d="m1397.6 278-5.7-8h2l4.6 6.4 4.6-6.4h1.9l-5.7 7.9v6.8h-1.7z" style="fill:#92278f"/> 	<path class="st5" d="m1414.9 274.5v10.2h-1.7v-1.5c-.8.9-2.1 1.8-4 1.8-2.6 0-3.9-1.6-3.9-4.2v-6.2h1.7v5.8c0 2.6 1.6 3 2.8 3 1.4 0 2.8-1 3.4-2v-6.8z" style="fill:#92278f"/> 	<path class="st5" d="m1417.4 283.6 6.3-7.6h-5.9v-1.4h8.3v1.2l-6.3 7.6h6.6v1.4h-9z" style="fill:#92278f"/> 	<path class="st5" d="m1429 284.7v-14.7h1.7v6c.8-.9 2.1-1.8 4-1.8 2.6 0 3.9 1.6 3.9 4.2v6.2h-1.7v-5.8c0-2.6-1.6-3-2.8-3-1.4 0-2.8 1-3.4 2v6.8z" style="fill:#92278f"/> 	<path class="st5" d="m1441.8 284.7v-10.2h1.7v1.5c.8-.9 2.1-1.8 4-1.8 2.6 0 3.9 1.6 3.9 4.2v6.2h-1.7v-5.8c0-2.6-1.6-3-2.8-3-1.4 0-2.8 1-3.4 2v6.8z" style="fill:#92278f"/> 	<path class="st5" d="m1465 279.6c0 2.9-2.2 5.3-5.5 5.3s-5.5-2.5-5.5-5.3 2.2-5.4 5.5-5.4c3.3.1 5.5 2.6 5.5 5.4zm-1.7 0c0-2.2-1.6-3.9-3.8-3.9s-3.8 1.7-3.8 3.9 1.6 3.8 3.8 3.8 3.8-1.6 3.8-3.8z" style="fill:#92278f"/> 	<path class="st5" d="m1468.1 278.2h5.9v1.5h-5.9z" style="fill:#92278f"/> 	<path class="st5" d="m1477.1 283.4v-1.9c1 .9 3.1 1.8 5.4 1.8 2.2 0 3.9-1 3.9-2.6 0-1.8-1.7-2.3-4.1-3-2.7-.8-4.9-1.5-4.9-4.2 0-2.2 1.8-3.8 5.1-3.8 1.8 0 3.4.5 4.6 1.2v1.7c-1.2-.8-2.8-1.4-4.6-1.4-2.5 0-3.4 1.1-3.4 2.3 0 1.7 2 2 4.1 2.7 2.4.7 4.9 1.6 4.9 4.4s-2.5 4.3-5.5 4.3c-2.3.1-4.3-.6-5.5-1.5z" style="fill:#92278f"/> 	<path class="st5" d="m1490.2 281.6c0-2.2 1.9-3.4 4.2-3.4 1.7 0 2.8.5 3.6.9v-.9c0-1.9-1.4-2.5-3.3-2.5-1.3 0-2.6.5-3.3 1v-1.6c.7-.4 1.9-.9 3.7-.9 2.6 0 4.6 1.2 4.6 3.8v4c0 .9.4 1.3.9 1.3.2 0 .4 0 .6-.1v1.3c-.3.2-.7.3-1.1.3-.9 0-1.7-.5-2-1.6-.8.9-2.1 1.7-4.1 1.7-2 .1-3.8-1.1-3.8-3.3zm7.7.3v-1.4c-.7-.5-1.8-.9-3.2-.9-1.8 0-2.9.7-2.9 2 0 1.4 1.3 2 2.6 2 1.6-.1 2.9-.9 3.5-1.7z" style="fill:#92278f"/> 	<path class="st5" d="m1505.2 278.7 4.7-4.1h2.2l-5.2 4.6 6 5.6h-2.4l-5.3-4.9v4.9h-1.7v-14.8h1.7z" style="fill:#92278f"/> 	<path class="st5" d="m1515 284.7v-14.7h1.7v6c.8-.9 2.1-1.8 4-1.8 2.6 0 3.9 1.6 3.9 4.2v6.2h-1.7v-5.8c0-2.6-1.6-3-2.8-3-1.4 0-2.8 1-3.4 2v6.8z" style="fill:#92278f"/> 	<path class="st5" d="m1527 281.6c0-2.2 1.9-3.4 4.2-3.4 1.7 0 2.8.5 3.6.9v-.9c0-1.9-1.4-2.5-3.3-2.5-1.3 0-2.6.5-3.3 1v-1.6c.7-.4 1.9-.9 3.7-.9 2.6 0 4.6 1.2 4.6 3.8v4c0 .9.4 1.3.9 1.3.2 0 .4 0 .6-.1v1.3c-.3.2-.7.3-1.1.3-.9 0-1.7-.5-2-1.6-.8.9-2.1 1.7-4.1 1.7-2 .1-3.8-1.1-3.8-3.3zm7.7.3v-1.4c-.7-.5-1.8-.9-3.2-.9-1.8 0-2.9.7-2.9 2 0 1.4 1.3 2 2.6 2 1.6-.1 2.9-.9 3.5-1.7z" style="fill:#92278f"/> 	<path class="st5" d="m1540.3 282.4v-12.4h1.7v12c0 1 .5 1.4 1.3 1.4.3 0 .7-.1 1-.3v1.5c-.4.2-1 .3-1.5.3-1.2.1-2.5-.5-2.5-2.5z" style="fill:#92278f"/> 	<path class="st5" d="m1547.6 270c.6 0 1.1.5 1.1 1.1 0 .7-.5 1.1-1.1 1.1-.7 0-1.1-.5-1.1-1.1s.4-1.1 1.1-1.1zm-.8 4.5h1.7v10.2h-1.7z" style="fill:#92278f"/> 	<path class="st5" d="m1552.2 284.7v-10.2h1.7v1.5c.8-.9 2.1-1.8 4-1.8 2.6 0 3.9 1.6 3.9 4.2v6.2h-1.7v-5.8c0-2.6-1.6-3-2.8-3-1.4 0-2.8 1-3.4 2v6.8z" style="fill:#92278f"/> 	<path class="st5" d="m1564.3 283.9v-1.7c.7.5 2.2 1.2 4.2 1.2 1.7 0 2.7-.6 2.7-1.5 0-1.2-1.4-1.3-3.1-1.7-2.2-.6-3.5-1.2-3.5-3.1 0-1.7 1.5-2.9 4.1-2.9 1.3 0 2.8.3 3.7.9v1.6c-.9-.6-2.3-1-3.7-1-1.7 0-2.5.6-2.5 1.4 0 1 1.3 1.3 3 1.7 2 .4 3.6 1.2 3.6 3.1s-1.8 3-4.3 3c-1.8.1-3.4-.4-4.2-1z" style="fill:#92278f"/> 	<path class="st5" d="m1577.4 278.7 4.7-4.1h2.2l-5.2 4.6 6 5.6h-2.4l-5.3-4.9v4.9h-1.7v-14.8h1.7z" style="fill:#92278f"/> </g> <g> 	<path class="st0" d="m1092.8 328.3h6.4c2.6 0 4.2 1.3 4.2 3.6 0 1.6-.8 2.7-2 3.1 1.9.3 3.2 1.7 3.2 3.9 0 2.4-1.8 4.1-4.8 4.1h-7.1v-14.7zm6.2 6.2c1.8 0 2.8-.8 2.8-2.3s-1-2.3-2.8-2.3h-4.4v4.6zm.6 7c2.1 0 3.3-1 3.3-2.8s-1.2-2.7-3.3-2.7h-5v5.5z" style="fill:#ffffff"/> 	<path class="st0" d="m1107 338c0-3 2.1-5.4 5.2-5.4 3.4 0 4.8 3 4.8 5.3v.5h-8.3c.2 2.1 1.9 3.4 4.2 3.4 1.3 0 2.4-.4 3.3-.9v1.5c-.8.6-2.1 1-3.6 1-3.1-.1-5.6-2.3-5.6-5.4zm8.3-1c0-1.2-.9-2.9-3.2-2.9-2.1 0-3.3 1.5-3.4 2.9z" style="fill:#ffffff"/> 	<path class="st0" d="m1120.8 328.3c.6 0 1.1.5 1.1 1.1 0 .7-.5 1.1-1.1 1.1-.7 0-1.1-.5-1.1-1.1s.5-1.1 1.1-1.1zm-.8 4.6h1.7v10.1h-1.7zm2.3 14v-1.5c.4.2.9.4 1.5.4 1.2 0 1.8-.7 1.8-2v-11h1.7v11.2c0 2.3-1.4 3.3-3.1 3.3-.6 0-1.4-.1-1.9-.4zm4.1-18.6c.7 0 1.2.5 1.2 1.1 0 .7-.5 1.1-1.2 1.1-.6 0-1.1-.5-1.1-1.1s.4-1.1 1.1-1.1z" style="fill:#ffffff"/> 	<path class="st0" d="m1132 328.3c.6 0 1.1.5 1.1 1.1 0 .7-.5 1.1-1.1 1.1-.7 0-1.1-.5-1.1-1.1s.5-1.1 1.1-1.1zm-.8 4.6h1.7v10.1h-1.7z" style="fill:#ffffff"/> 	<path class="st0" d="m1136.6 343v-10.2h1.7v1.5c.8-.9 2.1-1.8 4-1.8 2.6 0 3.9 1.6 3.9 4.2v6.2h-1.7v-5.8c0-2.6-1.6-3-2.8-3-1.4 0-2.8 1-3.4 2v6.8z" style="fill:#ffffff"/> 	<path class="st0" d="m1157.7 341.3c-.7 1-2 1.8-3.9 1.8-3 0-5.1-2.4-5.1-5.2 0-2.9 2.1-5.3 5.1-5.3 1.8 0 3.1.8 3.9 1.8v-1.5h1.7v9.5c0 3.4-2.6 5-5.6 5-1.4 0-3-.4-3.9-.9v-1.6c1.1.7 2.4 1 3.8 1 2.2 0 4.1-1 4.1-3.5zm0-5.1c-.6-1.3-1.9-2.1-3.5-2.1-2.2 0-3.8 1.6-3.8 3.8 0 2.1 1.6 3.8 3.8 3.8 1.6 0 2.9-.9 3.5-2.1z" style="fill:#ffffff"/> </g> <g> 	<polygon class="st1" points="1180.8 356.1 1171.6 346 1171.6 329 1189.9 329 1189.9 346" style="fill:#fdfefe"/> 	<g> 		<path class="st6" d="m1187.9 332.8c.1.1.3.4.3.7 0 .8-.7 1.3-1.6 1.3-.3 0-.6-.1-.8-.2-.1.1-.1.2-.1.3 0 .2.2.4.4.4.5 0 1.2-.1 2 0 .3 0 .4.1.6.3.1.1.2.4.2.6 0 .5-.3.9-.8 1.3-.4.3-.9.5-1.6.5-.9 0-1.5-.4-1.5-.9 0-.1.1-.3.2-.4l.6-.6c-.2-.1-.3-.2-.5-.4-.1-.2-.2-.4-.2-.6s.4-.5.6-.7c-.3-.2-.5-.5-.5-1 0-.8.7-1.3 1.7-1.3.3 0 .5 0 .7.1.3 0 .4.1.7.1l.7-.3v.1l-.3.6zm-1.4 3.5c-.5 0-.6 0-.7.1s-.2.3-.2.4c0 .5.5.8 1.1.8s1.2-.3 1.2-.8c0-.2-.1-.4-.4-.4-.2-.1-.5-.1-1-.1zm0-3.8c-.5 0-.6.6-.6 1s.2 1 .6 1 .6-.5.6-1c0-.3-.1-1-.6-1z" style="fill:#951b81"/> 		<path class="st6" d="m1181.9 334.9 1.5-.3h.1c0 .6-.4 1.5-.7 1.8l-.1.1c-.2-.1-.6-.4-1-.5h-.6v7.3c.1.2.6.5 1.9.6l-.1.5c-.4.4-1 .6-2 .6-1.1 0-1.7-.6-1.7-1.4v-7.6h-2.1v5.1c0 1.9-.2 2.9-.3 3.2-.4.4-1.6.7-2.6.7l-.2-.4c.4-.4 1.1-1 1.4-1.3.1-.3.2-.9.2-2.2v-5.1h-.6c-.8 0-1.6.3-2 .4l-.1-.4c.2-.4 1.3-1.2 2.9-1.2h6.1z" style="fill:#951b81"/> 	</g> </g> <g> 	<path class="st0" d="m1085.2 408.4v-1.9c1 .9 3.1 1.8 5.4 1.8 2.2 0 3.9-1 3.9-2.6 0-1.8-1.7-2.3-4.1-3-2.7-.8-4.9-1.5-4.9-4.2 0-2.2 1.8-3.8 5.1-3.8 1.8 0 3.4.5 4.6 1.2v1.7c-1.2-.8-2.8-1.4-4.6-1.4-2.5 0-3.4 1.1-3.4 2.3 0 1.7 2 2 4.1 2.7 2.4.7 4.9 1.6 4.9 4.4s-2.5 4.3-5.5 4.3c-2.3.1-4.3-.6-5.5-1.5z" style="fill:#ffffff"/> 	<path class="st0" d="m1099.1 409.7v-14.7h1.7v6c.8-.9 2.1-1.8 4-1.8 2.6 0 3.9 1.6 3.9 4.2v6.2h-1.7v-5.8c0-2.6-1.6-3-2.8-3-1.4 0-2.8 1-3.4 2v6.8z" style="fill:#ffffff"/> 	<path class="st0" d="m1111.1 406.6c0-2.2 1.9-3.4 4.2-3.4 1.7 0 2.8.5 3.6.9v-.9c0-1.9-1.4-2.5-3.3-2.5-1.3 0-2.6.5-3.3 1v-1.6c.7-.4 1.9-.9 3.7-.9 2.6 0 4.6 1.2 4.6 3.8v4c0 .9.4 1.3.9 1.3.2 0 .4 0 .6-.1v1.3c-.3.2-.7.3-1.1.3-.9 0-1.7-.5-2-1.6-.8.9-2.1 1.7-4.1 1.7-2 .1-3.8-1.1-3.8-3.3zm7.7.3v-1.4c-.7-.5-1.8-.9-3.2-.9-1.8 0-2.9.7-2.9 2 0 1.4 1.3 2 2.6 2 1.6-.1 2.9-.9 3.5-1.7z" style="fill:#ffffff"/> 	<path class="st0" d="m1124.4 409.7v-10.2h1.7v1.5c.8-.9 2.1-1.8 4-1.8 2.6 0 3.9 1.6 3.9 4.2v6.2h-1.7v-5.8c0-2.6-1.6-3-2.8-3-1.4 0-2.8 1-3.4 2v6.8z" style="fill:#ffffff"/> 	<path class="st0" d="m1145.5 408c-.7 1-2 1.8-3.9 1.8-3 0-5.1-2.4-5.1-5.3s2.1-5.2 5.1-5.2c1.8 0 3.1.8 3.9 1.8v-1.5h1.7v9.5c0 3.4-2.6 5-5.6 5-1.4 0-3-.4-3.9-.9v-1.6c1.1.7 2.4 1 3.8 1 2.2 0 4.1-1 4.1-3.5zm0-5.1c-.6-1.3-1.9-2.1-3.5-2.1-2.2 0-3.8 1.6-3.8 3.8 0 2.1 1.6 3.8 3.8 3.8 1.6 0 2.9-.9 3.5-2.1z" style="fill:#ffffff"/> 	<path class="st0" d="m1150.6 409.7v-14.7h1.7v6c.8-.9 2.1-1.8 4-1.8 2.6 0 3.9 1.6 3.9 4.2v6.2h-1.7v-5.8c0-2.6-1.6-3-2.8-3-1.4 0-2.8 1-3.4 2v6.8z" style="fill:#ffffff"/> 	<path class="st0" d="m1162.6 406.6c0-2.2 1.9-3.4 4.2-3.4 1.7 0 2.8.5 3.6.9v-.9c0-1.9-1.4-2.5-3.3-2.5-1.3 0-2.6.5-3.3 1v-1.6c.7-.4 1.9-.9 3.7-.9 2.6 0 4.6 1.2 4.6 3.8v4c0 .9.4 1.3.9 1.3.2 0 .4 0 .6-.1v1.3c-.3.2-.7.3-1.1.3-.9 0-1.7-.5-2-1.6-.8.9-2.1 1.7-4.1 1.7-2 .1-3.8-1.1-3.8-3.3zm7.7.3v-1.4c-.7-.5-1.8-.9-3.2-.9-1.8 0-2.9.7-2.9 2 0 1.4 1.3 2 2.6 2 1.6-.1 2.9-.9 3.5-1.7z" style="fill:#ffffff"/> 	<path class="st0" d="m1177 395c.6 0 1.1.5 1.1 1.1 0 .7-.5 1.1-1.1 1.1-.7 0-1.1-.5-1.1-1.1s.5-1.1 1.1-1.1zm-.8 4.5h1.7v10.2h-1.7z" style="fill:#ffffff"/> </g> 	<g> 	<polygon class="st1" points="1201.1 421.4 1191.9 411.4 1191.9 394.3 1210.3 394.3 1210.3 411.4" style="fill:#fdfefe"/> 	<g> 		<path class="st6" d="m1208.2 398.1c.1.1.3.4.3.7 0 .8-.7 1.3-1.6 1.3-.3 0-.6-.1-.8-.2-.1.1-.1.2-.1.3 0 .2.2.4.4.4.5 0 1.2-.1 2 0 .3 0 .4.1.6.3.1.1.2.4.2.6 0 .5-.3.9-.8 1.3-.4.3-.9.5-1.6.5-.9 0-1.5-.4-1.5-.9 0-.1.1-.3.2-.4l.6-.6c-.2-.1-.3-.2-.5-.4-.1-.2-.2-.4-.2-.6s.4-.5.6-.7c-.3-.2-.5-.5-.5-1 0-.8.7-1.3 1.7-1.3.3 0 .5 0 .7.1.3 0 .4.1.7.1l.7-.3v.1l-.3.6zm-1.3 3.5c-.5 0-.6 0-.7.1s-.2.3-.2.4c0 .5.5.8 1.1.8s1.2-.3 1.2-.8c0-.2-.1-.4-.4-.4-.3-.1-.5-.1-1-.1zm0-3.7c-.5 0-.6.6-.6 1s.2 1 .6 1 .6-.5.6-1c0-.4-.1-1-.6-1z" style="fill:#951b81"/> 		<path class="st6" d="m1202.2 400.3 1.5-.3h.1c0 .6-.4 1.5-.7 1.8l-.1.1c-.2-.1-.6-.4-1-.5h-.6v7.3c.1.2.6.5 1.9.6l-.1.5c-.4.4-1 .6-2 .6-1.1 0-1.7-.6-1.7-1.4v-7.6h-2.1v5.1c0 1.9-.2 2.9-.3 3.2-.4.4-1.6.7-2.6.7l-.2-.4c.4-.4 1.1-1 1.4-1.3.1-.3.2-.9.2-2.2v-5.2h-.6c-.8 0-1.6.3-2 .4l-.1-.4c.2-.4 1.3-1.2 2.9-1.2h6.1z" style="fill:#951b81"/> 	</g> </g> </g> </svg> 